<?xml version="1.0" standalone="no"?>
<!DOCTYPE svg PUBLIC "-//W3C//DTD SVG 1.1//EN" "http://www.w3.org/Graphics/SVG/1.1/DTD/svg11.dtd" >
<svg>
<metadata>
Created by FontForge 20120731 at Tue Jul  9 02:03:23 2019
 By www
Copyright (c) 2011 by Letterbox. All rights reserved.
</metadata>
<defs>
<font id="MoriceStraightW03-Bold" horiz-adv-x="580" >
  <font-face 
    font-family="MoriceStraightW03-Bold"
    font-weight="700"
    font-stretch="normal"
    units-per-em="1000"
    panose-1="2 0 8 3 0 0 0 2 0 3"
    ascent="800"
    descent="-200"
    x-height="435"
    cap-height="694"
    bbox="-51 -345.059 1567 992"
    underline-thickness="50"
    underline-position="-75"
    unicode-range="U+000D-FB02"
  />
<missing-glyph horiz-adv-x="340" 
 />
    <glyph glyph-name="uniFB01" unicode="fi" horiz-adv-x="599" 
d="M113 497h-34v44q0 24 8.5 50.5t28.5 50.5t51.5 41t71.5 17q35 0 61 -11q28 11 65 11q25 0 55.5 -10.5t56 -35t36.5 -48.5q7 -16 8.5 -39t-13 -43t-40.5 -25q-23 -4 -47.5 4t-39 27.5t-19.5 40.5q-6 24 -23 45.5t-38 33.5q-30 -17 -48 -47.5t-18 -66.5l1 -99h202
q34 0 56 -24t22 -54v-287q0 -15 -8.5 -32t-28 -27.5t-47 -11t-51 18.5t-23.5 53l1 223h35l-2 -223q0 -9 5.5 -20t21.5 -15.5t31 0t23 13.5t8 21l1 287q0 17 -12.5 30.5t-31.5 13.5h-202v-325q0 -13 -7.5 -31.5t-27 -33t-44.5 -14.5q-32 0 -55.5 23.5t-23.5 54.5v243
q0 55 26 86t72 31h25v99q0 38 16.5 71.5t44.5 57.5l-23 2q-25 0 -54 -12.5t-50.5 -44t-21.5 -69.5v-44zM157 34q20 0 32.5 15t12.5 29l-1 325h-25q-63 0 -63 -83l-1 -243q0 -17 13.5 -30t31.5 -13zM480 593q-24 37 -55.5 55t-54 19t-32.5 -2q18 -13 35 -37.5t23 -48.5
q7 -29 25.5 -39.5t38.5 -6.5q19 4 24 22.5t-4 37.5z" />
    <glyph glyph-name="uniFB02" unicode="fl" horiz-adv-x="615" 
d="M267 404h-34l1 -32q0 -13 10 -23t23 -10q12 0 22 10t10 23t-10 22.5t-22 9.5zM461 71q9 12 18 32t14.5 48t5.5 56v348q0 20 -11 45t-42 45t-78 20l-22 -2q29 -22 46 -54t17 -70l-1 -344q0 -35 13.5 -68t39.5 -56zM79 511v28q0 32 16.5 68.5t57.5 64t90 27.5q29 0 59 -11
q31 11 66 11q49 0 85 -18t58.5 -51t22.5 -75v-348q0 -43 -11.5 -84.5t-32.5 -70.5q42 -20 96 -20v-35q-34 0 -66.5 8t-54.5 21q-32 -25 -72 -25v35q24 0 42 12q-31 27 -46.5 66.5t-15.5 80.5l1 344q0 36 -20.5 65.5t-51.5 45.5q-31 -16 -49.5 -46.5t-18.5 -69.5l-1 -95h34
q27 0 47 -20t20 -47t-20 -47t-47 -20q-28 0 -48 20t-20 47v32h-21q-63 0 -63 -81v-244q0 -17 12.5 -30.5t31.5 -13.5t31.5 13.5t12.5 30.5l-1 145h35v-145q0 -32 -23 -55.5t-55 -23.5q-34 0 -56.5 24.5t-22.5 54.5v244q0 55 26 85.5t72 30.5h21v95q0 40 15.5 73.5t43.5 56.5
l-15 1q-38 0 -70.5 -22t-45.5 -51.5t-13 -52.5v-28h-35z" />
    <glyph glyph-name=".notdef" horiz-adv-x="340" 
 />
    <glyph glyph-name="glyph1" horiz-adv-x="0" 
 />
    <glyph glyph-name="glyph1" horiz-adv-x="0" 
 />
    <glyph glyph-name="uni000D" unicode="&#xd;" horiz-adv-x="340" 
 />
    <glyph glyph-name="space" unicode=" " horiz-adv-x="340" 
 />
    <glyph glyph-name="exclam" unicode="!" horiz-adv-x="319" 
d="M114 79q0 -17 13 -31t32 -14q20 0 32.5 14t12.5 31q0 6 -6 19t-40 50l-18 -22.5t-20 -28.5t-6 -18zM159 711v-34q-16 0 -30.5 -13.5t-14.5 -31.5v-302q0 -67 43 -127q47 68 47 133v285h35v-285q0 -80 -59 -161q38 -42 48.5 -60.5t10.5 -35.5q0 -32 -24 -56t-56 -24
t-56 24t-24 56q0 11 6.5 26.5t27.5 42t22 27.5q-56 71 -56 155l1 302q0 33 24.5 56t54.5 23z" />
    <glyph glyph-name="quotedbl" unicode="&#x22;" horiz-adv-x="514" 
d="M160 402v35q17 0 31 13t14 32l-1 178q0 17 -12.5 31t-32.5 14q-18 1 -31 -13.5t-13 -31.5v-66h-34l-1 66q0 32 24 56t56 24t55.5 -23.5t23.5 -56.5l1 -178q-1 -34 -25.5 -57t-54.5 -23zM356 402v35q17 0 31 13t14 32l-1 178q0 17 -12.5 31t-32.5 14q-18 1 -31 -13.5
t-13 -31.5v-66h-34l-1 66q0 32 24 56t56 24t55.5 -23.5t23.5 -56.5l1 -178q-1 -34 -25.5 -57t-54.5 -23z" />
    <glyph glyph-name="numbersign" unicode="#" horiz-adv-x="937" 
d="M133 449v34h117q31 0 42 34l27 115q4 17 14 30.5t30.5 22.5t49.5 4.5t49 -26.5t16 -55l-68 -368h98l3 17q8 44 21 64t31 30.5t45 10.5h51l16 87h-39q-29 -1 -50.5 17t-26 41t-0.5 39l22 86q5 16 17.5 32t34 23.5t44 3.5t39.5 -18t22 -33.5t2 -36.5l-23 -120h122v-34h-129
l-16 -87h64q29 0 51 -16t27 -47t-8.5 -54.5t-31 -31.5t-33.5 -8h-98l-27 -146q-4 -22 -24 -39.5t-47 -20t-47 5.5t-31 27t-8 45l21 128h-99l-27 -146q-5 -24 -25 -41.5t-52 -17.5t-52.5 15.5t-25.5 34.5t-2 36l22 119h-82q-13 0 -30.5 7t-31.5 26.5t-15 44.5q-1 31 20.5 55
t52.5 24h63q37 0 58 -22.5t14 -56.5l-7 -43h91l69 374q2 13 -5.5 25t-24 17.5t-36 -0.5t-24.5 -30l-27 -117q-3 -14 -14.5 -29.5t-28.5 -23t-33 -7.5h-117zM681 483l25 128q4 19 -7.5 31.5t-29.5 15t-31 -4t-17.5 -15t-5.5 -12.5l-22 -87q-6 -20 7.5 -38t37.5 -18h43z
M604 65l26 140h-93l-22 -128q-3 -21 9 -33.5t30 -13t32.5 8.5t17.5 26zM342 65l26 140h-91l-24 -123q-4 -24 13 -37t35 -11.5t28 10t13 21.5zM248 240l7 43q4 21 -6.5 32.5t-30.5 11.5h-63q-17 0 -27.5 -13t-8.5 -30q1 -18 13.5 -31t26.5 -13h89zM758 327h-70l-16 -87h91
q13 1 22.5 9.5t13.5 23t-1 27.5t-15 20t-25 7zM636 240l16 87h-44q-23 0 -38 -13.5t-25 -63.5l-2 -10h93z" />
    <glyph glyph-name="dollar" unicode="$" horiz-adv-x="597" 
d="M163 351l24 25q138 -129 162 -154q28 -28 34.5 -51t6.5 -72v-40q10 6 37 27.5t42 52.5q19 41 10.5 86t-42.5 82q-26 27 -77.5 60t-78.5 57q-55 47 -55 122v59q-30 -13 -54.5 -34.5t-34.5 -44t-10 -40.5h-35q0 51 39.5 93t94.5 63v58q0 30 17 52.5t52 27t65.5 -17
t30.5 -60.5v-58q28 -10 60.5 -31.5t54.5 -56t22 -67.5q0 -28 -14 -46.5t-33.5 -23t-35.5 -2.5q-25 4 -47.5 24t-32 43t-9.5 39v94q-22 6 -48 6.5t-47 -6.5v-71q0 -27 8.5 -50t34.5 -46q23 -20 79.5 -58t78.5 -61q43 -46 53 -100.5t-14 -106.5q-13 -29 -43.5 -57.5
t-67.5 -45.5l1 -56q0 -19 -9 -39t-29.5 -31.5t-44.5 -11t-44.5 13t-29 31t-8.5 36.5v49q-48 13 -83.5 41t-48.5 60.5t-13 58.5q0 17 10 37t34 32.5t50 8.5q18 -4 38.5 -18t34 -44t13.5 -67v-81q63 -9 95 3v55q0 44 -4 58.5t-13.5 25.5t-14.5 15zM115 173q0 -42 30 -75
t81 -49v73q0 23 -7.5 45.5t-22 34.5t-28.5 15q-20 3 -36 -9.5t-17 -34.5zM391 606v-83q0 -23 18.5 -45.5t40.5 -26.5q19 -3 31 7.5t12 30.5q0 33 -28.5 65.5t-73.5 51.5zM261 700v-47q45 10 95 0v49q0 21 -14 33.5t-33.5 12.5t-33.5 -12.5t-14 -35.5zM261 -36q1 -11 6 -22
t17 -17.5t27.5 -6t29.5 13t15 33.5v43q-38 -11 -95 -2v-42z" />
    <glyph glyph-name="percent" unicode="%" horiz-adv-x="861" 
d="M324 742v-48h265q19 0 39 -11.5t28 -28t7.5 -34t-13.5 -36.5l-301 -544q-8 -14 -24.5 -26t-40 -13t-44.5 9.5t-33 29.5t-9.5 40t11.5 37l257 456l30 -18q-21 -34 -256 -455q-13 -20 -7 -36.5t24.5 -25t36 -2.5t25.5 21l300 544q13 20 3 38.5t-33 19.5h-265v-54
q0 -126 -82 -153q-29 -9 -58.5 -3.5t-53 22.5t-37.5 43.5t-14 56.5q0 24 11 52.5t40.5 49.5t66.5 21h93v48h34zM519 128q0 24 12.5 54t44 51.5t68.5 21.5t68 -21.5t43.5 -51.5t12.5 -54q0 -53 -36.5 -90.5t-87.5 -37.5q-24 0 -53 12.5t-50.5 45t-21.5 70.5zM114 569
q0 -26 15 -49t46.5 -33t55.5 -2q59 19 59 120v54h-93q-19 0 -39 -9.5t-32 -32t-12 -48.5zM554 128q0 -18 9 -39.5t31.5 -37.5t49.5 -16q17 0 38 9.5t36.5 33t15.5 50.5q0 17 -9 38.5t-32 37.5t-49 16q-17 0 -38 -9t-36.5 -32.5t-15.5 -50.5z" />
    <glyph glyph-name="ampersand" unicode="&#x26;" horiz-adv-x="805" 
d="M488 507l13 -33q-30 -12 -47.5 -36t-17.5 -73v-24h87v28q0 33 22 59t57 26h48q30 0 52 -22t22 -52t-21.5 -51.5t-51.5 -21.5h-93v-70q0 -48 -18.5 -91.5t-51 -76t-76 -51t-91.5 -18.5q-50 0 -94 16t-76 45t-49.5 68.5t-17.5 85.5q0 37 14 69.5t41.5 60.5t96.5 78
q5 4 53 36t69 60t21 58q0 36 -26.5 62.5t-62.5 26.5t-62.5 -26.5t-26.5 -62.5q0 -19 10.5 -39.5t25.5 -34.5l-26 -20q-20 18 -32.5 43.5t-12.5 50.5q0 23 12.5 52.5t43.5 50.5t68 21q51 0 87.5 -36.5t36.5 -87.5q0 -39 -23 -72.5t-78.5 -71.5t-56.5 -39q-72 -52 -94 -76.5
t-32.5 -49t-10.5 -53.5q0 -79 56.5 -130t145.5 -51q30 0 63.5 10.5t68 39t52.5 70.5t18 83v70h-87v-80q0 -22 -11.5 -49t-40.5 -46.5t-63 -19.5q-22 0 -49 11.5t-46.5 40.5t-19.5 63q0 47 34 81t81 34l81 -1v24q0 55 21 89.5t65 52.5zM241 227q0 -33 24 -57t56 -24t56 24
t24 57v80h-80q-32 0 -56 -24t-24 -56zM558 369v-28h93q16 0 27.5 11.5t11.5 27.5t-12 27.5t-28 11.5h-48q-20 0 -32 -16.5t-12 -33.5z" />
    <glyph glyph-name="quotesingle" unicode="'" horiz-adv-x="239" 
d="M120 402v35q17 0 31 13t14 32l-1 178q0 17 -12.5 31t-32.5 14q-18 1 -31 -13.5t-13 -31.5v-66h-34l-1 66q0 32 24 56t56 24t55.5 -23.5t23.5 -56.5l1 -178q-1 -34 -25.5 -57t-54.5 -23z" />
    <glyph glyph-name="parenleft" unicode="(" horiz-adv-x="467" 
d="M199 732q2 47 36 83t76 36q31 0 53.5 -23t22.5 -53t-22.5 -52.5t-53.5 -22.5h-77v-701h77q31 0 53.5 -22.5t22.5 -52.5q0 -31 -22.5 -53.5t-53.5 -22.5q-26 0 -50 14t-42 40.5t-20 61.5q-27 0 -54.5 12.5t-46 46t-18.5 76.5v500q-2 58 30.5 93t88.5 40zM115 599v-500
q0 -24 9 -48t30 -38t45 -14v698q-42 -6 -63.5 -29.5t-20.5 -68.5zM311 817q-27 0 -50.5 -25.5t-26.5 -57.5l77 1q17 0 29.5 12t12.5 28q0 17 -12.5 29.5t-29.5 12.5zM234 -36q3 -31 26.5 -56.5t50.5 -25.5q17 0 29.5 12.5t12.5 29.5q0 16 -12.5 28t-29.5 12h-77z" />
    <glyph glyph-name="parenright" unicode=")" horiz-adv-x="467" 
d="M268 733q56 -5 88.5 -40t30.5 -93v-500q0 -27 -10.5 -58.5t-38.5 -54t-70 -22.5q-1 -23 -13 -49.5t-40 -46.5t-59 -20t-53.5 22.5t-22.5 53.5q0 30 22.5 52.5t53.5 22.5h77v700l-77 1q-31 0 -53.5 22.5t-22.5 52.5t22.5 53t53.5 23q42 0 76 -36t36 -83zM352 100v500
q1 45 -20.5 68.5t-63.5 29.5v-698q24 0 45 14t30 38t9 48zM156 818q-17 0 -29.5 -12.5t-12.5 -29.5q0 -16 12.5 -28t29.5 -12l77 -1q-3 32 -26.5 57.5t-50.5 25.5zM233 -35h-77q-17 0 -29.5 -12t-12.5 -28q0 -17 12.5 -29.5t29.5 -12.5q27 0 50.5 25.5t26.5 56.5z" />
    <glyph glyph-name="asterisk" unicode="*" horiz-adv-x="500" 
d="M156 532l-16 28l88 52l-88 51l16 28l88 -51v102h33v-102l88 51l16 -28l-89 -51l89 -52l-16 -28l-88 51v-102h-33v102z" />
    <glyph glyph-name="plus" unicode="+" horiz-adv-x="662" 
d="M177 192v-34h-33q-26 0 -44.5 13t-26 32.5t-3 44.5t25.5 40t47 15h107v123q0 24 15 44t43.5 24.5t49.5 -7t29 -28.5t8 -33v-30q0 -47 -31.5 -83t-78.5 -43v-190q0 -17 9.5 -30.5t30 -17t36 10.5t15.5 36v151q0 30 21.5 51.5t51.5 21.5h70q25 0 45 -15t25 -43.5t-7 -50
t-29.5 -29t-33.5 -7.5h-39v34h39q17 0 26.5 11t9.5 26.5t-9.5 27t-26.5 11.5h-70q-16 0 -27 -12t-11 -26v-151q0 -17 -8.5 -36t-28.5 -30t-43.5 -11t-43.5 11.5t-28.5 30t-8.5 36.5v189l-107 -1q-13 0 -24.5 -9t-11.5 -27t10 -29t27 -11h33zM285 426v-121q32 6 54 32t22 59
v30q0 17 -11 27t-27 9.5t-27 -10t-11 -26.5z" />
    <glyph glyph-name="comma" unicode="," horiz-adv-x="296" 
d="M124 1q-25 9 -41 31t-16 49q0 34 25 59t59 25t59 -25t25 -59q0 -69 -34.5 -116.5t-98.5 -64.5l-10 33q54 16 81 53t27 95q0 20 -14.5 34.5t-34.5 14.5t-34.5 -14.5t-14.5 -34.5q0 -15 10 -28.5t24 -17.5z" />
    <glyph glyph-name="hyphen" unicode="-" horiz-adv-x="750" 
d="M591 247v-35h-448q-30 0 -51.5 21.5t-21.5 51.5q0 29 21.5 50.5t51.5 21.5h464q30 0 51.5 -21.5t21.5 -51.5h-35q0 15 -11 27t-27 12h-464q-16 0 -27 -11t-11 -27t11 -27t27 -11h448z" />
    <glyph glyph-name="period" unicode="." horiz-adv-x="308" 
d="M68 85q0 16 8.5 36t29.5 34t46 14q35 0 59.5 -24.5t24.5 -59.5q0 -16 -8 -35.5t-29.5 -34t-46.5 -14.5q-34 0 -59 25t-25 59zM103 85q0 -20 14.5 -34.5t34.5 -14.5t34.5 14.5t14.5 34.5t-14.5 35t-34.5 15t-34.5 -15t-14.5 -35z" />
    <glyph glyph-name="slash" unicode="/" horiz-adv-x="479" 
d="M402 613l33 -12l-235 -610q-11 -29 -39.5 -42.5t-64 -0.5t-47 41.5t1.5 58.5l241 625q6 15 20.5 29.5t38.5 19.5t44 -3l-13 -33q-16 5 -33.5 -1.5t-24.5 -24.5l-241 -624q-10 -24 3 -40.5t28.5 -19.5t27.5 2t18 13.5t7 12.5z" />
    <glyph glyph-name="zero" unicode="0" horiz-adv-x="673" 
d="M247 182h-35q0 69 32 107.5t90 38.5q56 0 90.5 -38.5t34.5 -99.5q0 -83 -50.5 -136t-130.5 -53q-58 0 -103 27t-70 73.5t-25 111.5q0 108 69.5 175t181.5 67q76 0 133.5 -31.5t93.5 -92t37 -146.5q-2 -132 -88 -180l-17 29q36 20 53 60t17 91q0 36 -9 70t-26.5 62.5
t-47 53.5t-69 37t-77.5 12q-98 0 -157 -56.5t-59 -150.5q0 -23 5 -49t17.5 -49t33.5 -41.5t50.5 -28t56.5 -9.5q66 0 106 42.5t40 111.5q0 46 -25 74.5t-65 28.5q-43 0 -65 -28.5t-22 -82.5z" />
    <glyph glyph-name="one" unicode="1" horiz-adv-x="464" 
d="M348 75v194h35v-194q0 -26 -14 -44.5t-35 -25.5t-48 -2.5t-43 25.5t-16 47l1 236q-25 -26 -33 -33q-17 -14 -40.5 -16.5t-45 12t-27 35.5t0.5 37.5t17 28.5l47 49q10 9 25.5 15t33 3.5t32.5 -15t19 -36.5l12 11q28 25 78 33q24 4 45 2v-35q-25 2 -54 -4.5t-46 -21.5
q-15 -12 -30 -29v-272q0 -15 8 -25t19.5 -14t26 -1.5t23.5 14t9 26.5zM126 352q-9 -11 -11 -23t7 -23t24.5 -11t26.5 10l54 56q2 31 -16 43t-41 -6z" />
    <glyph glyph-name="two" unicode="2" horiz-adv-x="593" 
d="M124 -66l-22 27l52 39q-32 0 -53 11.5t-28 30t0.5 39t28.5 36.5l165 119q85 61 91.5 98.5t-44.5 68.5q-28 -13 -51 -38.5t-35 -58.5q-7 -19 -21.5 -38t-36.5 -27.5t-42.5 -3.5t-34 21t-14 37.5t5.5 40.5q11 35 35.5 61.5t56.5 40t68 14.5t69 -11q53 16 96.5 5.5t70 -39
t33.5 -73.5l-35 -7q-9 48 -41.5 72.5t-83.5 17.5q31 -25 40.5 -54.5t-14 -68.5t-93.5 -86l-154 -111q-18 -12 -21.5 -28.5t9.5 -25t33 -8.5h46l170 132q18 14 35.5 23.5t42.5 9.5q31 0 52 -20t21 -50v-38q0 -46 -26 -69t-85 -23h-198zM399 146l-142 -111h153q41 0 58.5 11.5
t17.5 45.5v35q0 16 -10.5 27t-27.5 11q-9 0 -20 -2.5t-29 -16.5zM118 324q-4 -18 -1 -33.5t16 -21.5t31 5t32 45q11 29 30.5 56t44.5 43q-22 4 -52.5 -2.5t-59.5 -31.5t-41 -60z" />
    <glyph glyph-name="three" unicode="3" horiz-adv-x="615" 
d="M368 4l29 19q11 -22 15.5 -48t-3 -54t-26.5 -51t-38 -34q28 -6 57 -2.5t53 21t40.5 48t20.5 71.5q3 30 -5.5 71.5t-40 74.5t-80.5 36q-9 -27 -29.5 -52t-44 -35.5t-43.5 -10.5q-31 0 -49.5 20t-19.5 47t17 47t50 20h94q9 27 12 54l1 40q0 37 -20 68.5t-52 48.5
q-26 -13 -44.5 -38.5t-25.5 -57.5q-5 -19 -17.5 -38.5t-34.5 -30t-44 -8t-38 16.5t-19.5 34t0.5 39q12 54 55.5 94t105.5 40q34 0 62 -12q29 12 61 12q42 0 83 -22t63.5 -63t22.5 -83l-2 -52h-34l1 52q0 54 -39.5 93.5t-94.5 39.5l-20 -1q30 -23 47.5 -58t17.5 -74l-1 -43
q-1 -10 -4.5 -27.5t-6.5 -27.5q42 -4 74 -25.5t50.5 -54.5t25 -72.5t0.5 -77.5q-9 -60 -42 -99t-81 -51.5t-109 6.5q-28 -14 -64.5 -18.5t-69.5 6.5t-55 29.5t-36 46t-16 59.5q-2 45 21 71.5t57.5 23.5t56 -27.5t24.5 -60.5q1 -14 10 -34t27.5 -38.5t36.5 -22.5
q27 12 47 41.5t23.5 59t-12.5 54.5zM112 -49q1 -29 12.5 -55.5t38 -46t59.5 -22t55 3.5q-64 34 -76 107q-5 31 -19 45.5t-30 13.5t-28 -14t-12 -32zM202 315q8 29 24 56.5t39 45.5l-21 2q-37 0 -66 -19t-43 -44t-18 -44q-8 -31 11 -43t42.5 1.5t31.5 44.5zM273 92
q15 0 32 8.5t30.5 26t19.5 31.5h-84q-15 -1 -25 -14t-2.5 -32.5t29.5 -19.5z" />
    <glyph glyph-name="four" unicode="4" horiz-adv-x="734" 
d="M586 -1v35h26q21 0 33.5 13.5t12.5 31.5t-13 31t-35 13h-64q-27 0 -46 15t-19 45v188q0 20 -13.5 31.5t-31.5 12t-31.5 -11t-13.5 -31.5v-338h45q32 0 56 -24t24 -56l-1 -82q0 -26 -14 -44.5t-35.5 -25.5t-48.5 -2.5t-43.5 25.5t-16.5 47v127h-181q-29 0 -50.5 12
t-32.5 32.5t-11.5 47.5t7.5 52l61 191q12 33 40.5 45.5t54.5 4.5t41 -24.5t17.5 -37t-2.5 -37.5l-46 -150l-33 11l46 148q4 10 3 22t-9.5 22t-24 15t-30 -1.5t-20 -16t-6.5 -13.5l-58 -189q-8 -27 -3.5 -51.5t20 -36t36.5 -11.5h181v338q0 17 8.5 35.5t28.5 29.5t43 11
t42.5 -11t28 -29.5t8.5 -36.5v-190q0 -23 26 -23h71q28 0 48 -14t27 -32.5t7 -32.5q0 -23 -12 -43t-32 -28.5t-38 -8.5h-27zM391 -1v-127q0 -22 13.5 -33.5t31.5 -10.5t31.5 13t13.5 31v82q0 18 -13.5 31.5t-31.5 13.5h-45z" />
    <glyph glyph-name="five" unicode="5" horiz-adv-x="613" 
d="M236 214h-35l12 69h-34q-17 0 -30 -4.5t-18.5 -17.5t-9.5 -42l-5 -44q0 -12 8 -18.5t31 -6.5h86q45 -2 81.5 -20.5t60 -47.5t33.5 -64.5t4 -70.5q-13 -72 -74 -113q25 -3 56.5 4t59 31.5t41.5 58.5q9 22 13 54.5t-8 69t-38 61.5l24 25q20 -21 37.5 -54.5t19.5 -78
t-13 -83.5q-12 -31 -33 -56t-50 -41t-65.5 -20t-76.5 5q-48 -16 -92 -12.5t-77.5 22.5t-54.5 50.5t-25 69.5q-4 36 11.5 61.5t50.5 28.5h11.5t28 -6.5t37.5 -28t20 -51.5q5 -59 82 -98q29 15 50.5 42t28.5 62q6 36 -7.5 74.5t-50 62.5t-85.5 28h-86q-36 0 -55.5 15.5
t-19.5 45.5q0 14 6 49q8 45 19.5 61t29 23.5t44.5 7.5h39q26 125 130 125h97q28 0 47 -14t27.5 -39.5t-0.5 -51.5t-28 -40t-45 -14h-198zM348 407q-37 0 -60 -22t-34 -68h192q19 0 30.5 13.5t12 31.5t-11 31.5t-32.5 13.5h-97zM270 -170q-41 23 -59.5 52t-21.5 56
q-2 15 -9 30t-21 23t-28 7q-15 -2 -26.5 -17.5t-8.5 -34.5q5 -35 22 -60.5t45.5 -40t61 -17t45.5 1.5z" />
    <glyph glyph-name="six" unicode="6" horiz-adv-x="634" 
d="M426 359l7 34q58 -13 89.5 -59t31.5 -118v-39q0 -82 -47.5 -129.5t-127.5 -47.5q-53 0 -91 22.5t-57.5 62t-20 92t17.5 109.5l108 312q5 14 0.5 29t-22.5 25t-36.5 3t-25.5 -27q-109 -310 -121 -352q-20 -66 -13 -138t47 -110l-24 -26q-18 17 -31 41t-21 55t-8 82t16 106
l122 354q9 25 32 40t55 10t49.5 -25t18.5 -40.5t-5 -37.5l-108 -311q-13 -45 -14.5 -88t11 -78t43.5 -56t79 -21q65 0 102 38.5t37 105.5v39q0 51 -21 91t-72 52z" />
    <glyph glyph-name="seven" unicode="7" horiz-adv-x="634" 
d="M462 422l14 32q19 -8 37 -26t29.5 -50t10 -69.5t-11.5 -64.5l-144 -408q-8 -23 -31 -37.5t-51 -10.5t-46.5 17.5t-25 35.5t3.5 48l131 366q11 33 3.5 73t-28.5 58.5t-45 19.5h-146q-21 0 -33 -13.5t-12 -31.5t11.5 -31.5t32.5 -13.5h120v-35h-120q-37 0 -59 24t-22.5 56
t21.5 56t61 24h146q33 0 58.5 -18.5t39 -48.5t15 -65.5t-9.5 -65.5l-131 -365q-6 -15 -1.5 -29.5t22.5 -24t37 -2.5t26 26l145 408q16 47 3.5 98.5t-50.5 67.5z" />
    <glyph glyph-name="eight" unicode="8" horiz-adv-x="626" 
d="M241 522q0 -50 38 -111q98 67 98 125q0 33 -18 61t-48 43q-31 -17 -50.5 -49t-19.5 -69zM370 655l-16 -1q27 -21 42.5 -52t15.5 -66q0 -77 -114 -154l47 -63q153 118 153 203q0 38 -22.5 72t-52.5 47.5t-53 13.5zM318 298l-47 64q-77 -57 -116.5 -108.5t-39.5 -95.5
q0 -34 20.5 -68t55.5 -50t69 -10q-54 40 -54 105q0 33 23 72.5t89 90.5zM241 135q0 -31 17.5 -55t46.5 -37q36 17 59.5 49t23.5 66q0 21 -9.5 45t-40.5 67q-57 -44 -77 -76.5t-20 -58.5zM481 267l28 21q9 -13 18 -36q17 -42 17 -96q0 -31 -14 -63.5t-50 -61t-84.5 -34.5
t-89.5 8q-41 -15 -82 -9.5t-73.5 28t-51.5 58t-19 76.5q0 33 18.5 72t59 80.5t93.5 80.5q-45 70 -45 131q0 38 17.5 73t46.5 58l-20 2q-52 0 -91 -40t-39 -93q0 -30 9.5 -61.5t21.5 -51.5l-29 -19q-2 4 -4 7t-4 7t-5 10.5t-7 16.5t-7.5 23.5t-6.5 31t-3 36.5q0 40 20 76
t53 59t74 29.5t80 -8.5q39 15 79 8.5t72 -29.5t51 -59t19 -76q0 -38 -21 -76.5t-57.5 -76.5t-88.5 -78q34 -47 45 -76.5t11 -56.5q0 -36 -19.5 -70t-51.5 -58q28 -6 57 2t51.5 26.5t36 44t13.5 53.5q0 34 -8.5 64.5t-19.5 46.5z" />
    <glyph glyph-name="nine" unicode="9" horiz-adv-x="640" 
d="M213 34l-11 -30q-26 5 -54.5 24t-47.5 59.5t-19 92.5v81q0 81 49 130t130 49q49 0 85.5 -21.5t59.5 -64.5t23 -105q0 -47 -16 -98q-5 -18 -49.5 -134.5t-54.5 -142.5q-7 -18 1.5 -33.5t25.5 -21.5t33.5 0t23.5 25q110 292 117 317q20 68 13.5 140t-46.5 109l23 25
q31 -28 45.5 -71.5t14.5 -100t-16 -111.5q-6 -18 -58 -158t-60 -161q-6 -15 -21 -29t-39 -18t-45 4q-29 11 -43 36.5t-2 58.5q7 18 52.5 137.5t51.5 138.5q14 46 14 95q0 68 -36.5 108.5t-96.5 40.5q-66 0 -105 -39t-39 -105v-80q0 -35 12 -69.5t35 -53t50 -24.5z" />
    <glyph glyph-name="colon" unicode=":" horiz-adv-x="328" 
d="M81 85q0 16 8.5 36t29.5 34t46 14q16 0 36 -8t34.5 -29.5t14.5 -46.5q0 -16 -8.5 -35.5t-30 -34t-46.5 -14.5q-34 0 -59 25t-25 59zM116 85q0 -20 14.5 -34.5t34.5 -14.5q21 0 35.5 14.5t14.5 34.5t-14.5 35t-35.5 15q-20 0 -34.5 -15t-14.5 -35zM82 356q0 34 25 58.5
t58 24.5q34 0 58.5 -24.5t24.5 -58.5t-24.5 -58.5t-58.5 -24.5q-33 0 -58 24.5t-25 58.5zM115 356q0 -21 14.5 -35.5t35.5 -14.5t36 14.5t15 35.5t-15 36t-36 15t-35.5 -15t-14.5 -36z" />
    <glyph glyph-name="semicolon" unicode=";" horiz-adv-x="326" 
d="M115 -100l-10 33q54 16 81 53t27 95q0 20 -14.5 34.5t-34.5 14.5t-34.5 -14.5t-14.5 -34.5q0 -15 10 -28.5t24 -17.5l-11 -34q-25 9 -41.5 31.5t-16.5 48.5q0 34 25 59t59 25t59 -25t25 -59q0 -69 -34.5 -116.5t-98.5 -64.5zM80 357q0 34 24.5 58.5t58.5 24.5t58.5 -24.5
t24.5 -58.5t-24.5 -58.5t-58.5 -24.5t-58.5 24.5t-24.5 58.5zM113 357q0 -21 14.5 -35.5t35.5 -14.5t36 14.5t15 35.5t-15 36t-36 15t-35.5 -15t-14.5 -36z" />
    <glyph glyph-name="less" unicode="&#x3c;" horiz-adv-x="498" 
d="M321 148l26 24l42 -35q27 -26 31 -55t-18 -54q-13 -13 -33.5 -21.5t-40 -5t-33.5 13.5q-11 8 -47 39.5t-44 39.5q-23 22 -23 52.5t26 51.5q78 67 160 129q14 11 16.5 31t-9.5 33q-8 9 -20.5 13t-24 1t-18.5 -9q-37 -29 -182 -148q-16 -13 -14 -37t19 -37l-23 -23
q-21 16 -28.5 42.5t1.5 48t23 32.5q119 101 183 150q27 21 59 16.5t51 -26.5q16 -18 18.5 -43.5t-8 -44t-22.5 -27.5q-53 -39 -158 -127q-13 -11 -14 -26t12 -27q69 -62 87 -75q14 -10 29.5 -7.5t26.5 12.5q13 13 12 29.5t-20 34.5z" />
    <glyph glyph-name="equal" unicode="=" horiz-adv-x="736" 
d="M624 369h33q0 -30 -21 -51t-51 -21h-432q-30 0 -51 21t-21 51q0 29 21 50t51 21h416v-32h-416q-16 0 -27.5 -11.5t-11.5 -27.5t11.5 -27.5t27.5 -11.5h432q17 0 28 12t11 27zM658 112h-35q0 14 -10.5 26t-27.5 12h-432q-16 0 -27 -11t-11 -27t11 -27t27 -11h416v-34h-416
q-30 0 -51.5 21t-21.5 51t21.5 51.5t51.5 21.5h432q30 0 51.5 -21.5t21.5 -51.5z" />
    <glyph glyph-name="greater" unicode="&#x3e;" horiz-adv-x="500" 
d="M153 172l26 -24l-42 -35q-19 -18 -20 -34.5t12 -29.5q11 -10 26.5 -12.5t29.5 7.5q18 13 87 75q13 12 12 27t-14 26q-105 88 -158 127q-12 9 -22.5 27.5t-8 44t18.5 43.5q19 22 51 26.5t59 -16.5q64 -49 183 -150q14 -11 23 -32.5t1.5 -48t-28.5 -42.5l-23 23
q17 13 19 37t-14 37q-145 119 -182 148q-7 6 -18.5 9t-24 -1t-20.5 -13q-12 -13 -9.5 -33t16.5 -31q82 -62 160 -129q26 -21 26 -51.5t-23 -52.5q-1 -1 -4 -3.5t-36.5 -33t-50.5 -42.5q-14 -10 -33.5 -13.5t-40 5t-33.5 21.5q-22 25 -18 54t31 55z" />
    <glyph glyph-name="question" unicode="?" horiz-adv-x="664" 
d="M215 595q39 54 71 78q-26 4 -58.5 -1.5t-57.5 -23t-40 -38.5q-11 -15 -13.5 -31.5t6 -26t19.5 -12.5q13 -4 28 4t45 51zM327 169q-54 -51 -54 -85q0 -23 15.5 -37t37 -14.5t37 13.5t15.5 39q0 13 -10 31.5t-41 52.5zM354 248l26 -22l-29 -31q39 -45 50.5 -67.5
t11.5 -42.5q0 -30 -18 -54.5t-52.5 -30.5t-60.5 9t-35 35.5t-9 39.5q0 17 8 37t23 37.5t36 37.5q-26 28 -36 63t-3 61t15.5 38.5t11.5 16.5q34 41 77 87q18 20 28 48.5t8.5 58t-19.5 54.5t-52 38q-14 -6 -34.5 -21t-57.5 -66q-34 -47 -59 -60.5t-51 -7.5q-27 6 -39.5 24.5
t-11 46.5t19.5 53q27 38 69 58.5t93 20.5q37 0 70 -11q31 11 68 11q25 0 55 -9t62 -32t49 -55.5t17 -61.5q0 -34 -10.5 -66.5t-45.5 -79.5l-71 -91l-27 22l70 91q25 32 37 59t12 65q0 22 -14 46.5t-38.5 44t-54.5 28.5t-59 3q35 -21 49.5 -53t11.5 -66t-17 -65t-33 -51
l-76 -85q-48 -60 10 -131z" />
    <glyph glyph-name="at" unicode="@" horiz-adv-x="862" 
d="M675 -1l-21 27q44 33 68 94.5t24 161.5v101q0 139 -81.5 210.5t-233.5 71.5t-234 -71.5t-82 -204.5v-94q0 -135 63 -197.5t199 -62.5q43 0 84 15t73.5 45t51.5 76.5t19 105.5l1 137q0 35 -16.5 61t-37.5 35.5t-37 10.5q-21 1 -42 -5q21 -21 33 -50t12 -60v-128
q0 -65 -45.5 -111t-109.5 -46q-28 0 -61 12t-57 43t-24 68q0 35 16 65.5t49 45.5t73 15h51v-35h-51q-43 1 -73.5 -21.5t-29.5 -69.5q0 -17 10.5 -38t37.5 -36t59 -15q36 0 66.5 21t42.5 49.5t12 52.5l-1 128q0 26 -12 51.5t-33 42.5q-6 -4 -18 -13.5t-53 -53.5
q-17 -19 -38.5 -25t-41.5 -1t-34.5 19t-18 33.5t3.5 35t11 21.5q19 27 58.5 38.5t75.5 5t57 -18.5q34 16 77 15q22 -1 50 -14.5t51 -47.5t23 -81l-1 -136q0 -67 -22.5 -120.5t-60.5 -88t-85 -51.5t-95 -17q-297 0 -297 295v94q0 147 92.5 229t258.5 82q83 0 149 -21
t110.5 -61.5t67.5 -100t23 -134.5v-101q0 -100 -25 -170.5t-81 -112.5zM277 495q-11 -17 -6.5 -34.5t29.5 -21t42 16.5q43 48 63 64q-27 15 -70 7t-58 -32z" />
    <glyph glyph-name="A" unicode="A" horiz-adv-x="783" 
d="M359 350h108v-34h-108q-15 0 -29 7t-19 23.5t1 36.5l77 247q7 24 25 38t42 14q52 0 70 -54l172 -525q10 -32 -5 -62.5t-46 -39.5q-32 -9 -61 6t-39 46l-36 107q-6 16 -18 23.5t-31 7.5h-142q-19 0 -31 -7.5t-18 -23.5l-35 -106q-10 -31 -39 -45.5t-62 -6.5
q-17 4 -32.5 17.5t-20.5 37t2 47.5q12 36 73 235t72 235q29 98 93 125l14 -32q-49 -21 -73 -103q-10 -33 -71.5 -232.5t-74.5 -238.5q-6 -20 2 -36.5t25 -21.5q18 -6 35.5 3t23.5 27l35 106q9 26 30.5 40t51.5 14h142q30 0 52 -14t30 -40l36 -107q6 -18 22.5 -26.5
t34.5 -3.5q19 6 27 22t1 36l-173 525q-4 13 -12 21.5t-24 8.5q-12 0 -21 -7.5t-13 -20.5l-77 -246q-6 -23 14 -23z" />
    <glyph glyph-name="B" unicode="B" horiz-adv-x="682" 
d="M177 695l11 -33q-20 -7 -38 -24t-26 -43.5t-8 -54.5l-1 -342q0 -45 22.5 -82t60.5 -60t75 -23l20 1q-40 25 -65 65.5t-25 87.5v324q0 36 14.5 69.5t39.5 58.5t58 39.5t69 14.5q25 0 54.5 -9.5t61.5 -35.5t49 -62t17 -68q0 -53 -28 -101l-30 18q23 40 23 83
q0 32 -18.5 62.5t-53.5 54t-75 23.5q-29 0 -61.5 -14t-58.5 -50.5t-26 -82.5v-326q0 -23 10.5 -50.5t37 -51.5t60.5 -37q31 12 55 32.5t33.5 45.5t9.5 47v114l-33 1q-27 0 -47 20t-20 47t20 47t47 20t47 -20t20 -47v-35q44 -8 80.5 -44t41.5 -87l1 -29q0 -26 -11 -54
t-35.5 -51.5t-61 -39t-79.5 -15.5q-33 0 -68 11q-38 -11 -73 -11q-47 0 -93 28t-73 72t-27 100l1 342q0 59 25 99t71 56zM479 171q0 -43 -21.5 -78.5t-57.5 -58.5l14 -1q38 0 74 17t57 44.5t21 63.5v17q0 19 -9.5 41.5t-32 41t-46.5 24.5zM411 320h33v33q0 13 -10 22.5
t-23 9.5t-23 -9.5t-10 -22.5t10 -23t23 -10z" />
    <glyph glyph-name="C" unicode="C" horiz-adv-x="720" 
d="M209 38l-8 -33q-55 12 -86.5 61.5t-31.5 97.5l-1 297q0 42 16 83.5t46 74t72 51.5t92 19q24 0 49 -5q41 13 80 13q52 0 102.5 -22t79.5 -57q16 -17 19.5 -41.5t-8 -41.5t-30.5 -24q-32 -13 -66 2t-63 56q-42 60 -111 78q-25 -10 -53.5 -32.5t-47.5 -63t-19 -85.5v-238
q0 -48 25.5 -95t72 -72.5t94.5 -25.5q50 0 92.5 23t67.5 63l29 -19q-23 -35 -57 -59.5t-69 -33.5t-63 -9q-34 0 -72 12t-76.5 44t-58.5 79t-20 93v238q0 58 25.5 107.5t68.5 80.5q-30 -1 -61.5 -13t-58 -37.5t-44.5 -62.5t-18 -80l1 -292q0 -38 25.5 -79.5t65.5 -51.5z
M437 662l-16 -1q45 -26 79 -73q44 -61 87 -45q18 8 18.5 23.5t-12.5 29.5q-23 27 -65.5 46.5t-90.5 19.5z" />
    <glyph glyph-name="D" unicode="D" horiz-adv-x="693" 
d="M139 691l17 -30q-17 -10 -29 -28.5t-12 -66.5v-488q0 -20 14 -32.5t32 -12.5t30.5 13.5t12.5 31.5v504q0 46 23 78.5t68 32.5h90q37 0 76.5 -10t77 -39t55.5 -74.5t18 -93.5v-274q0 -32 -11 -67t-38 -64.5t-72 -50t-106 -20.5h-49v35h49q57 0 100.5 21.5t67.5 58t24 87.5
v274q0 84 -51.5 133t-140.5 49h-90q-27 0 -41.5 -21.5t-14.5 -54.5v-504q0 -38 -22 -58.5t-56 -20.5q-23 0 -43 11.5t-28.5 30.5t-8.5 37l-1 488q0 57 16.5 83.5t42.5 41.5z" />
    <glyph glyph-name="E" unicode="E" horiz-adv-x="641" 
d="M137 696l20 -28q-22 -16 -31.5 -41.5t-9.5 -70.5v-335q0 -33 22.5 -50.5t60.5 -17.5v92q0 36 22 58t50 22h148q17 0 29.5 10.5t12.5 29.5q0 15 -13 27.5t-29 12.5h-129q-24 0 -45 11.5t-30 30t-9 35.5l-1 102q0 30 15.5 57.5t39 40t48.5 12.5h174q32 0 55.5 -24.5
t23.5 -56.5t-23 -55t-55 -23h-139v34h139q19 0 31 13.5t12 30.5q0 18 -13 32t-31 14h-174q-15 0 -31 -8t-26.5 -27t-10.5 -40v-102q0 -11 6 -21.5t19 -15.5t25 -5h129q30 0 53.5 -23t23.5 -52q0 -32 -22 -53.5t-55 -21.5h-148q-15 0 -26 -12.5t-11 -32.5v-92h238
q32 0 55 -22.5t23 -54.5q0 -31 -23.5 -53.5t-55.5 -22.5h-185q-17 0 -37.5 10t-35 36t-14.5 57v17q-53 0 -85.5 24.5t-32.5 76.5l-1 335q0 37 4 58.5t16 42t37 39.5zM287 35l184 -1q17 0 30.5 12t13.5 30q0 16 -12 29.5t-31 13.5h-238v-16q0 -26 14.5 -47t38.5 -21z" />
    <glyph glyph-name="F" unicode="F" horiz-adv-x="537" 
d="M228 534v35h166q18 0 31 14.5t13 31.5q0 18 -14.5 31t-30.5 13h-211q-15 0 -31 -8t-26.5 -27t-10.5 -40v-209q0 -17 10 -26.5t21.5 -12.5t18.5 -3h36v29q0 21 11 40.5t28.5 28t33.5 8.5h80q25 0 44.5 -15t23.5 -39t-3 -43t-24 -31.5t-41 -12.5h-118v-219q0 -33 -23 -56
t-55 -23q-31 0 -55.5 22t-24.5 57v122h35v-122q0 -20 14 -32t31 -12q18 0 30.5 12.5t12.5 31.5v219h-36q-24 0 -45 11.5t-30 30t-9 35.5l-1 209q0 30 15.5 57.5t39 40t48.5 12.5h211q32 0 55.5 -24t23.5 -55q0 -32 -23.5 -56.5t-54.5 -24.5h-166zM235 362v-29h118
q16 0 26 10.5t10.5 25.5t-9 25.5t-27.5 10.5h-80q-19 0 -28.5 -14t-9.5 -29z" />
    <glyph glyph-name="G" unicode="G" horiz-adv-x="736" 
d="M205 26l-11 -33q-52 16 -83 64.5t-31 114.5l-1 283q0 41 16 82t45.5 74t72 52.5t91.5 19.5q23 0 50 -5q41 13 79 13q52 0 102.5 -21.5t80.5 -56.5q2 -2 6.5 -9t11 -25t-1 -40.5t-35.5 -33.5q-33 -13 -68.5 2.5t-63.5 55.5q-42 61 -108 79q-40 -16 -69.5 -48t-40.5 -68.5
t-11 -65.5v-252q0 -28 9.5 -59t33.5 -58.5t62 -46.5t88 -19q53 0 99 27.5t69 74.5t23 92l1 34q0 48 -60 48h-121q-17 0 -31.5 -12.5t-14.5 -32.5q0 -19 14.5 -32t31.5 -13h77v-34h-77q-32 0 -56.5 23.5t-24.5 55.5t24 56t57 24h121q44 0 69.5 -22.5t25.5 -60.5l-1 -34
q0 -42 -15.5 -83t-45 -74t-72 -52t-93.5 -19q-47 0 -89.5 16.5t-73.5 46t-48 69.5t-17 85v252q0 57 25.5 107t68.5 81q-30 -1 -61.5 -13t-58 -37.5t-44 -62.5t-17.5 -80v-283q0 -55 24.5 -94t66.5 -52zM433 656l-17 -1q20 -12 41 -31t37 -41q21 -31 45.5 -42t44.5 -3
q18 7 17.5 22.5t-12.5 29.5q-23 27 -65.5 46.5t-90.5 19.5z" />
    <glyph glyph-name="H" unicode="H" horiz-adv-x="693" 
d="M239 445h-35v170q0 21 -13.5 33t-31.5 11.5t-31.5 -12.5t-13.5 -33v-534q0 -22 13.5 -34t31.5 -12t31.5 12.5t13.5 33.5v186q0 33 23.5 56.5t55.5 23.5h170v269q0 18 8.5 37t28 30.5t43 12t43 -11t28 -31t8.5 -38.5v-170h-35v170q0 16 -9 29t-29.5 16.5t-35.5 -10
t-15 -34.5v-269h44q32 0 56 -23.5t24 -55.5l-1 -187q0 -27 -16 -49.5t-47.5 -28t-54.5 7.5t-31.5 32.5t-8.5 37.5v232h-170q-18 0 -31 -13.5t-13 -32.5v-186q0 -27 -16.5 -49.5t-48 -27.5t-54.5 8t-31.5 32t-8.5 37v534q0 29 16.5 51.5t48 27.5t54.5 -8.5t31.5 -32.5
t8.5 -37v-170zM532 312h-44v-232q0 -16 9 -29t29.5 -16t35.5 10.5t15 34.5v187q0 18 -13.5 31.5t-31.5 13.5z" />
    <glyph glyph-name="I" unicode="I" horiz-adv-x="320" 
d="M159 694v-35q-17 0 -31 -13t-14 -32v-534q0 -21 13.5 -33.5t31.5 -12.5t31.5 12.5t13.5 33.5v510h35v-510q0 -18 -8.5 -36.5t-28 -30t-43 -11.5t-43 11.5t-28 30t-8.5 36.5v534q0 16 8.5 35t29 32t41.5 13z" />
    <glyph glyph-name="J" unicode="J" horiz-adv-x="397" 
d="M49 659v35h75q32 0 52.5 -20.5t20.5 -52.5v-592q43 16 65 40.5t22 66.5v558h34v-558q0 -39 -14.5 -66t-40.5 -45.5t-66 -32.5q-4 -76 -30 -119t-68 -50q-19 -3 -42 3t-40 27t-17 49q0 32 17.5 52t44 31.5t60.5 20.5t40 11v604q0 17 -10.5 27.5t-27.5 10.5h-75zM93 -143
q54 10 67 123q-80 -21 -102.5 -38t-22.5 -40q0 -22 17 -35.5t41 -9.5z" />
    <glyph glyph-name="K" unicode="K" horiz-adv-x="748" 
d="M501 412l-28 20l115 162q10 14 5.5 32t-17.5 27q-8 6 -21 7.5t-23.5 -4.5t-16.5 -14l-225 -316q-18 -24 -43 -24q-17 0 -29.5 12.5t-12.5 30.5v270q0 18 -14 31t-30 13q-17 0 -31 -12.5t-14 -31.5v-525q0 -24 16.5 -40t39.5 -16q17 0 34.5 10t48.5 52l118 161
q19 25 41 40t45.5 16t47.5 -12.5t47 -41.5l111 -134q21 -25 18.5 -54t-29.5 -51t-61.5 -19.5t-57.5 32.5l-85 109l26 22l86 -109q14 -18 32.5 -20t33.5 8.5t18.5 27.5t-9.5 33l-110 133q-17 22 -38 35.5t-44 3.5t-45 -40l-116 -161q-34 -47 -58.5 -61t-50.5 -14
q-27 0 -50.5 14.5t-33 35.5t-9.5 40l-1 525q0 32 24 55.5t56 23.5t55.5 -24t23.5 -55v-270q1 -5 4.5 -8t9.5 2t8 8l224 316q10 13 28 23t41.5 8.5t40.5 -13.5t26.5 -34t6 -41t-12.5 -32z" />
    <glyph glyph-name="L" unicode="L" 
d="M155 27l-16 -27q-29 16 -44 46.5t-15 86.5v489q0 32 25 52.5t56 20.5q32 0 55 -20t23 -53v-516q0 -30 20 -52t44 -22h116q16 0 29.5 9t17 28t-10.5 33.5t-36 14.5h-74v37h75q28 0 50.5 -16t28.5 -46.5t-7.5 -53t-33 -30.5t-38.5 -8h-117q-19 0 -42 10t-40.5 36.5
t-17.5 59.5v516q0 16 -12.5 27.5t-29.5 11.5q-16 0 -30 -10.5t-14 -28.5v-489q0 -60 12.5 -78.5t25.5 -27.5z" />
    <glyph glyph-name="M" unicode="M" horiz-adv-x="891" 
d="M270 425l33 -10l-105 -363q-11 -32 -39.5 -44.5t-59 -4t-47.5 34t-8 59.5l138 524q9 37 36 57t60.5 19t61 -22.5t36.5 -58.5l70 -238l70 240q13 52 57 71t85 -2t54 -69l135 -521q9 -34 -8 -59.5t-47.5 -34t-54.5 2t-33 25.5t-11 21l-105 363l34 10l104 -363
q7 -17 22 -23.5t32 -3t27 17.5t7 34l-135 521q-8 26 -26.5 40.5t-39.5 14.5t-38.5 -14t-24.5 -40l-86 -294l54 -204q7 -27 5 -50t-19 -43q-21 -21 -57.5 -21t-58.5 21q-14 14 -20.5 34.5t4.5 58.5l56 204l-85 292q-7 26 -25 41t-39 16t-39 -12.5t-25 -39.5l-138 -525
q-3 -15 2.5 -26.5t17 -19t26.5 -7t25.5 7.5t15.5 20zM446 251l-42 -167q-6 -22 6 -37.5t34.5 -16t36.5 14t8 39.5z" />
    <glyph glyph-name="N" unicode="N" horiz-adv-x="743" 
d="M541 345h-32v270q0 33 22 56.5t56 23.5q31 0 53.5 -24t22.5 -56v-530q0 -29 -11.5 -53t-32 -32.5t-39.5 -5.5t-37 16t-29 33q-118 213 -222 392q-5 8 -16.5 12t-24 -5t-12.5 -28v-339q-1 -35 -24.5 -54.5t-50.5 -19.5t-46.5 11t-28 29t-9.5 34v495q0 44 19.5 77t54.5 45
l16 -31q-25 -8 -39 -31.5t-14 -59.5v-495q0 -20 12.5 -31.5t30 -11.5t30 11.5t12.5 31.5v339q0 18 9.5 35t32 27.5t45.5 2.5t35 -28q172 -303 221 -392q10 -18 22.5 -25.5t25.5 -7.5t25.5 13.5t12.5 45.5v530q0 19 -12.5 34t-31.5 15q-20 0 -33 -14t-13 -35v-270z" />
    <glyph glyph-name="O" unicode="O" horiz-adv-x="712" 
d="M529 -8l-7 34q33 7 54 46t21 84v301q0 32 -12.5 67.5t-46 70.5t-84 53t-101.5 18q-49 0 -93 -16t-76 -44.5t-50 -67.5t-18 -83v-261q0 -49 22.5 -86t63 -59.5t91.5 -22.5q30 0 63 9.5t59.5 30t42 51.5t15.5 70v249q0 21 -11 49t-40 50t-66 22q-51 0 -85 -34.5t-34 -85.5
l1 -252h-35l-1 252q0 65 45 110t109 45q41 0 75 -20.5t55.5 -57.5t21.5 -78v-249q0 -57 -27 -100t-76.5 -69.5t-111.5 -26.5q-39 0 -77 13.5t-68 39.5t-48 64.5t-18 85.5l-1 261q0 38 13.5 79.5t51.5 83t94.5 62.5t112.5 21q58 0 109.5 -18.5t89.5 -51.5t59 -78t21 -96v-301
q0 -57 -27.5 -105t-75.5 -59z" />
    <glyph glyph-name="P" unicode="P" horiz-adv-x="608" 
d="M140 696l19 -30q-19 -13 -31 -36t-12 -69v-484q0 -17 9 -29.5t30.5 -15.5t37.5 11t16 35v143q0 32 22.5 55.5t58.5 23.5h45q27 0 55 11t54 39.5t37.5 68.5t11.5 72q0 69 -46.5 119t-111.5 50h-18q-32 0 -50.5 -21.5t-18.5 -51.5l1 -197h-35l-1 197q0 31 15.5 57.5
t39.5 38.5t49 12h18q39 0 74.5 -16t62 -44t41.5 -65.5t15 -78.5q0 -64 -26.5 -116t-68.5 -81t-98 -29l-45 1q-22 0 -34 -14t-12 -31v-146q0 -26 -14.5 -44t-36.5 -25.5t-50 -3t-45 25.5t-17 47v486q0 96 59 135z" />
    <glyph glyph-name="Q" unicode="Q" horiz-adv-x="701" 
d="M380 14l112 -78l-20 -28l-136 94q-28 -4 -43 -4q-38 0 -76 13.5t-68.5 39.5t-48.5 64.5t-18 85.5l-2 260q0 53 20.5 98.5t57.5 78t87.5 50t107.5 17.5t106.5 -18.5t86 -51.5t56 -78t19.5 -96v-302q0 -48 -12.5 -78.5t-44.5 -60.5l-24 21q3 3 13.5 15t17 21.5t9.5 21
t4.5 26t1.5 34.5v295q0 44 -17 83.5t-48.5 69t-74.5 46.5t-93 17q-49 0 -93.5 -17t-77 -46.5t-50.5 -69.5t-18 -83l2 -253q0 -29 11 -59t35 -54.5t59.5 -40t76.5 -15.5q-30 23 -51 46t-32 53t-11 61l-1 249q0 66 41.5 110.5t107.5 44.5q25 0 51 -9t50.5 -32t37 -55.5
t12.5 -59.5v-246q0 -67 -34.5 -113t-88.5 -67zM342 38l4 1q53 13 87.5 53t34.5 102v246q0 33 -18 63.5t-44.5 44t-53.5 13.5q-25 0 -52.5 -11.5t-45 -41t-17.5 -67.5l1 -249q0 -23 7.5 -46t26 -47.5t70.5 -60.5z" />
    <glyph glyph-name="R" unicode="R" horiz-adv-x="605" 
d="M145 698l15 -32q-46 -24 -44 -97l-3 -488q0 -17 9.5 -30.5t30 -17t37.5 9.5t17 40l-1 153q1 27 17 50.5t40 33.5q28 12 56.5 6.5t52.5 -30.5l65 69q24 24 39.5 56t15.5 84q1 66 -45.5 111.5t-114.5 45.5h-17q-18 0 -35 -9t-25.5 -27.5t-9.5 -35.5v-198l-35 1v196
q2 44 29.5 76.5t74.5 31.5h16q85 -1 141 -56t55 -136q1 -53 -14.5 -92t-49.5 -73l-65 -68l136 -145q13 -15 20.5 -35t1 -40.5t-24.5 -36.5q-21 -19 -58 -20.5t-61 22.5l-98 107q-23 26 -21.5 57t25.5 56l31 33q-16 19 -35 23t-36 -4q-15 -7 -25 -22.5t-10 -31.5v-152
q0 -19 -8.5 -39t-28.5 -32.5t-44 -12.5t-44.5 12t-29 31.5t-8.5 38.5l2 487q1 55 18.5 85t45.5 45zM341 145l97 -106q15 -14 35.5 -13t34.5 13q17 15 14 34t-15 32l-134 142l-32 -34q-13 -15 -13.5 -34t13.5 -34z" />
    <glyph glyph-name="S" unicode="S" horiz-adv-x="607" 
d="M111 411l24 25l195 -181q53 -52 53 -112q0 -29 -12.5 -55.5t-33.5 -46.5q22 -6 37 -6q22 0 50 13t48 46t20 71q0 28 -11.5 58.5t-53.5 71.5l-159 148q-50 47 -50 113q0 32 13 61t36 50q-20 5 -40 5q-32 0 -60.5 -17.5t-43.5 -45.5l-9 -24l-35 5q5 18 13 35q20 37 57 59.5
t78 22.5q42 0 74 -17q34 17 67 17q43 0 82 -23t54 -56q12 -26 7.5 -48.5t-20.5 -37.5t-43 -20.5t-52 8.5t-38 39q-31 58 -58 80q-22 -17 -34.5 -41t-12.5 -52q0 -49 39 -88l160 -149q38 -37 56.5 -73t18.5 -81q0 -24 -8 -51.5t-27 -52.5t-49.5 -42.5t-68.5 -17.5
q-39 0 -73 17q-34 -18 -73 -18q-44 0 -84.5 24t-52.5 57q-13 36 -2.5 63.5t42 38.5t65 -5t48.5 -52q18 -42 57 -68q21 14 34 36t13 49q0 21 -11 44t-31 43zM368 672q-16 0 -35 -7q29 -29 56 -80q5 -9 14.5 -17.5t22.5 -10.5t26.5 3t21 20t-0.5 34q-10 23 -39.5 40.5
t-65.5 17.5zM228 35q20 0 40 5q-37 32 -55 71q-8 18 -23.5 30.5t-36.5 11.5t-29.5 -19.5t0.5 -40.5q9 -23 39 -40.5t65 -17.5z" />
    <glyph glyph-name="T" unicode="T" horiz-adv-x="637" 
d="M578 590l1 -35h-154v-482q0 -26 -14 -43.5t-36 -25t-49 -3t-43.5 25t-16.5 45.5l1 432q0 42 22 64t62 22h39v14q0 25 -7 40t-39 15h-204q-14 0 -23 -11t-9 -23t10 -23.5t22 -11.5h71v-35h-75q-26 0 -46 22t-20 48q0 27 19 48t49 21h206q42 0 61.5 -22.5t19.5 -67.5v-14
h153zM390 73v482h-39q-25 0 -37 -12t-12 -39l-1 -432q0 -20 13.5 -31t31 -11t31 11.5t13.5 31.5z" />
    <glyph glyph-name="U" unicode="U" horiz-adv-x="704" 
d="M534 3l-17 32q30 15 50.5 50t20.5 77v453q0 20 -13 31t-31 11.5t-31 -11t-13 -31.5v-399q0 -36 -11.5 -73.5t-42 -71.5t-77.5 -52t-97.5 -14.5t-93.5 28t-70 71.5t-28 111v478h34v-478q0 -65 33.5 -111t92 -60t111 5.5t83.5 62.5t31 104v399q0 18 8.5 37t28 30t43 11.5
t43 -11t28 -30t8.5 -36.5l-1 -454q0 -25 -8 -57t-29.5 -60t-51.5 -42z" />
    <glyph glyph-name="V" unicode="V" horiz-adv-x="724" 
d="M663 661l33 -12l-219 -563q-16 -41 -43.5 -64t-62.5 -23q-32 0 -59.5 19t-37.5 48l-191 526q-4 14 -2 33.5t15.5 37.5t33.5 25q15 6 36 5t41 -15.5t28 -37.5l163 -449l-33 -11l-163 449q-6 18 -22.5 26t-37.5 1q-17 -6 -24.5 -22.5t-0.5 -34.5l190 -521q7 -19 25 -31.5
t39 -12.5q23 0 42.5 17t31.5 47z" />
    <glyph glyph-name="W" unicode="W" horiz-adv-x="980" 
d="M446 619l45 -177l45 177q3 16 -10.5 32t-34.5 16t-35 -15.5t-10 -32.5zM322 242l-131 395q-5 15 -22.5 22t-32.5 2q-15 -4 -26 -19t-5 -34l157 -523q7 -25 26 -39t42 -13q27 1 43 18.5t23 41.5l77 282l-57 212q-6 26 -6 36q0 31 23.5 54.5t57.5 23.5t57.5 -23.5
t23.5 -54.5q0 -17 -6 -37l-57 -211l77 -282q7 -24 23 -41.5t43 -18.5q23 -1 42 13t26 39l157 522q6 19 -5 34t-26 19q-15 5 -32.5 -2t-22.5 -23l-124 -399l-33 11l124 399q10 30 40.5 43t58.5 4q29 -10 43.5 -33t13.5 -40t-3 -23l-158 -523q-11 -36 -39.5 -56.5t-63.5 -19.5
q-34 1 -59.5 24t-37.5 61l-62 226l-62 -226q-6 -18 -18 -38t-33 -33t-47 -14q-35 -1 -63 19.5t-40 56.5l-157 524q-5 16 -2 35.5t19 36.5t37 24q20 7 43.5 1.5t37 -19.5t18.5 -28l131 -395z" />
    <glyph glyph-name="X" unicode="X" horiz-adv-x="789" 
d="M239 276l28 -21l-126 -149q-8 -11 -8.5 -25.5t12 -29.5t31.5 -14.5t34 15.5l171 203l-283 313q-10 11 -15.5 30t1.5 41.5t23 37.5q16 14 39 18t42 -4t30 -21l149 -162q9 -11 22.5 -18t29 -2.5t27.5 20.5l128 163q20 24 54 24.5t58 -20.5q23 -20 24 -50.5t-18 -57.5
q-7 -11 -142 -175l-27 21l141 174q13 15 11 32.5t-14.5 30t-29.5 13t-30 -14.5l-132 -165q-19 -22 -44 -28.5t-46 3t-35 24.5l-152 165q-11 11 -26 14.5t-29 -5.5t-20.5 -27.5t7.5 -37.5l278 -309q19 23 35.5 35t42.5 13q19 1 37.5 -7t30.5 -19t17 -17l134 -159
q11 -14 16 -34t-4.5 -41.5t-26.5 -34.5q-24 -18 -56.5 -15.5t-52.5 28.5l-172 197l-166 -199q-11 -13 -29.5 -21.5t-42 -5.5t-39.5 17q-23 20 -28 52t16 57zM663 46q12 9 16 27t-8 34l-131 156q-12 13 -28 23t-31 9q-27 -1 -55 -40l177 -203q11 -14 29 -15t31 9z" />
    <glyph glyph-name="Y" unicode="Y" horiz-adv-x="688" 
d="M237 378l-162 187q-22 25 -18 57t26 52q16 14 39 18t42 -4t30 -21l148 -164l155 165q22 23 57 23.5t57 -20.5q21 -21 23.5 -52t-17.5 -53l-244 -265q-52 -56 -67.5 -91.5t-15.5 -67.5v-66q0 -20 13 -31.5t31 -11.5t31 11t13 31v133h35v-133q0 -16 -7.5 -34.5t-27 -30.5
t-43.5 -12q-34 0 -57 21.5t-23 56.5v66q0 41 19 82t74 100l242 265q11 13 9.5 30.5t-13.5 28.5q-10 10 -29.5 10.5t-33.5 -13.5l-158 -165q-10 -12 -25.5 -11.5t-27.5 13.5l-144 162q-13 15 -31.5 15t-29.5 -10q-13 -12 -15.5 -29.5t8.5 -31.5l166 -186z" />
    <glyph glyph-name="Z" unicode="Z" horiz-adv-x="649" 
d="M119 14l-32 -11q-20 47 -20 74q0 59 55 120l318 349l-286 -1q-30 0 -52.5 22.5t-22.5 52.5q0 28 21 51t53 23l286 1q34 0 56.5 -23.5t22.5 -51.5q0 -21 -11 -42q34 -8 51 -38.5t11.5 -57.5t-21.5 -44l-304 -339q-13 -18 -5.5 -40.5t31.5 -23.5h227q20 0 32 14t12 29
q0 16 -12 31t-33 15h-110v35h110q26 0 46 -15t27 -33.5t7 -32.5q0 -13 -7.5 -31.5t-27 -32.5t-44.5 -14h-227q-20 0 -36.5 11t-25.5 29q-9 19 -6.5 42.5t15.5 39.5l304 338q8 9 12 21.5t0 27t-16.5 26t-31.5 11.5q-10 -15 -27 -33l-310 -339q-46 -50 -46 -97q0 -19 17 -63z
M154 580l314 1q15 23 15 39q0 15 -12 27.5t-32 12.5h-286q-17 0 -28 -12.5t-11 -27.5t11.5 -27.5t28.5 -12.5z" />
    <glyph glyph-name="bracketleft" unicode="[" horiz-adv-x="500" 
d="M226 -35v34l142 1q23 0 43 -14t28 -33t8 -34q-1 -32 -22 -54t-51 -23h-183q-37 0 -63.5 24t-25.5 60l1 840q0 39 25.5 62t63.5 22l1 -34q-55 -4 -56 -49v-842q0 -19 16.5 -33.5t38.5 -14.5l179 -1q16 0 29.5 12.5t13.5 30.5t-12 32t-34 14h-142zM369 692h-60v35h60
q17 -1 31 13t14 31q0 18 -12 30.5t-29 13.5l-64 1q-22 0 -35 -16t-14 -40v-147v-160v-132.5v-91.5t0.5 -63t0.5 -39.5v-33.5h-35l-1 668q0 26 13 48.5t33 31.5t38 9h65q14 -1 31.5 -9.5t30.5 -28t13 -41.5q0 -24 -14 -44t-32.5 -27.5t-33.5 -7.5z" />
    <glyph glyph-name="backslash" unicode="\" horiz-adv-x="523" 
d="M301 -9l-235 610l33 12l235 -609q4 -10 12 -18t21 -10.5t28 3.5t23 21.5t0 35.5l-241 624q-7 18 -24.5 24.5t-33.5 1.5l-13 33q13 5 32.5 4.5t40.5 -14t30 -36.5l241 -625q13 -30 1.5 -58.5t-47 -41.5t-64 0.5t-39.5 42.5z" />
    <glyph glyph-name="bracketright" unicode="]" horiz-adv-x="497" 
d="M291 728v-34l-142 -1q-23 0 -43 14t-28 33t-8 34q1 32 22 54t51 23h183q37 0 63.5 -24t25.5 -60l-1 -840q0 -39 -25.5 -62t-63.5 -22l-1 34q55 4 56 49v842q0 19 -16.5 33.5t-38.5 14.5l-179 1q-16 0 -29.5 -12.5t-13.5 -30.5t12 -32t34 -14h142zM148 1h60v-35h-60
q-17 1 -31 -13t-14 -31q0 -18 12 -30.5t29 -13.5l64 -1q22 0 35 16t14 40v147v160v132.5v91.5t-0.5 63t-0.5 39.5v33.5h35l1 -668q0 -26 -13 -48.5t-33 -31.5t-38 -9h-65q-14 1 -31.5 9.5t-30.5 28t-13 41.5q0 24 14 44t32.5 27.5t33.5 7.5z" />
    <glyph glyph-name="asciicircum" unicode="^" horiz-adv-x="500" 
d="M323 440l25 21l64 -68q10 -11 25.5 -13.5t32.5 9t19.5 31t-10.5 34.5q-1 1 -5.5 6t-60 63t-68.5 70t-33 10.5t-32 -16.5l-163 -201q-20 -26 -54.5 -29.5t-58.5 17.5q-22 18 -26.5 50t16.5 59q3 4 13 16.5t66 82t106 127.5q17 20 43.5 24.5t47 -5.5t30.5 -23l-26 -20
q-13 17 -35 18.5t-35 -15.5q-127 -151 -184 -225q-13 -16 -10.5 -35t15.5 -30q15 -12 34.5 -10t31.5 17l164 203q21 25 55.5 27t56.5 -18l137 -141q12 -12 18 -30t-1 -40.5t-30 -41t-51.5 -17.5t-50.5 23z" />
    <glyph glyph-name="underscore" unicode="_" horiz-adv-x="778" 
d="M83 -1h612q30 0 51.5 -21.5t21.5 -51.5h-35q0 15 -11 27t-27 12h-612q-16 0 -27 -11t-11 -27t11 -27t27 -11h596v-35h-596q-30 0 -51.5 21.5t-21.5 51.5q0 29 21.5 50.5t51.5 21.5z" />
    <glyph glyph-name="grave" unicode="`" horiz-adv-x="237" 
d="M32 857l190 -74l-13 -32l-190 73z" />
    <glyph glyph-name="a" unicode="a" 
d="M218 255h28v-35h-28q-44 0 -73.5 -23t-29.5 -73q0 -17 10.5 -38t37.5 -36t60 -15q49 0 84.5 36t35.5 86v128q0 26 -12.5 51.5t-33.5 43.5q-26 -18 -60 -57q-14 -19 -34.5 -28t-39.5 -9q-29 0 -50 18t-20 48q1 44 39 67.5t89 22.5q18 -1 40.5 -7t37.5 -15q36 16 77 15
q34 -2 63.5 -22.5t45 -51t15.5 -68.5v-136q0 -66 -21.5 -102t-56.5 -55l-16 31q31 16 45 46t14 80v136q0 47 -27 76t-63 31q-22 1 -43 -5q21 -21 33.5 -50t12.5 -60v-128q0 -64 -46 -110.5t-109 -46.5h-1q-59 0 -100.5 35.5t-41.5 87.5q0 62 37 97t101 35zM128 352
q0 -16 10.5 -25t23.5 -9q25 0 49 29q23 28 54 52q-22 8 -44 8q-42 0 -67.5 -15.5t-25.5 -39.5z" />
    <glyph glyph-name="b" unicode="b" horiz-adv-x="597" 
d="M171 33l-15 -31q-34 16 -55 51t-21 76v492q0 17 8.5 35.5t29 31t42.5 12.5q33 0 56 -23.5t23 -56.5v-469q0 -54 36 -85t85.5 -31t85.5 31.5t36 86.5v129q0 33 -19 64t-46.5 44.5t-55.5 13.5v35q64 0 110 -46t46 -111v-129q0 -54 -28 -91.5t-71 -51.5t-92 -6t-85.5 46.5
t-36.5 100.5v469q0 19 -13 32t-31 13t-32 -12.5t-14 -31.5l1 -492q0 -31 15.5 -57.5t40.5 -38.5z" />
    <glyph glyph-name="c" unicode="c" horiz-adv-x="559" 
d="M174 34l-16 -31q-35 19 -52.5 48.5t-21.5 57.5t-4 51v133q0 43 18.5 75.5t49 50t66 18t67.5 -15.5q22 12 57.5 18.5t73.5 -5.5t59 -38q16 -21 16.5 -45t-20 -43.5t-46 -21.5t-42 6.5t-26.5 20.5q-48 53 -71 67q-20 -17 -32.5 -43t-12.5 -51v-125q-1 -32 15 -62
t52.5 -47.5t80 -9t71.5 44.5l28 -21q-15 -20 -41.5 -37.5t-62.5 -22t-77 9t-71.5 52.5t-29.5 93v125q0 31 12 60t33 50q-21 9 -44 6t-43 -16.5t-32.5 -37t-13.5 -54.5l1 -134q0 -49 14 -78.5t45 -47.5zM444 375q-13 16 -32.5 25t-47.5 9.5t-49 -9.5q21 -16 64 -64
q12 -14 28 -16t28.5 6t16 22t-7.5 27z" />
    <glyph glyph-name="d" unicode="d" horiz-adv-x="596" 
d="M440 1l-11 33q26 11 38.5 38t12.5 60l1 492q0 15 -9 27.5t-29 15.5t-35 -10t-15 -33v-468q0 -64 -46.5 -109.5t-111.5 -45.5q-39 0 -76.5 21t-58 59t-20.5 78v124q0 65 46 111t111 46v-35q-39 0 -69.5 -22.5t-41.5 -50.5t-11 -49v-124q0 -51 35.5 -87t84.5 -36
q34 0 61 15.5t44.5 43.5t17.5 61v468q0 26 16 47.5t47 26.5t54.5 -8t32 -31t8.5 -35l-1 -492q0 -42 -16.5 -74t-34 -43t-24.5 -14z" />
    <glyph glyph-name="e" unicode="e" 
d="M334 175v35h28q43 -1 73 21.5t30 70.5q0 47 -34 72t-80 21t-73 -29t-34 -48t-7 -43v-125q0 -26 12 -51t33 -43q23 14 71 67q10 12 30.5 22.5t49.5 3.5t43 -25.5t13 -40t-18 -42.5q-14 -17 -43.5 -32.5t-71.5 -15.5t-75 22q-36 -16 -77 -15q-22 1 -50 14.5t-51 47.5
t-23 81v133q0 66 21.5 102t55.5 55l17 -31q-31 -17 -45 -46.5t-14 -79.5v-133q0 -48 27 -77t63 -31q17 -1 43 5q-21 21 -33.5 50t-12.5 60v125q0 59 34.5 98t82 50.5t88.5 0.5t67 -42.5t26 -81.5q0 -45 -21.5 -75t-54.5 -40t-62 -10h-28zM376 95q-35 -40 -61 -58
q12 -7 35.5 -9.5t52 7.5t41.5 26q9 11 9 24t-11 23t-30.5 9.5t-35.5 -22.5z" />
    <glyph glyph-name="f" unicode="f" horiz-adv-x="484" 
d="M202 73v147h34l1 -147q0 -26 -14 -44t-39 -26t-54.5 2t-39.5 31t-10 37v251q0 55 25.5 85.5t71.5 30.5h21v100q0 31 12 60t33 50q-19 6 -42 5q-36 -2 -63.5 -31t-27.5 -76v-38h-34v38q0 30 13 62t45 55t66 25q42 1 76 -15q38 22 78 22q78 0 113 -47q17 -24 14.5 -50
t-26 -45t-54.5 -16t-52 28q-45 51 -71 68q-21 -17 -33 -43t-12 -52v-100h33q27 0 47 -20t20 -47t-20 -47t-47 -20t-47.5 20t-20.5 47v33h-21q-63 0 -63 -82v-251q0 -20 13 -31.5t31 -12t31 11t13 32.5zM354 662q-22 0 -43 -8q21 -16 64 -64q9 -11 24 -16.5t29.5 3.5t18 23
t-6.5 29q-26 33 -86 33zM266 406h-33v-33q0 -13 10 -22.5t23 -9.5t22.5 9.5t9.5 22.5t-9.5 23t-22.5 10z" />
    <glyph glyph-name="g" unicode="g" horiz-adv-x="572" 
d="M338 -108h-77q-14 0 -26.5 -9.5t-12.5 -29t10.5 -31.5t28.5 -12q27 0 50.5 25.5t26.5 56.5zM226 34v-35q-67 0 -106.5 41t-39.5 110v136q0 53 25.5 89t65.5 51t79 8.5t66.5 -27t41.5 -52.5t14 -67l1 -361q40 0 62 26t22 71v289q0 28 -12.5 55.5t-32.5 35.5l12 32
q31 -12 49.5 -48.5t18.5 -74.5v-289q0 -59 -32 -95.5t-87 -36.5q-1 -29 -15 -54.5t-40 -44t-57 -18.5q-30 0 -50.5 19t-23.5 51.5t18 57t56 24.5h77l-1 361q0 47 -26 76t-61 35t-65.5 -5.5t-50 -39t-19.5 -68.5v-136q0 -55 29.5 -85.5t81.5 -30.5z" />
    <glyph glyph-name="h" unicode="h" 
d="M236 488h-35v136q0 14 -8 25t-27 14t-34 -8.5t-15 -31.5v-546q0 -10 5 -21t15.5 -17.5t23.5 -6t23.5 7t15.5 17t5 20.5v216q0 43 18.5 75.5t52.5 51t76 18.5t76 -18.5t52.5 -51.5t18.5 -77v-291h-35v291q0 40 -20 68t-50.5 39.5t-62.5 6t-54.5 -26t-29.5 -43t-7 -42.5
v-216q0 -27 -16.5 -49t-43.5 -27t-48.5 2.5t-35.5 27t-14 46.5v546q0 18 7 34.5t25 29t47 12.5t52 -20t23 -55v-136z" />
    <glyph glyph-name="i" unicode="i" horiz-adv-x="342" 
d="M153 440v-35q-16 0 -27 -11t-11 -27v-299q0 -18 12.5 -28t31 -10t31 10t12.5 28v425h-32q-27 0 -47 20t-20 47t20 47t47 20t47 -20t20 -47v-33h42v-34h-42v-425q0 -24 -14 -41t-39 -24.5t-50.5 0t-39.5 24.5t-14 41v299q0 30 21.5 51.5t51.5 21.5zM138 560q0 -13 9.5 -23
t22.5 -10h32l1 33q0 13 -10 22.5t-23 9.5t-22.5 -9.5t-9.5 -22.5z" />
    <glyph glyph-name="j" unicode="j" horiz-adv-x="357" 
d="M73 405v35q32 0 52.5 -20.5t20.5 -52.5v-448q30 11 50.5 27.5t28.5 38t8 42.5v467h-32q-27 0 -47.5 20.5t-20.5 47.5t20.5 47t47.5 20t47 -20t20 -47v-33h46v-35h-46v-467q0 -38 -15 -65.5t-41.5 -46.5t-66.5 -33q-4 -54 -19.5 -93t-36.5 -55t-41 -20q-22 -5 -44 3.5
t-38.5 28.5t-16.5 47q0 25 12 43t39.5 33.5t110.5 38.5l1 459q0 17 -10.5 27.5t-28.5 10.5zM42 -252q54 11 67 123q-78 -19 -101.5 -37t-23.5 -41q0 -25 16.5 -37.5t41.5 -7.5zM168 562q0 -13 10 -23t23 -10h32v33q0 12 -9.5 22t-22.5 10t-23 -10t-10 -22z" />
    <glyph glyph-name="k" unicode="k" horiz-adv-x="621" 
d="M452 206l65 -70q20 -21 23 -49t-19 -55.5t-59.5 -31.5t-66.5 27l-87 96l-86 -96q-15 -18 -39.5 -24t-48.5 1t-39.5 27t-15.5 49v472q0 27 16 49t47 27.5t54 -8t31.5 -32t8.5 -35.5v-173h-35v177q0 19 -12.5 29.5t-30.5 10.5t-31 -11t-13 -29v-478q-1 -13 9.5 -27.5
t33.5 -17.5t39 16l89 99l-28 32q-46 57 12 114l105 116q19 21 46 28.5t53 -8t33 -39.5t-1.5 -43t-21.5 -32l-151 -168l88 -99q11 -12 28 -15.5t35.5 8.5t20.5 33t-13 37l-65 70q25 20 26 23zM400 387l-121 -135q-5 -6 -6.5 -16t3.5 -20t8 -13l25 -28l150 167q10 10 14 23
t-4.5 27t-30 15.5t-38.5 -20.5z" />
    <glyph glyph-name="l" unicode="l" horiz-adv-x="329" 
d="M115 214q0 -35 13.5 -72.5t40.5 -63.5q19 30 28.5 72t9.5 75v389q0 16 -9.5 28.5t-30.5 15t-36.5 -11t-15.5 -33.5v-399zM102 0v34q24 0 43 17q-31 30 -48 74t-17 89v399q0 17 8.5 36t28.5 30.5t43.5 11.5t43.5 -11t28.5 -29.5t8.5 -36.5l1 -389q0 -46 -12 -91.5
t-34 -77.5q41 -26 94 -26v-34q-32 0 -63 9t-54 24q-13 -13 -32 -21t-39 -8z" />
    <glyph glyph-name="m" unicode="m" horiz-adv-x="716" 
d="M142 437l10 -33q-15 -5 -26.5 -21.5t-11.5 -64.5l1 -245q0 -14 8.5 -25.5t27.5 -15t32.5 8.5t13.5 32v255q0 21 11.5 47t40 45t61.5 19q28 0 55 -15t42 -42t15 -55v-38l33 58q29 54 54 72t51 18q33 0 54 -21.5t21 -56.5l1 -359h-35v359q0 21 -11 32.5t-30 11.5
q-16 0 -32.5 -13t-42.5 -59l-63 -111v-160q0 -27 -20 -46t-47 -19q-21 0 -38.5 14t-17.5 38q0 25 21 64l67 118v98q0 21 -12.5 40.5t-30.5 28t-34 8.5t-34.5 -8.5t-31 -28t-12.5 -39.5v-255q0 -33 -22.5 -52t-53 -19t-53.5 19t-23 52v245q0 58 17 84.5t45 34.5zM387 60v100
l-37 -66q-16 -29 -16 -47q0 -11 8 -16t18.5 -3t18.5 10.5t8 21.5z" />
    <glyph glyph-name="n" unicode="n" horiz-adv-x="542" 
d="M461 0h-35v312q0 21 -9.5 43t-33 35.5t-51 13.5t-51 -13t-33.5 -35.5t-10 -43.5v-236q0 -17 -8.5 -35t-28 -29t-42.5 -11t-42.5 11t-28 29t-8.5 35l1 273q0 20 9 41.5t31 35t47 13.5v-35q-21 0 -37 -14.5t-16 -40.5v-273q0 -15 9 -27t29 -15t35 9.5t15 32.5v236
q0 45 23 75t58.5 42.5t76.5 5.5t70.5 -39t29.5 -84v-312z" />
    <glyph glyph-name="o" unicode="o" horiz-adv-x="542" 
d="M161 450l9 -34q-10 -2 -23 -12.5t-22.5 -31t-9.5 -41.5v-157q0 -59 47 -99t116 -40q68 0 114 40t46 99l-1 132q0 58 -36 87t-79 21t-63.5 -39t-20.5 -70v-142h-35v142q0 51 27.5 90.5t80 49t92.5 -13.5t54.5 -57t14.5 -68v-132q0 -27 -10 -56.5t-36.5 -58.5t-67 -44
t-80.5 -15q-52 0 -99.5 22.5t-73 64.5t-25.5 87v157q0 41 24 76.5t57 42.5z" />
    <glyph glyph-name="p" unicode="p" horiz-adv-x="599" 
d="M362 1v34q28 0 56 14t47 44.5t19 63.5l-1 124q0 57 -36 89t-85 31.5t-85.5 -32t-36.5 -85.5v-426q0 -17 -8.5 -35.5t-28 -30t-43 -12t-43 10.5t-28 29.5t-8.5 36.5v449q0 50 19.5 85t54.5 46l10 -33q-22 -7 -36 -32.5t-14 -65.5v-449q0 -21 13.5 -32.5t32 -11t32 12.5
t13.5 32v426q0 27 10 58t40.5 57t80 33t94 -13.5t66 -57t21.5 -80.5v-124q0 -64 -46 -110t-110 -46z" />
    <glyph glyph-name="q" unicode="q" horiz-adv-x="595" 
d="M235 1q-64 0 -110 46.5t-46 111.5l1 124q0 27 10 58.5t40.5 58.5t75 34.5t88 -6.5t71.5 -51t28 -91v-317q0 -21 8 -42.5t28 -37.5t50 -27v449q0 35 -14.5 60.5t-40.5 35.5l12 33q36 -13 57 -47.5t21 -81.5v-461q106 -29 134 -54t28 -61q0 -28 -18 -49.5t-41 -27t-40 -2.5
q-19 4 -40.5 20t-36.5 55t-19 93q-56 19 -89.5 52.5t-33.5 92.5v317q0 34 -15 59.5t-43 41.5t-63.5 16.5t-63.5 -15.5t-43 -42t-15 -63l-2 -125q0 -33 19 -63.5t47 -44.5t56 -14v-35zM583 -310q24 -5 41 9.5t17 35.5q0 22 -19.5 38.5t-104.5 39.5q3 -33 12.5 -62t24 -43.5
t29.5 -17.5z" />
    <glyph glyph-name="r" unicode="r" horiz-adv-x="467" 
d="M379 406q-20 4 -47 1t-43 -12q45 -28 79 -46q14 -8 28.5 -6.5t22.5 14.5t-2 28.5t-38 20.5zM81 77v226h35v-226q0 -20 13 -31t30.5 -10.5t30.5 12t13 30.5v220q0 50 27 89q-28 11 -61.5 13.5t-64.5 -4.5l-8 34q40 11 82.5 6t78.5 -22q24 20 66 26.5t78 -5.5
q37 -13 49 -38.5t1 -50.5t-38 -34.5t-60 7.5l-91 52q-11 -14 -17.5 -33.5t-6.5 -39.5v-220q0 -17 -8 -35.5t-28 -29.5t-42.5 -11t-42.5 11t-28 29t-8 35z" />
    <glyph glyph-name="s" unicode="s" horiz-adv-x="521" 
d="M121 64q9 -12 30.5 -21.5t42 -9.5t33.5 6q-24 21 -53 56q-8 14 -21 16.5t-24 -4t-14 -18.5t6 -25zM405 368q0 18 -15 31.5t-46.5 17t-52.5 -2.5q11 -8 39.5 -41t46.5 -33q14 0 21 9.5t7 18.5zM116 238l22 26q8 -5 61.5 -43.5t83.5 -63.5q74 -63 12 -119q34 -11 61 1
t39.5 38t8 56t-25.5 51q-17 18 -82.5 63t-69.5 48q-16 12 -25 31.5t-3 43.5t23 41q-23 7 -49.5 -2t-46.5 -30l-30 19q13 19 43.5 35t62 15.5t57.5 -13.5q34 17 79.5 13.5t74 -24.5t28.5 -56q0 -24 -17.5 -43.5t-45.5 -19.5q-9 0 -24.5 5t-45 38.5t-49.5 47.5
q-21 -14 -25 -35.5t17 -40.5q14 -11 65 -45t67.5 -47.5t20.5 -18.5q26 -27 36.5 -65t-7.5 -78.5t-65 -57.5t-105 7q-19 -9 -50 -13t-66.5 7t-52.5 35q-18 25 -13 50t26.5 40.5t48 12.5t45.5 -28q5 -6 26 -30.5t36 -34.5q24 19 24 36.5t-25 39.5q-31 26 -145 108z" />
    <glyph glyph-name="t" unicode="t" horiz-adv-x="509" 
d="M104 406h-61v35h61q30 0 51.5 -21.5t21.5 -51.5v-288q0 -20 14 -33t31 -13q19 0 33 14t14 32v327q-25 0 -54.5 12.5t-51 43.5t-21.5 68v18q0 33 23.5 57t56.5 24t57.5 -24.5t24.5 -56.5v-108h65q33 0 56.5 -23t23.5 -55q0 -33 -24.5 -58t-56.5 -25h-24v35h24
q18 0 32 14.5t14 33.5q0 17 -12.5 30.5t-32.5 13.5h-65v-327q0 -32 -24.5 -56t-57.5 -24t-56.5 23.5t-23.5 56.5v288q0 14 -10.5 26t-27.5 12zM177 532q0 -19 9.5 -40t33 -35t49.5 -15v107q0 18 -14 32t-33 14q-17 0 -31 -13t-14 -33v-17z" />
    <glyph glyph-name="u" unicode="u" horiz-adv-x="578" 
d="M425 1l-8 34q45 11 45 75l1 252q0 15 -9 27.5t-29 16t-35 -9.5t-15 -33l-1 -213q0 -26 -9.5 -56t-38 -55.5t-71 -33t-83 7t-66.5 50.5t-26 89v288h35v-288q0 -39 20 -67t50.5 -39.5t63 -6.5t54.5 25t29 43t7 43l1 213q0 27 16.5 48.5t47.5 26.5t54 -8t31.5 -31.5
t8.5 -36.5l-1 -252q0 -44 -18.5 -73t-53.5 -36z" />
    <glyph glyph-name="v" unicode="v" horiz-adv-x="590" 
d="M343 93l158 335l31 -15l-155 -331q-16 -36 -39 -60t-59 -24q-30 0 -53.5 18.5t-44.5 65.5l-108 252q-7 17 -6.5 38.5t14.5 39t36 25.5t45.5 3.5t38.5 -20t22 -32.5l77 -193l-32 -13l-78 194q-8 21 -25.5 28.5t-34.5 1.5t-24.5 -22.5t0.5 -37.5l108 -253
q14 -32 29.5 -47.5t35.5 -15.5t34.5 15t29.5 48z" />
    <glyph glyph-name="w" unicode="w" horiz-adv-x="775" 
d="M496 225l68 177q7 21 26.5 33.5t39 13.5t31.5 -3q15 -5 28 -16t19 -25q6 -11 6.5 -25t-4.5 -27q-20 -58 -58 -153.5t-62 -148.5q-10 -24 -35 -39t-56 -15q-32 0 -59.5 20t-38.5 52q-4 18 -13 41l-14 -41q-10 -32 -37.5 -52t-60.5 -20q-29 0 -54.5 15t-36.5 39
q-81 192 -120 302q-5 14 -3.5 32.5t16 35.5t37.5 25q13 4 32 3t38.5 -13.5t26.5 -33.5l67 -177l-31 -11l-68 177q-5 15 -23.5 21.5t-33.5 0.5q-16 -7 -24 -20t-2 -29q29 -82 119 -300q7 -16 24.5 -25t35.5 -9q22 0 40.5 14t25.5 36q4 8 28 82l-54 166q-6 18 -6 34v1
q0 29 24 55q23 21 54 21q14 0 29 -5.5t25 -15.5q24 -24 24 -55v-1q0 -17 -7 -34l-54 -166l28 -82q8 -22 26.5 -36t39.5 -14q19 0 36.5 9t24.5 25q90 218 119 300q5 17 -1 27q-3 7 -11 14t-17 10q-7 2 -18 1.5t-22 -7.5t-14 -18l-68 -177zM418 393q-10 12 -30 12
q-19 0 -31 -12q-14 -12 -14 -30v-1q0 -11 5 -24l40 -121l41 121q3 12 3 24v1q0 20 -14 30z" />
    <glyph glyph-name="x" unicode="x" horiz-adv-x="645" 
d="M143 263l-38 38q-26 28 -24 59t22 50t42.5 24.5t42 -1t32.5 -17.5l200 -177l91 80q14 12 17.5 28.5t-8 32t-28 19.5t-28.5 -0.5t-20 -11.5l-56 -52l-25 24l56 52q22 20 52 24t59.5 -17t33.5 -57.5t-30 -66.5l-88 -79l82 -73q21 -19 27 -46.5t-11.5 -54.5t-44 -36t-47 -3
t-34.5 18l-96 85l-96 -85q-21 -18 -49.5 -20t-54.5 18.5t-32 47.5t3.5 46t23.5 31l50 44q13 13 33.5 20t42 1.5t39.5 -21.5l40 -35l71 63l-196 175q-10 9 -25.5 11.5t-33.5 -8t-20.5 -30.5t12.5 -38l38 -38zM348 129l94 -83q12 -11 28.5 -12t33 13t17 35t-15.5 35l-85 75z
M203 46l93 83l-36 32q-18 15 -36 15t-32 -14l-52 -45q-8 -7 -14 -21t0 -29t17 -23.5t27.5 -10t32.5 12.5z" />
    <glyph glyph-name="y" unicode="y" horiz-adv-x="548" 
d="M346 128h-35v236q0 27 14 45.5t39 27t50.5 0t39.5 -27t14 -45.5v-350q-1 -59 -30.5 -91.5t-83.5 -35.5q-2 -33 -22 -63t-45 -42t-45 -12q-35 0 -56.5 22.5t-22.5 49t10 45t30.5 26.5t38.5 8l78 -1v51v11t-1 19t-5.5 11.5t-11 2.5t-23.5 -4q-38 -9 -62 -9q-64 0 -100.5 42
t-36.5 117v279h35v-279q0 -57 25 -90.5t77 -33.5q22 0 54 8q44 11 65 -6t19 -68v-49q40 4 59 26.5t19 65.5l1 350q0 20 -13 31.5t-31 11.5t-31 -11.5t-13 -31.5v-236zM242 -196q27 0 50.5 25t26.5 56l-77 1q-18 0 -28.5 -11.5t-12 -28t9.5 -29t31 -13.5z" />
    <glyph glyph-name="z" unicode="z" horiz-adv-x="538" 
d="M159 313h95v-35h-95q-13 0 -31.5 7.5t-33.5 27.5t-15 45q0 33 23 56.5t55 23.5h224q32 0 54.5 -23t22.5 -56q0 -25 -15 -49t-42 -40l-265 -153q-13 -8 -19 -19.5t-6 -20.5q0 -15 13.5 -28.5t28.5 -13.5h11l137 87q2 1 21 12t40 18.5t37 7.5q33 0 56.5 -24t23.5 -59
q0 -31 -23 -54t-54 -23h-228l-64 -39l-18 30l29 17q-19 11 -31.5 30t-12.5 39q0 21 10.5 39t30.5 30l265 154q13 8 26.5 23.5t13.5 35.5q0 18 -12 31t-30 13h-224q-18 0 -30.5 -13.5t-12.5 -31.5q0 -19 15 -32t30 -13zM322 93l-91 -58h171q17 0 29.5 12.5t12.5 29.5
q0 21 -13 34.5t-32 13.5q-25 0 -77 -32z" />
    <glyph glyph-name="braceleft" unicode="{" horiz-adv-x="393" 
d="M88 182h35v-92q-1 -85 84 -97v184q0 76 -36 133q-22 -21 -48.5 -31.5t-49.5 -10.5q-30 0 -51.5 21.5t-21.5 51.5q0 27 21 49.5t52 22.5q25 0 51.5 -12.5t47.5 -34.5q35 53 35 138v199q-85 -11 -84 -97v-107h-35v107q-1 58 31.5 92.5t88.5 40.5q1 23 12.5 50t39.5 48
t60 21q26 0 46.5 -15.5t25.5 -46t-7.5 -52.5t-30 -29.5t-34.5 -7.5l-78 -1v-202q0 -99 -47 -166q22 -31 34.5 -72.5t12.5 -88.5v-187h78q17 0 35 -8t28.5 -27t10 -41t-11 -41t-28.5 -27t-34 -8q-20 0 -45.5 12.5t-45.5 43t-21 64.5q-57 5 -89 39.5t-31 92.5v92zM243 -44
q2 -31 26 -57t51 -26q14 0 26 9.5t13 28.5t-9.5 31.5t-29.5 12.5zM320 823q-27 0 -51 -25t-26 -57h77q18 0 28.5 12t10 29t-10.5 29t-28 12zM35 341q0 -17 11.5 -27.5t26.5 -10.5q17 0 38.5 9t38.5 26q-17 18 -38.5 29t-38.5 11t-27.5 -12t-10.5 -25z" />
    <glyph glyph-name="bar" unicode="|" horiz-adv-x="320" 
d="M204 735h35v-809q0 -18 -8.5 -36.5t-28 -30t-43 -11.5t-43 11.5t-28 30t-8.5 36.5v833q0 16 8.5 35t29 32t41.5 13v-35q-17 0 -31 -13t-14 -32v-833q0 -21 13.5 -33.5t31.5 -12.5t31.5 12.5t13.5 33.5v809z" />
    <glyph glyph-name="braceright" unicode="}" horiz-adv-x="396" 
d="M273 90v92h35v-92q1 -43 -17.5 -74t-47.5 -43.5t-55 -14.5q-1 -22 -13 -50t-40 -49t-59 -21q-25 0 -46 15.5t-26 46t7 52.5t30 30t35 8h78v187q0 47 12.5 88.5t34.5 72.5q-47 67 -47 166v202l-78 1q-35 -1 -55.5 23t-18 57t23 52t50.5 19q21 0 46 -12t45 -42t21 -65
q56 -6 88.5 -40.5t31.5 -92.5v-107h-35v107q1 86 -84 97v-199q0 -85 35 -138q21 22 47.5 34.5t51.5 12.5q31 0 52 -22.5t21 -49.5q0 -30 -21.5 -51.5t-51.5 -21.5q-23 0 -49.5 10.5t-48.5 31.5q-36 -57 -36 -133v-184q85 12 84 97zM153 -44l-77 -1q-19 0 -29.5 -12.5
t-10 -29.5t11 -28.5t28.5 -11.5q27 0 51 26t26 57zM76 823q-18 0 -28 -12t-10.5 -29t10 -29t28.5 -12h77q-2 32 -26 57t-51 25zM361 341q0 13 -10.5 25t-27.5 12t-38.5 -11t-38.5 -29q17 -17 38.5 -26t38.5 -9q15 0 26.5 10.5t11.5 27.5z" />
    <glyph glyph-name="asciitilde" unicode="~" horiz-adv-x="622" 
d="M374 538v-33q-24 0 -88 26.5t-90 28.5l-1 -30q0 -24 -17 -41t-41 -17q-23 0 -40 17t-17 41q0 28 23.5 45t64.5 18q5 33 26 56t53 23q27 0 85 -26t79 -30.5t33 -4.5q15 0 32 5t25 14t8 18q0 10 -8 17.5t-17 7.5q-10 0 -17.5 -8t-7.5 -18h-33q0 24 17 41t41 17q23 0 40 -17
t17 -40q0 -31 -26 -50t-71 -19q-23 0 -47.5 7.5t-75.5 30t-74 22.5q-37 0 -46 -47q23 -3 43 -9.5t65 -25.5t65 -19zM112 530q0 -10 8 -18t17 -8q10 0 18 8t8 18v31q-21 -2 -33.5 -8t-15 -13t-2.5 -10z" />
    <glyph glyph-name="uni00A0" unicode="&#xa0;" horiz-adv-x="340" 
 />
    <glyph glyph-name="exclamdown" unicode="&#xa1;" horiz-adv-x="320" 
d="M204 433q0 17 -13 31t-32 14q-20 0 -32.5 -14t-12.5 -31q0 -6 6 -19t40 -50l18 22.5t20 28.5t6 18zM159 -199v34q16 0 30.5 13.5t14.5 31.5v302q0 67 -43 127q-47 -68 -47 -133v-279h-35v279q0 80 59 161q-38 42 -48.5 60.5t-10.5 35.5q0 32 24 56t56 24t56 -24t24 -56
q0 -11 -6.5 -26.5t-27.5 -42t-22 -27.5q56 -71 56 -155l-1 -302q0 -33 -24.5 -56t-54.5 -23z" />
    <glyph glyph-name="cent" unicode="&#xa2;" horiz-adv-x="584" 
d="M204 499q0 16 9.5 34t32 31t45.5 13q22 0 44.5 -13t32 -30.5t9.5 -32.5v-54q58 -19 92.5 -59t34.5 -84q0 -36 -22.5 -54.5t-55.5 -13.5q-15 2 -34.5 14t-34.5 36.5t-15 49.5v85q-32 6 -54 6q-24 0 -49 -5v-399q30 -6 49 -6q20 0 54 8v84q0 25 15 49.5t34.5 36.5t34.5 14
q23 3 42.5 -6t27.5 -27t8 -35q0 -18 -12 -44.5t-43.5 -54t-71.5 -42.5v-56q0 -15 -9.5 -32.5t-32 -29.5t-44.5 -12q-33 0 -60 21.5t-27 53.5v50q-41 13 -71 39.5t-41.5 55.5t-11.5 53v159q0 24 11.5 53t41.5 55t71 39v50zM114 143q0 -36 24.5 -65.5t65.5 -45.5v380
q-41 -16 -65.5 -45.5t-24.5 -64.5v-159zM431 271q18 -3 28 6t10 27q0 27 -25 57.5t-67 48.5v-74q0 -21 17.5 -41.5t36.5 -23.5zM377 109v-72q40 19 66 48t26 56q0 18 -10 27t-28 6q-19 -3 -36.5 -23.5t-17.5 -41.5zM342 -10q-30 -7 -54 -7q-19 0 -49 4v-42q0 -18 16 -30
t36 -12q19 0 35 12.5t16 28.5v46zM239 499v-42q25 5 49 5q29 0 54 -6v45q0 16 -16.5 28.5t-34.5 12.5t-35 -12t-17 -31z" />
    <glyph glyph-name="sterling" unicode="&#xa3;" horiz-adv-x="790" 
d="M347 0v34h284q19 0 30.5 13t11.5 33t-13.5 33.5t-34.5 13.5h-379q0 -47 -7 -70.5t-22 -38.5q-9 -10 -23.5 -15.5t-30.5 -5.5q-35 0 -59 23.5t-24 57.5t25 58.5t58 24.5h48v242h-118v35h118v32q0 67 25.5 120.5t69.5 83.5t105 30q19 0 53 -8q36 15 83 15q98 0 164 -78
q10 -12 16.5 -30.5t1.5 -36.5q-3 -11 -12 -22.5t-25 -17.5q-33 -13 -67 1.5t-62 55.5q-41 56 -97 76q-23 -11 -46.5 -36t-37.5 -65.5t-14 -82.5v-37h133q36 0 59 -21t23 -54q0 -23 -10.5 -42.5t-29 -28t-36.5 -8.5h-70q-39 0 -64 17.5t-32.5 39t-7.5 37.5v25h-87v-242l379 1
q35 -1 58.5 -24t23.5 -58q0 -22 -11 -42.5t-29 -29t-36 -8.5h-284zM245 470v-32h88v37q0 56 21.5 108.5t62.5 84.5l-6 1q-50 0 -86.5 -25.5t-58 -71t-21.5 -102.5zM501 403h-133v-25q0 -30 19.5 -44.5t49.5 -14.5h70q19 0 30.5 11t11.5 33q0 20 -14.5 30t-33.5 10zM547 677
q-16 0 -33 -3q45 -26 77 -71q45 -63 88 -45q11 5 17 16q2 8 -2 18.5t-10 18.5q-56 66 -137 66zM115 78q0 -19 13.5 -32.5t34.5 -13.5q18 0 29 11q6 6 12.5 22t6.5 62h-48q-20 0 -33.5 -13.5t-14.5 -35.5z" />
    <glyph glyph-name="currency" unicode="&#xa4;" horiz-adv-x="645" 
d="M143 263l-38 38q-26 28 -24 59t22 50t42.5 24.5t42 -1t32.5 -17.5l200 -177l91 80q14 12 17.5 28.5t-8 32t-28 19.5t-28.5 -0.5t-20 -11.5l-56 -52l-25 24l56 52q22 20 52 24t59.5 -17t33.5 -57.5t-30 -66.5l-88 -79l82 -73q21 -19 27 -46.5t-11.5 -54.5t-44 -36t-47 -3
t-34.5 18l-96 85l-96 -85q-21 -18 -49.5 -20t-54.5 18.5t-32 47.5t3.5 46t23.5 31l50 44q13 13 33.5 20t42 1.5t39.5 -21.5l40 -35l71 63l-196 175q-10 9 -25.5 11.5t-33.5 -8t-20.5 -30.5t12.5 -38l38 -38zM348 129l94 -83q12 -11 28.5 -12t33 13t17 35t-15.5 35l-85 75z
M203 46l93 83l-36 32q-18 15 -36 15t-32 -14l-52 -45q-8 -7 -14 -21t0 -29t17 -23.5t27.5 -10t32.5 12.5z" />
    <glyph glyph-name="yen" unicode="&#xa5;" horiz-adv-x="747" 
d="M137 322v35h270l212 232q13 15 11 32t-15.5 28.5t-29 11t-23.5 -6.5t-11 -9l-139 -152q-15 -16 -28 -21t-26 2t-24 19l-140 155q-10 11 -25 14t-32 -7.5t-20 -29t9 -32.5l147 -168l-26 -23l-147 168q-18 21 -20 47t19.5 51.5t57 29t62.5 -25.5l154 -169l152 166
q19 19 46.5 24t54.5 -10.5t35.5 -39.5t2 -43.5t-18.5 -33.5l-191 -209h53q24 0 37.5 -15.5t13.5 -36t-13.5 -36t-37.5 -15.5h-145l-23 -34h23q32 0 55.5 -23.5t23.5 -55.5v-68q0 -26 -16 -46.5t-47.5 -25t-54.5 8.5t-31 30.5t-8 34.5v67q0 20 5 43h-104q-23 0 -36 15.5
t-13 36t13.5 36t36.5 15.5h159l30 34h-238zM362 185h-37q-6 -19 -6 -43v-67q-1 -20 12 -31.5t30.5 -11.5t31 11t14.5 30v68q0 18 -13.5 31t-31.5 13zM185 220h115q5 12 19 34l-133 -1q-8 0 -13.5 -6t-1.5 -16.5t14 -10.5zM507 322h-85q-17 -17 -31 -34h116q7 0 13 6.5t2 17
t-15 10.5z" />
    <glyph glyph-name="brokenbar" unicode="&#xa6;" horiz-adv-x="322" 
d="M81 221h35v-294q0 -21 13.5 -33.5t31.5 -12.5t31.5 12.5t13.5 33.5v318q0 19 -14 32t-31 13v35q13 0 31.5 -7.5t33 -27.5t14.5 -45v-318q0 -27 -16.5 -49.5t-48 -27.5t-54.5 8.5t-31.5 32t-8.5 36.5v294zM204 491v268q0 21 -13.5 33.5t-31.5 12.5t-31.5 -12.5
t-13.5 -33.5v-292q0 -19 14 -32t31 -13v-35q-13 0 -31.5 7.5t-33 27.5t-14.5 45v292q0 27 16.5 49.5t48 27.5t54.5 -8.5t31.5 -32t8.5 -36.5v-268h-35z" />
    <glyph glyph-name="section" unicode="&#xa7;" horiz-adv-x="624" 
d="M148 545q-7 -8 -12 -21.5t-1 -30.5t17 -29l195 -199q50 -50 50 -112q0 -31 -13.5 -59.5t-36.5 -49.5q21 -7 41 -7q18 0 37.5 7t37.5 23t30.5 41.5t12.5 58.5q0 26 -11.5 58t-54.5 77l-47.5 47.5t-119.5 118t-99 98.5q-44 44 -60 83t-16 75q0 41 20 81t57.5 62t75.5 22
q41 0 75 -18q36 18 71 18q44 0 83.5 -23t54.5 -58q10 -23 2.5 -52t-30.5 -42q-16 -9 -39.5 -9.5t-48 16t-38.5 43.5q-7 16 -22 35t-33 32q-22 -17 -35.5 -41t-13.5 -51q0 -48 40 -88l195 -199q20 -20 27.5 -46.5t0 -48t-20.5 -34.5l-25 25q15 15 12.5 38.5t-19.5 41.5
l-194 198q-50 50 -50 113q0 30 13 59t36 50q-24 6 -41 6q-18 0 -37.5 -7t-37.5 -23t-30.5 -41.5t-12.5 -58.5q0 -35 15.5 -67t50.5 -67q17 -18 129.5 -129t136.5 -135q34 -35 55 -73.5t21 -85.5q0 -41 -20 -81t-57.5 -62t-75.5 -22q-37 0 -75 18q-34 -18 -71 -18
q-21 0 -48.5 7.5t-53 28t-35.5 45.5q-5 12 -6 30.5t10 38.5t31 29q16 7 38.5 6.5t44.5 -17t35 -43.5q16 -30 31.5 -45.5t23.5 -20.5q22 16 35.5 40.5t13.5 51.5q0 48 -40 88l-195 199q-28 27 -29.5 65t25.5 65zM137 96q9 -23 39.5 -41t65.5 -18q19 0 37 6q-31 26 -52 69
q-12 24 -31.5 35.5t-39.5 3.5q-15 -7 -20.5 -23.5t1.5 -31.5zM397 854q-19 0 -37 -6q33 -28 52 -69q12 -24 32.5 -36t41.5 -1q14 7 18.5 22.5t-2.5 30.5q-9 23 -39.5 41t-65.5 18z" />
    <glyph glyph-name="dieresis" unicode="&#xa8;" horiz-adv-x="546" 
d="M61 816q0 34 25 58.5t58 24.5q34 0 58.5 -24.5t24.5 -58.5t-24.5 -58.5t-58.5 -24.5q-33 0 -58 24.5t-25 58.5zM94 816q0 -21 14.5 -35.5t35.5 -14.5t36 14.5t15 35.5t-15 36t-36 15t-35.5 -15t-14.5 -36zM317 816q0 34 25 58.5t58 24.5q34 0 58.5 -24.5t24.5 -58.5
t-24.5 -58.5t-58.5 -24.5q-33 0 -58 24.5t-25 58.5zM350 816q0 -21 14.5 -35.5t35.5 -14.5t36 14.5t15 35.5t-15 36t-36 15t-35.5 -15t-14.5 -36z" />
    <glyph glyph-name="copyright" unicode="&#xa9;" horiz-adv-x="725" 
d="M80 549q0 57 22 109t61 91t91 61t109 22q56 0 108 -22t91 -61t61 -91t22 -109q0 -56 -22 -108t-61 -91t-91 -61t-108 -22q-57 0 -109 22t-91 61t-61 91t-22 108zM115 549q0 -49 19.5 -94.5t53.5 -79.5t79.5 -53.5t95.5 -19.5q24 0 54.5 6.5t62.5 23.5t61.5 47t49 75.5
t19.5 94.5q0 50 -19.5 95.5t-53.5 79.5t-79.5 53.5t-94.5 19.5q-50 0 -95.5 -19.5t-79.5 -53.5t-53.5 -79.5t-19.5 -95.5zM486 656q-23 26 -55 40t-66 14q-66 0 -113.5 -47.5t-47.5 -113.5t47.5 -113.5t113.5 -47.5q33 0 64 14t54 38l-25 24q-16 -18 -41 -29.5t-52 -11.5
q-52 0 -89.5 37t-37.5 89t37.5 89.5t89.5 37.5q12 0 29 -4t34.5 -14.5t30.5 -24.5z" />
    <glyph glyph-name="ordfeminine" unicode="&#xaa;" horiz-adv-x="343" 
d="M284 494v-35q-30 0 -54.5 23t-25.5 57l1 78q0 17 -12.5 31t-32.5 14q-18 1 -31 -13.5t-13 -31.5v-56h-34l-1 56q0 32 24 56t56 24t55.5 -23.5t23.5 -56.5l-1 -78q0 -19 14 -32t31 -13z" />
    <glyph glyph-name="guillemotleft" unicode="&#xab;" horiz-adv-x="392" 
d="M312 342l-81 -158l81 -158l-31 -16l-85 166q-3 8 0 16l85 166zM196 342l-81 -158l81 -158l-31 -16l-85 166q-3 8 0 16l85 166z" />
    <glyph glyph-name="logicalnot" unicode="&#xac;" horiz-adv-x="748" 
d="M510 174l1 59h35l-1 -60q0 -17 13.5 -30.5t31.5 -13.5q17 0 30 12t14 29v64q1 22 -15 35.5t-40 13.5l-450 -1q-32 0 -56 23.5t-24 55.5q0 15 7.5 33t26 31.5t40.5 14.5h461q25 1 46.5 -13.5t29.5 -34.5t8 -36h-34q-1 19 -14.5 34t-34.5 15l-459 1q-18 -1 -30 -14t-12 -31
t13.5 -31t31.5 -13h451q37 0 63.5 -24t25.5 -60v-65q-1 -14 -9 -31.5t-27.5 -30t-42.5 -12.5q-32 0 -56.5 24t-23.5 56z" />
    <glyph glyph-name="uni00AD" unicode="&#xad;" horiz-adv-x="750" 
d="M591 247v-35h-448q-30 0 -51.5 21.5t-21.5 51.5q0 29 21.5 50.5t51.5 21.5h464q30 0 51.5 -21.5t21.5 -51.5h-35q0 15 -11 27t-27 12h-464q-16 0 -27 -11t-11 -27t11 -27t27 -11h448z" />
    <glyph glyph-name="registered" unicode="&#xae;" horiz-adv-x="727" 
d="M81 549q0 57 22 109t61 91t91 61t109 22t108.5 -22t90.5 -61t61 -91t22 -109q0 -42 -14.5 -89t-54.5 -95t-98 -73t-115 -25t-109 22t-91 61t-61 91t-22 108zM116 549q0 -49 19.5 -94.5t53.5 -79.5t79.5 -53.5t95.5 -19.5t95.5 19.5t79.5 53.5t53 79.5t19 94.5
q0 50 -19 95.5t-53 79.5t-79.5 53.5t-95.5 19.5t-95.5 -19.5t-79.5 -53.5t-53.5 -79.5t-19.5 -95.5zM261 390v292q0 7 5.5 12t11.5 5h120q14 0 34.5 -9.5t37.5 -34t17 -53.5q0 -19 -9 -41t-30.5 -38t-43.5 -16h-16l94 -98l-24 -21l-115 119h-47v-117h-35zM296 665v-124h108
q16 0 32 18t16 43t-18 44t-36 19h-102z" />
    <glyph glyph-name="macron" unicode="&#xaf;" horiz-adv-x="320" 
d="M28 801h269v-36h-269v36z" />
    <glyph glyph-name="degree" unicode="&#xb0;" horiz-adv-x="430" 
d="M80 607q0 54 39.5 93t93.5 39q25 0 56 -13t53.5 -46.5t22.5 -72.5q0 -55 -38.5 -94t-93.5 -39q-53 0 -93 39.5t-40 93.5zM116 607q0 -19 9.5 -42t33.5 -39t54 -16q18 0 41 9.5t40 34t17 53.5q0 18 -10 41t-34.5 40t-53.5 17q-19 0 -42 -10t-39 -34.5t-16 -53.5z" />
    <glyph glyph-name="plusminus" unicode="&#xb1;" horiz-adv-x="737" 
d="M314 489h-35v80q0 34 23 58t55 24q28 0 50 -14t30.5 -33.5t8.5 -35.5v-257l128 -1q21 0 34.5 13.5t13.5 33.5q0 21 -14 34.5t-33 13.5h-42v35h41q34 0 58.5 -24.5t24.5 -58.5q0 -16 -8 -35t-28.5 -32.5t-46.5 -13.5h-128l1 -62h-35v62h-95v-82q0 -21 13 -34.5t32 -13.5
h222q30 0 51.5 -21t21.5 -51t-21.5 -51.5t-51.5 -21.5h-431q-30 0 -51.5 21.5t-21.5 51.5t21.5 51t51.5 21h86v-34h-86q-16 0 -27 -11t-11 -27t11 -27t27 -11h431q16 0 27 11t11 27t-11 27t-27 11h-225q-33 0 -55 24t-22 58v82h-120q-33 0 -57.5 25t-24.5 58q0 34 23.5 57.5
t58.5 23.5h68q19 0 41 -10.5t33.5 -31t12.5 -44.5v-43h95v257q0 21 -15.5 34.5t-39.5 13.5q-18 0 -30.5 -14t-12.5 -33v-80zM115 359q0 -20 14 -34t33 -14h120v42q0 24 -16 38t-37 14h-67q-20 0 -33.5 -13t-13.5 -33z" />
    <glyph glyph-name="uni00B2" unicode="&#xb2;" horiz-adv-x="641" 
d="M251 276l-88 -66l-22 27l52 39q-32 0 -53 11.5t-28 30t0.5 39t28.5 36.5l126 90q85 61 91.5 98.5t-44.5 68.5q-28 -13 -51 -38.5t-35 -58.5q-7 -19 -21.5 -38t-36.5 -27.5t-42.5 -3.5t-34 21t-14 37.5t5.5 40.5q11 35 35.5 61.5t56.5 40t68 14.5t69 -11q53 16 96.5 5.5
t70 -39t33.5 -73.5l-35 -7q-9 48 -41.5 72.5t-83.5 17.5q31 -25 40.5 -54.5t-14 -68.5t-93.5 -86l-115 -82q-18 -12 -21.5 -28.5t9.5 -25t33 -8.5h46l170 132q18 14 35.5 23.5t42.5 9.5q31 0 52 -20t21 -50v-38q0 -46 -26 -69t-85 -23h-198zM438 422l-142 -111h153
q41 0 58.5 11.5t17.5 45.5v35q0 16 -10.5 27t-27.5 11q-9 0 -20 -2.5t-29 -16.5zM118 571q-4 -18 -1 -33.5t16 -21.5t31 5t32 45q11 29 30.5 56t44.5 43q-22 4 -52.5 -2.5t-59.5 -31.5t-41 -60z" />
    <glyph glyph-name="uni00B3" unicode="&#xb3;" horiz-adv-x="633" 
d="M372 335l29 19q21 -43 14 -84t-27.5 -66.5t-38.5 -36.5q28 -7 57 -4.5t55.5 19.5t42.5 48.5t17 68.5t-13 69.5t-43 54.5t-71 25q-9 -27 -29.5 -52t-44 -35.5t-43.5 -10.5q-31 0 -49.5 20t-19.5 47t17 47t50 20h94q13 30 13 49q0 37 -20 68.5t-52 48.5
q-26 -13 -44.5 -38.5t-25.5 -57.5q-5 -19 -17.5 -38.5t-34.5 -30t-44 -8t-38 16.5t-19.5 34t0.5 39q12 54 55.5 94t105.5 40q34 0 62 -12q29 12 61 12q42 0 83 -22t63.5 -63t22.5 -83h-35q0 54 -39.5 93.5t-94.5 39.5l-20 -1q30 -19 48.5 -57.5t16.5 -73.5q0 -10 -1.5 -19
t-10.5 -35q31 -3 65.5 -20t60 -59t25.5 -93t-19.5 -91t-52.5 -61.5t-73 -24.5t-88 14q-28 -14 -64.5 -18.5t-69.5 6.5t-55 29.5t-36 46t-16 59.5q-2 45 21 71.5t57.5 23.5t56 -27.5t24.5 -60.5q1 -14 10 -34t27.5 -38.5t36.5 -22.5q27 12 46.5 42t23 60t-11.5 53zM116 282
q1 -29 12.5 -55.5t38 -46t59.5 -22t55 3.5q-64 34 -76 107q-5 31 -19 45.5t-30 13.5t-28 -14t-12 -32zM206 562q8 29 24 56.5t39 45.5l-21 2q-37 0 -66 -19t-43 -44t-18 -44q-8 -31 11 -43t42.5 1.5t31.5 44.5zM277 384q15 0 32 8.5t30.5 26t19.5 31.5h-84q-15 -1 -25 -14
t-2.5 -32.5t29.5 -19.5z" />
    <glyph glyph-name="acute" unicode="&#xb4;" horiz-adv-x="500" 
d="M152 752l-8 34l198 47l8 -34z" />
    <glyph glyph-name="uni00B5" unicode="&#xb5;" 
d="M358 128h-35l1 235q0 31 23.5 54.5t54.5 23.5q32 0 55.5 -23.5t23.5 -55.5v-328h32q27 0 47 -20t20 -47t-20 -47t-47 -20t-47 20t-20 47v33h-163q-18 0 -31.5 -13t-13.5 -31l1 -155q0 -32 -23.5 -55.5t-54.5 -23.5q-32 0 -55.5 23.5t-23.5 55.5v562q0 31 23.5 54.5
t54.5 23.5q32 0 55.5 -23.5t23.5 -55.5v-234h-35v234q0 18 -13 31t-31 13q-17 0 -30 -13t-13 -30v-562q0 -18 13 -31t31 -13q17 0 30 13t13 31v155q0 32 23.5 55t55.5 23h163v328q0 18 -13 31t-31 13q-17 0 -30 -13t-13 -30zM513 0h-32v-33q0 -13 9.5 -22.5t22.5 -9.5
t23 9.5t10 22.5t-10 23t-23 10z" />
    <glyph glyph-name="paragraph" unicode="&#xb6;" horiz-adv-x="683" 
d="M375 0h-34v263q0 46 -36 46h-30q-39 0 -74.5 15t-62.5 42t-42 62.5t-15 74.5t15 74.5t42 62.5t63 42t75 15h18q35 0 57.5 -21.5t22.5 -90.5h100v39q0 30 22 51.5t52 21.5t52 -21.5t22 -51.5t-22 -52t-52 -22h-39v-550h-35v550h-100v-46q0 -24 -14 -45t-33 -29t-34 -8
q-33 0 -57.5 24.5t-24.5 57.5q0 15 8 34t29 33t45 14h46q0 52 -11.5 65.5t-32.5 12.5h-19q-24 0 -51 -8.5t-54.5 -31t-41.5 -55.5t-14 -65q0 -24 8.5 -50.5t28.5 -51t51.5 -41.5t71.5 -17l30 1q32 0 51.5 -22t19.5 -59zM246 504q0 -19 14 -33t33 -14t32.5 14t13.5 33v46h-46
q-19 0 -33 -13.5t-14 -32.5zM509 624v-39h39q16 0 27.5 11.5t11.5 27.5t-11.5 27.5t-27.5 11.5t-27.5 -11.5t-11.5 -27.5z" />
    <glyph glyph-name="periodcentered" unicode="&#xb7;" horiz-adv-x="308" 
d="M68 300q0 16 8.5 36t29.5 34t46 14q35 0 59.5 -24.5t24.5 -59.5q0 -16 -8 -35.5t-29.5 -34t-46.5 -14.5q-34 0 -59 25t-25 59zM103 300q0 -20 14.5 -34.5t34.5 -14.5t34.5 14.5t14.5 34.5t-14.5 35t-34.5 15t-34.5 -15t-14.5 -35z" />
    <glyph glyph-name="cedilla" unicode="&#xb8;" horiz-adv-x="212" 
d="M36 -75l-25 25q16 16 43 26.5t61 4t58 -31.5q16 -16 26.5 -43t3.5 -61t-31 -58q-16 -16 -42.5 -26.5t-61 -3.5t-58.5 31l25 24q11 -10 30 -18t42.5 -4t40.5 21q23 23 23.5 56.5t-22.5 56.5q-11 11 -29.5 19t-42.5 3.5t-41 -21.5z" />
    <glyph glyph-name="uni00B9" unicode="&#xb9;" horiz-adv-x="476" 
d="M393 693l-3 -35q-24 2 -52 -4.5t-45 -21.5q-15 -12 -30 -29v-186q0 -15 8 -25t19.5 -14t26 -1.5t23.5 14t9 26.5v108h35v-108q0 -26 -14 -44.5t-35 -25.5t-48 -2.5t-43 25.5t-16 47l1 150q-25 -26 -33 -33q-17 -14 -40.5 -16.5t-45 12t-27 35.5t0.5 37.5t17 28.5l47 49
q10 9 25.5 15t33 3.5t32.5 -15t19 -36.5l12 11q28 25 78 33q24 4 45 2zM127 608q-9 -11 -11 -23t7 -23t24.5 -11t26.5 10l54 56q2 31 -16 43t-41 -6z" />
    <glyph glyph-name="ordmasculine" unicode="&#xba;" horiz-adv-x="327" 
d="M80 617q0 34 25 58.5t58 24.5q34 0 58.5 -24.5t24.5 -58.5t-24.5 -58.5t-58.5 -24.5q-33 0 -58 24.5t-25 58.5zM113 617q0 -21 14.5 -35.5t35.5 -14.5t36 14.5t15 35.5t-15 36t-36 15t-35.5 -15t-14.5 -36z" />
    <glyph glyph-name="guillemotright" unicode="&#xbb;" horiz-adv-x="392" 
d="M163 184l-81 158l31 16l85 -166q3 -8 0 -16l-85 -166l-31 16zM279 184l-81 158l31 16l85 -166q3 -8 0 -16l-85 -166l-31 16z" />
    <glyph glyph-name="onequarter" unicode="&#xbc;" horiz-adv-x="1329" 
d="M1168 -1h-27v35h26q21 0 33.5 13.5t12.5 31.5t-13 31t-35 13h-64q-27 0 -46 15t-19 45v150q0 20 -13.5 31.5t-31.5 12t-31.5 -11t-13.5 -31.5v-300h45q32 0 56 -24t24 -56l-1 -82q0 -26 -14 -44.5t-35.5 -25.5t-48.5 -2.5t-43.5 25.5t-16.5 47v127h-181q-29 0 -50.5 12
t-32.5 32.5t-11.5 47.5t7.5 52l45 143q12 33 40.5 45.5t54.5 4.5t41 -24.5t17.5 -37t-2.5 -37.5l-25 -95l-33 11l25 93q4 10 3 22t-9.5 22t-24 15t-30 -1.5t-20 -16t-6.5 -13.5l-42 -141q-8 -27 -3.5 -51.5t20 -36t36.5 -11.5h181v300q0 17 8.5 35.5t28.5 29.5t43 11
t42.5 -11t28 -29.5t8.5 -36.5v-152q0 -23 26 -23h71q28 0 48 -14t27 -32.5t7 -32.5q0 -23 -12 -43t-32 -28.5t-38 -8.5zM803 679l-23 -27q-13 10 -31.5 9t-31.5 -16l-466 -561q-14 -16 -11.5 -34t16.5 -29.5t29.5 -11t23.5 7.5t11 10l456 549l27 -22l-456 -550
q-11 -13 -29 -22t-41 -5t-41.5 19t-27 36t-2.5 40.5t18 32.5l467 563q10 12 29 21t43 6t40 -16zM393 693l-3 -35q-24 2 -52 -4.5t-45 -21.5q-15 -12 -30 -29v-186q0 -15 8 -25t19.5 -14t26 -1.5t23.5 14t9 26.5v108h35v-108q0 -26 -14 -44.5t-35 -25.5t-48 -2.5t-43 25.5
t-16 47l1 150q-25 -26 -33 -33q-17 -14 -40.5 -16.5t-45 12t-27 35.5t0.5 37.5t17 28.5l47 49q10 9 25.5 15t33 3.5t32.5 -15t19 -36.5l12 11q28 25 78 33q24 4 45 2zM946 -1v-127q0 -22 13.5 -33.5t31.5 -10.5t31.5 13t13.5 31v82q0 18 -13.5 31.5t-31.5 13.5h-45zM127 608
q-9 -11 -11 -23t7 -23t24.5 -11t26.5 10l54 56q2 31 -16 43t-41 -6z" />
    <glyph glyph-name="onehalf" unicode="&#xbd;" horiz-adv-x="1266" 
d="M877 1l-88 -66l-22 27l52 39q-32 0 -53 11.5t-28 30t0.5 39t28.5 36.5l126 90q85 61 91.5 98.5t-44.5 68.5q-28 -13 -51 -38.5t-35 -58.5q-7 -19 -21.5 -38t-36.5 -27.5t-42.5 -3.5t-34 21t-14 37.5t5.5 40.5q11 35 35.5 61.5t56.5 40t68 14.5t69 -11q53 16 96.5 5.5
t70 -39t33.5 -73.5l-35 -7q-9 48 -41.5 72.5t-83.5 17.5q31 -25 40.5 -54.5t-14 -68.5t-93.5 -86l-115 -82q-18 -12 -21.5 -28.5t9.5 -25t33 -8.5h46l170 132q18 14 35.5 23.5t42.5 9.5q31 0 52 -20t21 -50v-38q0 -46 -26 -69t-85 -23h-198zM803 679l-23 -27q-13 10 -31.5 9
t-31.5 -16l-466 -561q-14 -16 -11.5 -34t16.5 -29.5t29.5 -11t23.5 7.5t11 10l456 549l27 -22l-456 -550q-11 -13 -29 -22t-41 -5t-41.5 19t-27 36t-2.5 40.5t18 32.5l467 563q10 12 29 21t43 6t40 -16zM393 693l-3 -35q-24 2 -52 -4.5t-45 -21.5q-15 -12 -30 -29v-186
q0 -15 8 -25t19.5 -14t26 -1.5t23.5 14t9 26.5v108h35v-108q0 -26 -14 -44.5t-35 -25.5t-48 -2.5t-43 25.5t-16 47l1 150q-25 -26 -33 -33q-17 -14 -40.5 -16.5t-45 12t-27 35.5t0.5 37.5t17 28.5l47 49q10 9 25.5 15t33 3.5t32.5 -15t19 -36.5l12 11q28 25 78 33q24 4 45 2
zM1064 147l-142 -111h153q41 0 58.5 11.5t17.5 45.5v35q0 16 -10.5 27t-27.5 11q-9 0 -20 -2.5t-29 -16.5zM744 296q-4 -18 -1 -33.5t16 -21.5t31 5t32 45q11 29 30.5 56t44.5 43q-22 4 -52.5 -2.5t-59.5 -31.5t-41 -60zM127 608q-9 -11 -11 -23t7 -23t24.5 -11t26.5 10
l54 56q2 31 -16 43t-41 -6z" />
    <glyph glyph-name="threequarters" unicode="&#xbe;" horiz-adv-x="1645" 
d="M372 335l29 19q21 -43 14 -84t-27.5 -66.5t-38.5 -36.5q28 -7 57 -4.5t55.5 19.5t42.5 48.5t17 68.5t-13 69.5t-43 54.5t-71 25q-9 -27 -29.5 -52t-44 -35.5t-43.5 -10.5q-31 0 -49.5 20t-19.5 47t17 47t50 20h94q13 30 13 49q0 37 -20 68.5t-52 48.5
q-26 -13 -44.5 -38.5t-25.5 -57.5q-5 -19 -17.5 -38.5t-34.5 -30t-44 -8t-38 16.5t-19.5 34t0.5 39q12 54 55.5 94t105.5 40q34 0 62 -12q29 12 61 12q42 0 83 -22t63.5 -63t22.5 -83h-35q0 54 -39.5 93.5t-94.5 39.5l-20 -1q30 -19 48.5 -57.5t16.5 -73.5q0 -10 -1.5 -19
t-10.5 -35q31 -3 65.5 -20t60 -59t25.5 -93t-19.5 -91t-52.5 -61.5t-73 -24.5t-88 14q-28 -14 -64.5 -18.5t-69.5 6.5t-55 29.5t-36 46t-16 59.5q-2 45 21 71.5t57.5 23.5t56 -27.5t24.5 -60.5q1 -14 10 -34t27.5 -38.5t36.5 -22.5q27 12 46.5 42t23 60t-11.5 53zM1485 -1
h-27v35h26q21 0 33.5 13.5t12.5 31.5t-13 31t-35 13h-64q-27 0 -46 15t-19 45v150q0 20 -13.5 31.5t-31.5 12t-31.5 -11t-13.5 -31.5v-300h45q32 0 56 -24t24 -56l-1 -82q0 -26 -14 -44.5t-35.5 -25.5t-48.5 -2.5t-43.5 25.5t-16.5 47v127h-181q-29 0 -50.5 12t-32.5 32.5
t-11.5 47.5t7.5 52l45 143q12 33 40.5 45.5t54.5 4.5t41 -24.5t17.5 -37t-2.5 -37.5l-25 -95l-33 11l25 93q4 10 3 22t-9.5 22t-24 15t-30 -1.5t-20 -16t-6.5 -13.5l-42 -141q-8 -27 -3.5 -51.5t20 -36t36.5 -11.5h181v300q0 17 8.5 35.5t28.5 29.5t43 11t42.5 -11t28 -29.5
t8.5 -36.5v-152q0 -23 26 -23h71q28 0 48 -14t27 -32.5t7 -32.5q0 -23 -12 -43t-32 -28.5t-38 -8.5zM1120 679l-23 -27q-13 10 -31.5 9t-31.5 -16l-466 -561q-14 -16 -11.5 -34t16.5 -29.5t29.5 -11t23.5 7.5t11 10l456 549l27 -22l-456 -550q-11 -13 -29 -22t-41 -5
t-41.5 19t-27 36t-2.5 40.5t18 32.5l467 563q10 12 29 21t43 6t40 -16zM1262 -1v-127q0 -22 13.5 -33.5t31.5 -10.5t31.5 13t13.5 31v82q0 18 -13.5 31.5t-31.5 13.5h-45zM116 282q1 -29 12.5 -55.5t38 -46t59.5 -22t55 3.5q-64 34 -76 107q-5 31 -19 45.5t-30 13.5t-28 -14
t-12 -32zM206 562q8 29 24 56.5t39 45.5l-21 2q-37 0 -66 -19t-43 -44t-18 -44q-8 -31 11 -43t42.5 1.5t31.5 44.5zM277 384q15 0 32 8.5t30.5 26t19.5 31.5h-84q-15 -1 -25 -14t-2.5 -32.5t29.5 -19.5z" />
    <glyph glyph-name="questiondown" unicode="&#xbf;" horiz-adv-x="665" 
d="M208 152l27 -22l-70 -91q-25 -32 -37 -59t-12 -65q0 -22 14 -46.5t38.5 -44t54.5 -28.5t59 -3q-35 21 -49.5 53t-11.5 66t17 65t33 51l76 85q48 60 -10 131l-25 -26l-26 22l29 31q-39 45 -50.5 67.5t-11.5 42.5q0 30 18 54.5t52.5 30.5t60.5 -9t35 -35.5t9 -39.5
q0 -17 -8 -37t-23 -37.5t-36 -37.5q26 -28 36 -63t3 -61t-15.5 -38.5t-11.5 -16.5q-34 -41 -77 -87q-18 -20 -28 -48.5t-8.5 -58t19.5 -54.5t52 -38q14 6 34.5 21t57.5 66q34 47 59 60.5t51 7.5q27 -6 39.5 -24.5t11 -46.5t-19.5 -53q-27 -38 -69 -58.5t-93 -20.5
q-37 0 -70 11q-31 -11 -68 -11q-25 0 -55 9t-62 32t-49 55.5t-17 61.5q0 34 10.5 66.5t45.5 79.5zM451 -129q-39 -54 -71 -78q26 -4 58.5 1.5t57.5 23t40 38.5q11 15 13.5 31.5t-6 26t-19.5 12.5q-13 4 -28 -4t-45 -51zM339 297q54 51 54 85q0 23 -15.5 37t-37 14.5
t-37 -13.5t-15.5 -39q0 -13 10 -31.5t41 -52.5z" />
    <glyph glyph-name="Agrave" unicode="&#xc0;" horiz-adv-x="786" 
d="M359 350h108v-34h-108q-30 -1 -42.5 19t-4.5 48l77 247q7 24 25 38t42 14q52 0 70 -54l172 -525q12 -31 -3.5 -62t-47.5 -40t-61 6t-39 46l-36 107q-6 16 -18 23.5t-31 7.5h-142q-19 0 -31 -7.5t-18 -23.5l-35 -106q-10 -31 -39 -45.5t-62 -6.5q-17 4 -32.5 17.5
t-20.5 37t2 47.5q12 36 73 235t72 235q29 98 93 125l14 -32q-49 -21 -73 -103q-10 -33 -71.5 -232.5t-74.5 -238.5q-6 -20 2 -36.5t25 -21.5q18 -6 35.5 3t23.5 27l35 106q9 26 30.5 40t51.5 14h142q30 0 52 -14t30 -40l36 -107q5 -18 22 -26.5t35 -2.5q18 5 26 21t2 36
l-173 525q-4 13 -12 21.5t-24 8.5q-12 0 -21 -7.5t-13 -20.5l-77 -246q-6 -23 14 -23zM532 783l-13 -32l-190 73l13 33z" />
    <glyph glyph-name="Aacute" unicode="&#xc1;" horiz-adv-x="784" 
d="M467 350h-108q-20 0 -14 23l77 246q4 13 13 20.5t21 7.5t21 -6t15 -24l173 -525q6 -20 -2 -36t-26 -21q-18 -6 -35 2.5t-22 26.5l-36 107q-8 26 -30 40t-52 14h-142q-30 0 -51.5 -14t-30.5 -40l-35 -106q-6 -18 -23.5 -27t-35.5 -3q-17 5 -25 21.5t-2 36.5
q13 39 74.5 238.5t71.5 232.5q24 82 73 103l-14 32q-64 -27 -93 -125q-11 -36 -72 -235t-73 -235q-7 -24 -2 -47.5t20.5 -37t32.5 -17.5q33 -8 62 6.5t39 45.5l35 106q6 16 18 23.5t31 7.5h142q19 0 31 -7.5t18 -23.5l36 -107q10 -31 39 -46t61 -6t47.5 40t3.5 62l-172 525
q-18 54 -70 54q-24 0 -42 -14t-25 -38l-77 -247q-8 -28 4.5 -48t42.5 -19h108v34zM301 751l-13 32l190 74l13 -33z" />
    <glyph glyph-name="Acircumflex" unicode="&#xc2;" horiz-adv-x="784" 
d="M550 751l-158 81l-158 -81l-16 31l166 85q8 3 16 0l166 -85zM359 350h108v-34h-108q-30 -1 -42.5 19t-4.5 48l77 247q7 24 25 38t42 14q52 0 70 -54l172 -525q12 -31 -3.5 -62t-47.5 -40t-61 6t-39 46l-36 107q-6 16 -18 23.5t-31 7.5h-142q-19 0 -31 -7.5t-18 -23.5
l-35 -106q-10 -31 -39 -45.5t-62 -6.5q-17 4 -32.5 17.5t-20.5 37t2 47.5q12 36 73 235t72 235q29 98 93 125l14 -32q-49 -21 -73 -103q-10 -33 -71.5 -232.5t-74.5 -238.5q-6 -20 2 -36.5t25 -21.5q18 -6 35.5 3t23.5 27l35 106q9 26 30.5 40t51.5 14h142q30 0 52 -14
t30 -40l36 -107q5 -18 22 -26.5t35 -2.5q18 5 26 21t2 36l-173 525q-4 13 -12 21.5t-24 8.5q-12 0 -21 -7.5t-13 -20.5l-77 -246q-6 -23 14 -23z" />
    <glyph glyph-name="Atilde" unicode="&#xc3;" horiz-adv-x="783" 
d="M359 350h108v-34h-108q-15 0 -29 7t-19 23.5t1 36.5l77 247q7 24 25 38t42 14q52 0 70 -54l172 -525q10 -32 -5 -62.5t-46 -39.5q-32 -9 -61 6t-39 46l-36 107q-6 16 -18 23.5t-31 7.5h-142q-19 0 -31 -7.5t-18 -23.5l-35 -106q-10 -31 -39 -45.5t-62 -6.5
q-17 4 -32.5 17.5t-20.5 37t2 47.5q12 36 73 235t72 235q29 98 93 125l14 -32q-49 -21 -73 -103q-10 -33 -71.5 -232.5t-74.5 -238.5q-6 -20 2 -36.5t25 -21.5q18 -6 35.5 3t23.5 27l35 106q9 26 30.5 40t51.5 14h142q30 0 52 -14t30 -40l36 -107q6 -18 22.5 -26.5
t34.5 -3.5q19 6 27 22t1 36l-173 525q-4 13 -12 21.5t-24 8.5q-12 0 -21 -7.5t-13 -20.5l-77 -246q-6 -23 14 -23zM472 751q-35 0 -87 26q-52 25 -76 22q-12 -1 -27 -9t-24 -24l-32 15q10 19 31 35t47 19q12 1 31.5 -1.5t65.5 -24.5q50 -25 73 -22q17 2 31 11.5t20 21.5
l33 -15q-10 -19 -34 -36.5t-52 -17.5z" />
    <glyph glyph-name="Adieresis" unicode="&#xc4;" horiz-adv-x="779" 
d="M358 316h108v34h-108q-20 0 -14 23l77 246q8 26 34 28q13 0 21.5 -5.5t14.5 -24.5l173 -525q6 -20 -2 -36t-26 -21q-18 -6 -35 2.5t-22 26.5l-36 107q-8 26 -30 40t-52 14h-142q-62 0 -82 -54l-35 -106q-6 -18 -23 -27t-35 -3q-18 5 -26 21.5t-2 36.5l146 471
q24 82 73 103l-14 32q-64 -27 -93 -125q-14 -52 -145 -470q-7 -24 -2.5 -47.5t20.5 -37t33 -17.5q32 -8 61 6.5t40 45.5l35 106q6 16 18 23.5t31 7.5h142q19 0 31 -7.5t18 -23.5l36 -107q12 -31 42 -45t64 -4q29 9 42.5 36.5t2.5 62.5l-172 525q-18 54 -70 54q-51 0 -67 -52
l-77 -247q-6 -20 -1 -37.5t19 -24t29 -5.5zM187 816q0 34 24.5 58.5t58.5 24.5q16 0 35.5 -8t33.5 -29t14 -46q0 -16 -8 -35.5t-29 -33.5t-46 -14q-34 0 -58.5 24.5t-24.5 58.5zM443 816q0 34 24.5 58.5t58.5 24.5q16 0 35.5 -8t33.5 -29t14 -46q0 -16 -8 -35.5t-29 -33.5
t-46 -14q-34 0 -58.5 24.5t-24.5 58.5zM220 816q0 -21 14.5 -35.5t35.5 -14.5t36 14.5t15 35.5t-15 36t-36 15t-35.5 -15t-14.5 -36zM476 816q0 -21 14.5 -35.5t35.5 -14.5t36 14.5t15 35.5t-15 36t-36 15t-35.5 -15t-14.5 -36z" />
    <glyph glyph-name="Aring" unicode="&#xc5;" horiz-adv-x="783" 
d="M358 316h108v34h-108q-20 0 -14 23l77 246q8 26 34 28q13 0 21.5 -5.5t14.5 -24.5l173 -525q6 -20 -2 -36t-26 -21q-18 -6 -35 2.5t-22 26.5l-36 107q-8 26 -30 40t-52 14h-142q-62 0 -82 -54l-35 -106q-6 -18 -23 -27t-35 -3q-18 5 -26 21.5t-2 36.5l146 471
q24 82 73 103l-14 32q-64 -27 -93 -125q-14 -52 -145 -470q-7 -24 -2.5 -47.5t20.5 -37t33 -17.5q32 -8 61 6.5t40 45.5l35 106q6 16 18 23.5t31 7.5h142q19 0 31 -7.5t18 -23.5l36 -107q12 -31 42 -45t64 -4q29 9 42.5 36.5t2.5 62.5l-172 525q-18 54 -70 54q-51 0 -67 -52
l-77 -247q-6 -20 -1 -37.5t19 -24t29 -5.5zM314 816q0 34 25 58.5t58 24.5q34 0 58.5 -24.5t24.5 -58.5t-24.5 -58.5t-58.5 -24.5q-33 0 -58 24.5t-25 58.5zM347 816q0 -21 14.5 -35.5t35.5 -14.5t36 14.5t15 35.5t-15 36t-36 15t-35.5 -15t-14.5 -36z" />
    <glyph glyph-name="AE" unicode="&#xc6;" horiz-adv-x="1107" 
d="M352 355h123v-35h-124q-28 0 -41 19q-3 4 -7.5 17t0.5 32l85 256q8 24 25.5 38t41.5 14q52 0 70 -54l91 -283q5 -16 21.5 -24t71.5 -6h175q16 0 28.5 10.5t12.5 29.5q0 15 -13 28t-28 13h-130q-24 0 -45 11.5t-30 30t-9 35.5l-1 99q0 42 28 75.5t75 33.5h174
q32 0 55.5 -24t23.5 -56t-23 -55.5t-55 -23.5h-139v35h139q19 0 31.5 13.5t12.5 30.5q0 18 -13.5 31.5t-31.5 13.5h-174q-15 0 -31 -8t-26.5 -26.5t-10.5 -39.5l1 -99q0 -22 15.5 -32.5t33.5 -10.5h130q29 0 52.5 -23t23.5 -52q0 -31 -22 -53t-54 -22h-175q-38 -1 -62 2.5
t-40.5 17t-23.5 34.5l-91 284q-5 13 -12.5 21t-24.5 8q-25 0 -34 -28l-85 -255q-6 -23 16 -23zM332 716l6 -34q-15 -3 -31.5 -19.5t-33.5 -67.5l-159 -499q-5 -20 2.5 -36.5t25.5 -21.5q19 -5 35.5 3t21.5 26l38 119q9 26 30.5 40t51.5 14h143q30 0 51.5 -14t29.5 -40
l38 -119q5 -15 20.5 -24t42.5 -8l291 -1q17 0 31 12t14 30q0 16 -12.5 29t-31.5 13l-182 1q-24 0 -45 11.5t-30 30t-9 35.5l-1 63h35l1 -63q0 -22 15.5 -32.5t33.5 -10.5h182q32 0 55 -23t23 -54t-23.5 -54t-55.5 -23l-291 1q-36 -1 -61.5 14t-34.5 43l-38 118
q-4 15 -16.5 22.5t-31.5 7.5h-143q-38 0 -49 -30l-37 -118q-10 -29 -40.5 -44.5t-60.5 -7.5q-14 4 -30 16.5t-22.5 36t1.5 48.5l159 500q19 56 42 80t50 30z" />
    <glyph glyph-name="Ccedilla" unicode="&#xc7;" horiz-adv-x="717" 
d="M205 38l-8 -33q-55 12 -86.5 61.5t-31.5 97.5l-1 297q0 42 16 83.5t46 74t72 51.5t92 19q24 0 49 -5q41 13 80 13q52 0 102.5 -22t79.5 -57q16 -17 19.5 -41.5t-8 -41.5t-30.5 -24q-32 -13 -66 2t-63 56q-42 60 -111 78q-25 -10 -53.5 -32.5t-47.5 -63t-19 -85.5v-238
q0 -48 25.5 -95t72 -72.5t94.5 -25.5q50 0 92.5 23t67.5 63l29 -19q-23 -35 -57 -59.5t-69 -33.5t-63 -9q-34 0 -72 12t-76.5 44t-58.5 79t-20 93v238q0 58 25.5 107.5t68.5 80.5q-30 -1 -61.5 -13t-58 -37.5t-44.5 -62.5t-18 -80l1 -292q0 -39 25.5 -80t65.5 -51zM278 -212
l25 24q23 -23 56.5 -23.5t56.5 22.5t23.5 56.5t-22.5 56.5q-11 11 -29.5 19t-42.5 3.5t-41 -21.5l-25 25q16 16 43 26.5t61 4t58 -31.5q16 -16 26.5 -43t3.5 -61t-31 -58q-16 -16 -42.5 -26.5t-61 -3.5t-58.5 31zM433 662l-16 -1q45 -26 79 -73q44 -61 87 -45
q18 8 18.5 23.5t-12.5 29.5q-23 27 -65.5 46.5t-90.5 19.5z" />
    <glyph glyph-name="Egrave" unicode="&#xc8;" horiz-adv-x="628" 
d="M137 696l20 -28q-22 -16 -31.5 -41.5t-9.5 -70.5v-335q0 -33 22.5 -50.5t60.5 -17.5v92q0 36 22 58t50 22h148q17 0 29.5 10.5t12.5 29.5q0 15 -13 27.5t-29 12.5h-129q-24 0 -45 11.5t-30 30t-9 35.5l-1 102q0 30 15.5 57.5t39 40t48.5 12.5h174q32 0 55.5 -24.5
t23.5 -56.5t-23 -55t-55 -23h-139v34h139q19 0 31 13.5t12 30.5q0 18 -13 32t-31 14h-174q-15 0 -31 -8t-26.5 -27t-10.5 -40v-102q0 -11 6 -21.5t19 -15.5t25 -5h129q30 0 53.5 -23t23.5 -52q0 -32 -22 -53.5t-55 -21.5h-148q-15 0 -26 -12.5t-11 -32.5v-92h238
q32 0 55 -22.5t23 -54.5q0 -31 -23.5 -53.5t-55.5 -22.5h-185q-17 0 -37.5 10t-35 36t-14.5 57v17q-53 0 -85.5 24.5t-32.5 76.5l-1 335q0 37 4 58.5t16 42t37 39.5zM286 35l184 -1q17 0 30.5 12t13.5 30q0 16 -12 29.5t-31 13.5h-238v-16q0 -26 14.5 -47t38.5 -21zM432 783
l-13 -32l-190 73l13 33z" />
    <glyph glyph-name="Eacute" unicode="&#xc9;" horiz-adv-x="642" 
d="M158 668l-20 28q-19 -15 -33.5 -35.5t-19 -44.5t-4.5 -60l1 -335q0 -52 32.5 -76.5t85.5 -24.5v-17q0 -20 8.5 -44t30.5 -41.5t48 -17.5h185q32 0 55.5 22.5t23.5 53.5q0 32 -23 54.5t-55 22.5h-238v88q0 21 11.5 35.5t25.5 14.5h148q33 0 55 21.5t22 53.5q0 29 -23.5 52
t-53.5 23h-129q-12 0 -25 5t-19 15.5t-6 21.5v101q0 21 10.5 40t26.5 27t31 8h174q18 0 31 -14t13 -32q0 -17 -12 -30.5t-31 -13.5h-139v-34h139q32 0 55 23t23 55t-23.5 56.5t-55.5 24.5h-174q-25 0 -48.5 -12.5t-39 -40t-15.5 -57.5l1 -101q0 -17 9 -35.5t30 -30t45 -11.5
h129q16 0 29 -12.5t13 -27.5q0 -19 -12.5 -29.5t-29.5 -10.5h-148q-28 0 -50 -24t-22 -61v-88q-38 0 -60.5 17.5t-22.5 50.5v335q0 34 7 63.5t34 48.5zM288 35q-24 0 -38.5 21t-14.5 47v16h238q19 0 31 -13.5t12 -29.5q0 -18 -13.5 -30t-30.5 -12zM235 750l-13 32l190 74
l13 -33z" />
    <glyph glyph-name="Ecircumflex" unicode="&#xca;" horiz-adv-x="629" 
d="M137 696l20 -28q-22 -16 -31.5 -41.5t-9.5 -70.5v-335q0 -33 22.5 -50.5t60.5 -17.5v92q0 36 22 58t50 22h148q17 0 29.5 10.5t12.5 29.5q0 15 -13 27.5t-29 12.5h-129q-24 0 -45 11.5t-30 30t-9 35.5l-1 102q0 30 15.5 57.5t39 40t48.5 12.5h174q32 0 55.5 -24.5
t23.5 -56.5t-23 -55t-55 -23h-139v34h139q19 0 31 13.5t12 30.5q0 18 -13 32t-31 14h-174q-15 0 -31 -8t-26.5 -27t-10.5 -40v-102q0 -11 6 -21.5t19 -15.5t25 -5h129q30 0 53.5 -23t23.5 -52q0 -32 -22 -53.5t-55 -21.5h-148q-15 0 -26 -12.5t-11 -32.5v-92h238
q32 0 55 -22.5t23 -54.5q0 -31 -23.5 -53.5t-55.5 -22.5h-185q-17 0 -37.5 10t-35 36t-14.5 57v17q-53 0 -85.5 24.5t-32.5 76.5l-1 335q0 37 4 58.5t16 42t37 39.5zM286 35l184 -1q17 0 30.5 12t13.5 30q0 16 -12 29.5t-31 13.5h-238v-16q0 -26 14.5 -47t38.5 -21zM520 747
l-158 81l-158 -81l-16 31l166 85q8 3 16 0l166 -85z" />
    <glyph glyph-name="Edieresis" unicode="&#xcb;" horiz-adv-x="629" 
d="M157 668l-20 28q-19 -15 -33.5 -35.5t-19 -44.5t-4.5 -60l1 -335q0 -52 32.5 -76.5t85.5 -24.5v-17q0 -20 8.5 -44t30.5 -41.5t48 -17.5h185q32 0 55.5 22.5t23.5 53.5q0 32 -23 54.5t-55 22.5h-238v92q0 20 11 32.5t26 12.5h148q33 0 55 21.5t22 53.5q0 29 -23.5 52
t-53.5 23h-129q-12 0 -25 5t-19 15.5t-6 21.5v102q0 21 10.5 40t26.5 27t31 8h174q18 0 31 -14t13 -32q0 -17 -12 -30.5t-31 -13.5h-139v-34h139q32 0 55 23t23 55t-23.5 56.5t-55.5 24.5h-174q-25 0 -48.5 -12.5t-39 -40t-15.5 -57.5l1 -102q0 -17 9 -35.5t30 -30t45 -11.5
h129q16 0 29 -12.5t13 -27.5q0 -19 -12.5 -29.5t-29.5 -10.5h-148q-28 0 -50 -22t-22 -58v-92q-38 0 -60.5 17.5t-22.5 50.5v335q0 34 7 63.5t34 48.5zM286 35q-24 0 -38.5 21t-14.5 47v16h238q19 0 31 -13.5t12 -29.5q0 -18 -13.5 -30t-30.5 -12zM80 816q0 34 25 58.5
t58 24.5q34 0 58.5 -24.5t24.5 -58.5t-24.5 -58.5t-58.5 -24.5q-33 0 -58 24.5t-25 58.5zM389 816q0 34 25 58.5t58 24.5q34 0 58.5 -24.5t24.5 -58.5t-24.5 -58.5t-58.5 -24.5q-33 0 -58 24.5t-25 58.5zM113 816q0 -21 14.5 -35.5t35.5 -14.5t36 14.5t15 35.5t-15 36
t-36 15t-35.5 -15t-14.5 -36zM422 816q0 -21 14.5 -35.5t35.5 -14.5t36 14.5t15 35.5t-15 36t-36 15t-35.5 -15t-14.5 -36z" />
    <glyph glyph-name="Igrave" unicode="&#xcc;" horiz-adv-x="320" 
d="M159 694v-35q-17 0 -31 -13t-14 -32v-534q0 -21 13.5 -33.5t31.5 -12.5t31.5 12.5t13.5 33.5v510h35v-510q0 -18 -8.5 -36.5t-28 -30t-43 -11.5t-43 11.5t-28 30t-8.5 36.5v534q0 16 8.5 35t29 32t41.5 13zM276 783l-13 -32l-190 73l13 33z" />
    <glyph glyph-name="Iacute" unicode="&#xcd;" horiz-adv-x="320" 
d="M159 659v35q-13 0 -31.5 -7.5t-33 -27.5t-14.5 -45v-534q0 -27 16.5 -49.5t48 -27.5t54.5 8.5t31.5 32t8.5 36.5v510h-35v-510q0 -21 -13.5 -33.5t-31.5 -12.5t-31.5 12.5t-13.5 33.5v534q0 19 14 32t31 13zM74 752l-13 32l190 74l13 -33z" />
    <glyph glyph-name="Icircumflex" unicode="&#xce;" horiz-adv-x="319" 
d="M294 751l-128 64l-137 -64l-16 31l145 68q8 3 16 0l136 -68zM159 694v-35q-17 0 -31 -13t-14 -32v-534q0 -21 13.5 -33.5t31.5 -12.5t31.5 12.5t13.5 33.5v510h35v-510q0 -18 -8.5 -36.5t-28 -30t-43 -11.5t-43 11.5t-28 30t-8.5 36.5v534q0 16 8.5 35t29 32t41.5 13z
" />
    <glyph glyph-name="Idieresis" unicode="&#xcf;" horiz-adv-x="369" 
d="M2 816q0 34 25 58.5t58 24.5q34 0 58.5 -24.5t24.5 -58.5t-24.5 -58.5t-58.5 -24.5q-33 0 -58 24.5t-25 58.5zM35 816q0 -21 14.5 -35.5t35.5 -14.5t36 14.5t15 35.5t-15 36t-36 15t-35.5 -15t-14.5 -36zM201 816q0 34 25 58.5t58 24.5q34 0 58.5 -24.5t24.5 -58.5
t-24.5 -58.5t-58.5 -24.5q-33 0 -58 24.5t-25 58.5zM234 816q0 -21 14.5 -35.5t35.5 -14.5t36 14.5t15 35.5t-15 36t-36 15t-35.5 -15t-14.5 -36zM187 659v35q-13 0 -31.5 -7.5t-33 -27.5t-14.5 -45v-534q0 -27 16.5 -49.5t48 -27.5t54.5 8.5t31.5 32t8.5 36.5v510h-35v-510
q0 -21 -13.5 -33.5t-31.5 -12.5t-31.5 12.5t-13.5 33.5v534q0 19 14 32t31 13z" />
    <glyph glyph-name="Eth" unicode="&#xd0;" horiz-adv-x="900" 
d="M543 -1v35h49q57 0 100.5 21t68 58t24.5 88l-1 278q0 84 -51.5 133t-140.5 49h-179q-42 0 -66.5 -25t-24.5 -67v-128h10q24 0 50.5 -10t44.5 -37.5t18 -64.5l1 -252q0 -33 -23 -56.5t-55 -23.5q-22 0 -42.5 12.5t-29 31.5t-8.5 36v329h-137q-17 0 -27 -10.5t-10 -24.5
q0 -15 11 -26.5t26 -11.5h76v-35h-76q-29 0 -50.5 22t-21.5 51q0 30 21 50t51 20h136v128q0 27 11.5 57t42.5 49.5t72 19.5l179 1q103 0 165 -59.5t62 -157.5v-278q0 -32 -11 -67t-38 -64.5t-72 -50t-106 -20.5h-49zM332 406h-10l1 -329q0 -20 14 -32.5t31 -12.5
q18 0 30.5 13.5t12.5 31.5l-1 252q0 36 -20.5 56.5t-57.5 20.5z" />
    <glyph glyph-name="Ntilde" unicode="&#xd1;" horiz-adv-x="743" 
d="M541 345h-32v270q0 33 22 56.5t56 23.5q31 0 53.5 -24t22.5 -56v-530q0 -29 -11.5 -53t-32 -32.5t-39.5 -5.5t-37 16t-29 33q-118 213 -222 392q-5 8 -16.5 12t-24 -5t-12.5 -28v-339q-1 -35 -24.5 -54.5t-50.5 -19.5t-46.5 11t-28 29t-9.5 34v495q0 44 19.5 77t54.5 45
l16 -31q-25 -8 -39 -31.5t-14 -59.5v-495q0 -20 12.5 -31.5t30 -11.5t30 11.5t12.5 31.5v339q0 18 9.5 35t32 27.5t45.5 2.5t35 -28q172 -303 221 -392q10 -18 22.5 -25.5t25.5 -7.5t25.5 13.5t12.5 45.5v530q0 19 -12.5 34t-31.5 15q-20 0 -33 -14t-13 -35v-270zM452 751
q-35 0 -87 26q-52 25 -76 22q-12 -1 -27 -9t-24 -24l-32 15q10 19 31 35t47 19q12 1 31.5 -1.5t65.5 -24.5q50 -25 73 -22q17 2 31 11.5t20 21.5l33 -15q-10 -19 -34 -36.5t-52 -17.5z" />
    <glyph glyph-name="Ograve" unicode="&#xd2;" horiz-adv-x="711" 
d="M529 -8l-7 34q33 7 54 46t21 84v301q0 32 -12.5 67.5t-46 70.5t-84 53t-101.5 18q-49 0 -93 -16t-76 -44.5t-50 -67.5t-18 -83v-261q0 -49 22.5 -86t63 -59.5t91.5 -22.5q30 0 63 9.5t59.5 30t42 51.5t15.5 70v249q0 21 -11 49t-40 50t-66 22q-51 0 -85 -34.5t-34 -85.5
l1 -252h-35l-1 252q0 65 45 110t109 45q41 0 75 -20.5t55.5 -57.5t21.5 -78v-249q0 -57 -27 -100t-76.5 -69.5t-111.5 -26.5q-39 0 -77 13.5t-68 39.5t-48 64.5t-18 85.5l-1 261q0 38 13.5 79.5t51.5 83t94.5 62.5t112.5 21q58 0 109.5 -18.5t89.5 -51.5t59 -78t21 -96v-301
q0 -57 -27.5 -105t-75.5 -59zM477 783l-13 -32l-190 73l13 33z" />
    <glyph glyph-name="Oacute" unicode="&#xd3;" horiz-adv-x="711" 
d="M529 -8l-7 34q33 7 54 46t21 84v301q0 32 -12.5 67.5t-46 70.5t-84 53t-101.5 18q-49 0 -93 -16t-76 -44.5t-50 -67.5t-18 -83v-261q0 -49 22.5 -86t63 -59.5t91.5 -22.5q30 0 63 9.5t59.5 30t42 51.5t15.5 70v249q0 21 -11 49t-40 50t-66 22q-51 0 -85 -34.5t-34 -85.5
l1 -252h-35l-1 252q0 65 45 110t109 45q41 0 75 -20.5t55.5 -57.5t21.5 -78v-249q0 -57 -27 -100t-76.5 -69.5t-111.5 -26.5q-39 0 -77 13.5t-68 39.5t-48 64.5t-18 85.5l-1 261q0 38 13.5 79.5t51.5 83t94.5 62.5t112.5 21q58 0 109.5 -18.5t89.5 -51.5t59 -78t21 -96v-301
q0 -57 -27.5 -105t-75.5 -59zM254 751l-13 32l190 74l13 -33z" />
    <glyph glyph-name="Ocircumflex" unicode="&#xd4;" horiz-adv-x="711" 
d="M529 -8l-7 34q33 7 54 46t21 84v301q0 32 -12.5 67.5t-46 70.5t-84 53t-101.5 18q-49 0 -93 -16t-76 -44.5t-50 -67.5t-18 -83v-261q0 -49 22.5 -86t63 -59.5t91.5 -22.5q30 0 63 9.5t59.5 30t42 51.5t15.5 70v249q0 21 -11 49t-40 50t-66 22q-51 0 -85 -34.5t-34 -85.5
l1 -252h-35l-1 252q0 65 45 110t109 45q41 0 75 -20.5t55.5 -57.5t21.5 -78v-249q0 -57 -27 -100t-76.5 -69.5t-111.5 -26.5q-39 0 -77 13.5t-68 39.5t-48 64.5t-18 85.5l-1 261q0 38 13.5 79.5t51.5 83t94.5 62.5t112.5 21q58 0 109.5 -18.5t89.5 -51.5t59 -78t21 -96v-301
q0 -57 -27.5 -105t-75.5 -59zM510 751l-158 81l-158 -81l-16 31l166 85q8 3 16 0l166 -85z" />
    <glyph glyph-name="Otilde" unicode="&#xd5;" horiz-adv-x="712" 
d="M529 -8l-7 34q33 7 54 46t21 84v301q0 32 -12.5 67.5t-46 70.5t-84 53t-101.5 18q-49 0 -93 -16t-76 -44.5t-50 -67.5t-18 -83v-261q0 -49 22.5 -86t63 -59.5t91.5 -22.5q30 0 63 9.5t59.5 30t42 51.5t15.5 70v249q0 21 -11 49t-40 50t-66 22q-51 0 -85 -34.5t-34 -85.5
l1 -252h-35l-1 252q0 65 45 110t109 45q41 0 75 -20.5t55.5 -57.5t21.5 -78v-249q0 -57 -27 -100t-76.5 -69.5t-111.5 -26.5q-39 0 -77 13.5t-68 39.5t-48 64.5t-18 85.5l-1 261q0 38 13.5 79.5t51.5 83t94.5 62.5t112.5 21q58 0 109.5 -18.5t89.5 -51.5t59 -78t21 -96v-301
q0 -57 -27.5 -105t-75.5 -59zM436 751q-35 0 -87 26q-52 25 -76 22q-12 -1 -27 -9t-24 -24l-32 15q10 19 31 35t47 19q12 1 31.5 -1.5t65.5 -24.5q50 -25 73 -22q17 2 31 11.5t20 21.5l33 -15q-10 -19 -34 -36.5t-52 -17.5z" />
    <glyph glyph-name="Odieresis" unicode="&#xd6;" horiz-adv-x="712" 
d="M237 185h-35l-1 252q0 65 45 110t109 45q41 0 75 -20.5t55.5 -57.5t21.5 -78v-249q0 -57 -27 -100t-76.5 -69.5t-111.5 -26.5q-39 0 -77 13.5t-68 39.5t-48 64.5t-18 85.5l-1 261q0 38 13.5 79.5t51.5 83t94.5 62.5t112.5 21q58 0 109.5 -18.5t89.5 -51.5t59 -78t21 -96
v-301q0 -57 -27.5 -105t-75.5 -59l-7 34q33 7 54 46t21 84v301q0 32 -12.5 67.5t-46 70.5t-84 53t-101.5 18q-49 0 -93 -16t-76 -44.5t-50 -67.5t-18 -83v-261q0 -49 22.5 -86t63 -59.5t91.5 -22.5q30 0 63 9.5t59.5 30t42 51.5t15.5 70v249q0 21 -11 49t-40 50t-66 22
q-51 0 -85 -34.5t-34 -85.5zM140 816q0 34 25 58.5t58 24.5q34 0 58.5 -24.5t24.5 -58.5t-24.5 -58.5t-58.5 -24.5q-33 0 -58 24.5t-25 58.5zM396 816q0 34 25 58.5t58 24.5q34 0 58.5 -24.5t24.5 -58.5t-24.5 -58.5t-58.5 -24.5q-33 0 -58 24.5t-25 58.5zM173 816
q0 -21 14.5 -35.5t35.5 -14.5t36 14.5t15 35.5t-15 36t-36 15t-35.5 -15t-14.5 -36zM429 816q0 -21 14.5 -35.5t35.5 -14.5t36 14.5t15 35.5t-15 36t-36 15t-35.5 -15t-14.5 -36z" />
    <glyph glyph-name="multiply" unicode="&#xd7;" horiz-adv-x="643" 
d="M388 335l-25 24l56 52q22 20 52 24t59.5 -17t33.5 -57.5t-30 -66.5l-88 -79l82 -73q27 -24 27 -56.5t-22 -57t-49 -28t-43.5 5.5t-22.5 14l-96 85l-96 -85q-21 -18 -49.5 -20t-54.5 18.5t-32 47.5t3.5 46t23.5 31l50 44q13 13 33.5 20t42 1.5t39.5 -21.5l40 -35l71 63
l-196 175q-10 9 -25.5 11.5t-33.5 -8t-20.5 -30.5t12.5 -38l52 -52l-25 -24l-52 52q-26 28 -24 59t22 50t42.5 24.5t42 -1t32.5 -17.5l200 -177l91 80q14 12 17.5 28.5t-8 32t-28 19.5t-28.5 -0.5t-20 -11.5zM348 129l94 -83q12 -11 28.5 -12t33 13t17 35t-15.5 35l-85 75z
M203 46l93 83l-36 32q-18 15 -36 15t-32 -14l-52 -45q-8 -7 -14 -21t0 -29t17 -23.5t27.5 -10t32.5 12.5z" />
    <glyph glyph-name="Oslash" unicode="&#xd8;" horiz-adv-x="725" 
d="M168 -143l-32 11l30 75q18 46 47.5 68t83.5 22q82 0 143 22.5t98 59.5t54.5 82t17.5 91v133q0 28 -11 64.5t-41 71t-70 56.5l-12 -29q-12 -25 -8 -53t18 -45q31 -41 31 -91v-77q0 -58 -27.5 -101.5t-78 -70t-113.5 -26.5q-39 0 -78 13.5t-70.5 40t-50 65.5t-18.5 87v95
q0 53 21.5 100.5t59.5 83t89.5 55.5t108.5 20q58 0 110 -20l25 62l33 -13l-27 -63q47 -25 82.5 -66t48.5 -83.5t13 -75.5l-1 -133q0 -55 -21 -107t-64 -93.5t-110 -65.5t-152 -24q-32 0 -55.5 -11t-43.5 -57zM483 318v74q0 18 -6 38t-18 34q-20 24 -25 61t10 73l12 30
q-47 18 -96 18q-50 0 -95 -17.5t-78.5 -48t-52.5 -72t-19 -87.5l1 -95q0 -30 10.5 -60.5t34.5 -55t59.5 -40.5t77.5 -16q31 0 65 10t61 30.5t43 52t16 71.5z" />
    <glyph glyph-name="Ugrave" unicode="&#xd9;" horiz-adv-x="704" 
d="M534 3l-17 32q30 15 50.5 50t20.5 77v453q0 20 -13 31t-31 11.5t-31 -11t-13 -31.5v-399q0 -36 -11.5 -73.5t-42 -71.5t-77.5 -52t-97.5 -14.5t-93.5 28t-70 71.5t-28 111v477h34v-477q0 -65 33.5 -111t92 -60t111 5.5t83.5 62.5t31 104v399q0 18 8.5 37t28 30t43 11.5
t43 -11t28 -30t8.5 -36.5l-1 -454q0 -25 -8 -57t-29.5 -60t-51.5 -42zM422 783l-13 -32l-190 73l13 33z" />
    <glyph glyph-name="Uacute" unicode="&#xda;" horiz-adv-x="704" 
d="M534 3l-17 32q30 15 50.5 50t20.5 77v453q0 20 -13 31t-31 11.5t-31 -11t-13 -31.5v-399q0 -36 -11.5 -73.5t-42 -71.5t-77.5 -52t-97.5 -14.5t-93.5 28t-70 71.5t-28 111v476h34v-476q0 -65 33.5 -111t92 -60t111 5.5t83.5 62.5t31 104v399q0 18 8.5 37t28 30t43 11.5
t43 -11t28 -30t8.5 -36.5l-1 -454q0 -25 -8 -57t-29.5 -60t-51.5 -42zM231 750l-13 32l190 74l13 -33z" />
    <glyph glyph-name="Ucircumflex" unicode="&#xdb;" horiz-adv-x="702" 
d="M534 3l-17 32q30 15 50.5 50t20.5 77v453q0 20 -13 31t-31 11.5t-31 -11t-13 -31.5v-399q0 -36 -11.5 -73.5t-42 -71.5t-77.5 -52t-97.5 -14.5t-93.5 28t-70 71.5t-28 111v477h34v-477q0 -65 33.5 -111t92 -60t111 5.5t83.5 62.5t31 104v399q0 18 8.5 37t28 30t43 11.5
t43 -11t28 -30t8.5 -36.5l-1 -454q0 -25 -8 -57t-29.5 -60t-51.5 -42zM481 750l-158 81l-158 -81l-16 31l166 85q8 3 16 0l166 -85z" />
    <glyph glyph-name="Udieresis" unicode="&#xdc;" horiz-adv-x="703" 
d="M534 3l-17 32q30 15 50.5 50t20.5 77v453q0 20 -13 31t-31 11.5t-31 -11t-13 -31.5v-399q0 -36 -11.5 -73.5t-42 -71.5t-77.5 -52t-97.5 -14.5t-93.5 28t-70 71.5t-28 111v457h34v-457q0 -65 33.5 -111t92 -60t111 5.5t83.5 62.5t31 104v399q0 18 8.5 37t28 30t43 11.5
t43 -11t28 -30t8.5 -36.5l-1 -454q0 -25 -8 -57t-29.5 -60t-51.5 -42zM76 816q0 34 25 58.5t58 24.5q34 0 58.5 -24.5t24.5 -58.5t-24.5 -58.5t-58.5 -24.5q-33 0 -58 24.5t-25 58.5zM461 816q0 34 25 58.5t58 24.5q34 0 58.5 -24.5t24.5 -58.5t-24.5 -58.5t-58.5 -24.5
q-33 0 -58 24.5t-25 58.5zM494 816q0 -21 14.5 -35.5t35.5 -14.5t36 14.5t15 35.5t-15 36t-36 15t-35.5 -15t-14.5 -36zM109 816q0 -21 14.5 -35.5t35.5 -14.5t36 14.5t15 35.5t-15 36t-36 15t-35.5 -15t-14.5 -36z" />
    <glyph glyph-name="Yacute" unicode="&#xdd;" horiz-adv-x="725" 
d="M430 208h-35v-133q0 -20 -13 -31t-31 -11t-31 11.5t-13 31.5v66q0 32 15.5 67.5t67.5 91.5l244 265q21 25 17 57t-26 52q-16 14 -39 18t-42 -4t-30 -21l-155 -165l-148 164q-11 13 -30 21t-42 4t-39 -18q-22 -20 -26 -52t18 -57l162 -187l29 24l-166 186
q-11 14 -8.5 31.5t15.5 29.5q11 10 29.5 10t31.5 -15l131 -146q24 -24 43 -24q5 0 11.5 3t15 11.5t10.5 9.5l144 147q13 15 31.5 15t29.5 -10q13 -12 15.5 -30t-9.5 -31l-242 -265q-55 -59 -74 -100t-19 -82v-66q0 -35 23 -56.5t57 -21.5q15 0 33.5 7t31.5 25.5t13 44.5v133
zM479 823l-190 -73l-13 32l190 74z" />
    <glyph glyph-name="Thorn" unicode="&#xde;" horiz-adv-x="608" 
d="M244 381h-35v207q0 30 17 57.5t42.5 39t48.5 11.5h19q38 0 73 -16.5t62 -45.5t42 -67.5t15 -79.5q0 -42 -15 -88t-46.5 -78.5t-65 -45t-65.5 -12.5h-46q-21 0 -33.5 -13.5t-12.5 -31.5v-138q0 -24 -15.5 -44t-35 -27.5t-33.5 -7.5q-32 0 -55.5 23.5t-23.5 55.5v502h35
v-502q0 -18 13 -31t31 -13t34 13t16 31l-1 138q0 31 23 55.5t58 24.5h46q44 0 78.5 23.5t56.5 67t22 98.5q0 70 -47 122t-110 52h-19q-18 0 -35.5 -8.5t-27.5 -27.5t-10 -37v-207z" />
    <glyph glyph-name="germandbls" unicode="&#xdf;" horiz-adv-x="640" 
d="M317 33h60q27 0 59.5 16.5t60.5 58t28 87.5v22q0 28 -12 61t-33 57q-19 -24 -45 -38.5t-53 -14.5q-31 0 -49.5 21t-18.5 47q0 27 20 47t48 20q22 0 46 -8t42 -20q10 21 10 50l1 59q0 51 -36 87t-85 36q-28 0 -56 -13.5t-47 -43.5t-19 -63l-1 -421q0 -33 -23 -56.5
t-56 -23.5q-31 0 -55.5 22t-24.5 57l1 447q0 41 21 77t55 51l14 -32q-24 -11 -39.5 -38t-15.5 -58l-1 -447q0 -20 14 -32t31 -12q19 0 32 13t13 32v421q0 31 15.5 66.5t54.5 62t87 26.5q64 0 109.5 -46.5t45.5 -111.5v-59q0 -39 -17 -73q29 -29 45.5 -69.5t16.5 -79.5v-22
q0 -27 -10 -59t-37 -66.5t-64.5 -53t-71.5 -18.5h-60v35zM349 350q0 -11 8 -22t25 -11q14 0 33.5 9t38.5 33q-34 23 -72 23q-11 0 -22 -8.5t-11 -23.5z" />
    <glyph glyph-name="agrave" unicode="&#xe0;" horiz-adv-x="581" 
d="M422 0l-16 31q31 16 45 46t14 80v136q0 47 -27 76t-63 31q-22 1 -43 -5q21 -21 33.5 -50t12.5 -60v-128q0 -64 -46 -110.5t-109 -46.5h-1q-59 0 -100.5 35.5t-41.5 87.5q0 62 37 97t101 35h28v-35h-28q-44 0 -73.5 -23t-29.5 -73q0 -17 10.5 -38t37.5 -36t60 -15
q49 0 84.5 36t35.5 86v128q0 26 -12.5 51.5t-33.5 43.5q-26 -18 -60 -57q-14 -19 -34.5 -28t-39.5 -9q-29 0 -50 18t-20 48q1 44 39 67.5t89 22.5q18 -1 40.5 -7t37.5 -15q36 16 77 15q34 -2 63.5 -22.5t45 -51t15.5 -68.5v-136q0 -66 -21.5 -102t-56.5 -55zM128 352
q0 -16 10.5 -25t23.5 -9q25 0 49 29q23 28 54 52q-22 8 -44 8q-42 0 -67.5 -15.5t-25.5 -39.5zM396 507l-13 -32l-190 73l13 33z" />
    <glyph glyph-name="aacute" unicode="&#xe1;" horiz-adv-x="581" 
d="M422 0l-16 31q31 16 45 46t14 80v136q0 47 -27 76t-63 31q-22 1 -43 -5q21 -21 33.5 -50t12.5 -60v-128q0 -64 -46 -110.5t-109 -46.5h-1q-59 0 -100.5 35.5t-41.5 87.5q0 62 37 97t101 35h28v-35h-28q-44 0 -73.5 -23t-29.5 -73q0 -17 10.5 -38t37.5 -36t60 -15
q49 0 84.5 36t35.5 86v128q0 26 -12.5 51.5t-33.5 43.5q-26 -18 -60 -57q-14 -19 -34.5 -28t-39.5 -9q-29 0 -50 18t-20 48q1 44 39 67.5t89 22.5q18 -1 40.5 -7t37.5 -15q36 16 77 15q34 -2 63.5 -22.5t45 -51t15.5 -68.5v-136q0 -66 -21.5 -102t-56.5 -55zM128 352
q0 -16 10.5 -25t23.5 -9q25 0 49 29q23 28 54 52q-22 8 -44 8q-42 0 -67.5 -15.5t-25.5 -39.5zM205 475l-13 32l190 74l13 -33z" />
    <glyph glyph-name="acircumflex" unicode="&#xe2;" horiz-adv-x="579" 
d="M128 352q0 -16 10.5 -25t23.5 -9q25 0 49 29q23 28 54 52q-22 8 -44 8q-42 0 -67.5 -15.5t-25.5 -39.5zM422 0l-16 31q31 16 45 46t14 80v136q0 47 -27 76t-63 31h-8q-17 0 -35 -5q21 -21 33.5 -50t12.5 -60v-128q0 -64 -46 -110.5t-109 -46.5h-1q-59 0 -100.5 35.5
t-41.5 87.5q0 62 37 97t101 35h28v-35h-28q-44 0 -73.5 -23t-29.5 -73q0 -17 10.5 -38t37.5 -36t60 -15q49 0 84.5 36t35.5 86v128q0 26 -12.5 51.5t-33.5 43.5q-26 -18 -60 -57q-14 -19 -34.5 -28t-39.5 -9q-28 0 -49 17t-21 47v2q1 43 37 66.5t87 23.5h4q18 -1 40.5 -7
t37.5 -15q33 15 71 15h6q34 -2 63.5 -22.5t45 -51t15.5 -68.5v-136q0 -66 -21.5 -102t-56.5 -55zM117 509l166 85l8 2l8 -2l166 -85l-16 -31l-158 81l-158 -81z" />
    <glyph glyph-name="atilde" unicode="&#xe3;" 
d="M218 255h28v-35h-28q-44 0 -73.5 -23t-29.5 -73q0 -17 10.5 -38t37.5 -36t60 -15q49 0 84.5 36t35.5 86v128q0 26 -12.5 51.5t-33.5 43.5q-26 -18 -60 -57q-14 -19 -34.5 -28t-39.5 -9q-29 0 -50 18t-20 48q1 44 39 67.5t89 22.5q18 -1 40.5 -7t37.5 -15q36 16 77 15
q34 -2 63.5 -22.5t45 -51t15.5 -68.5v-136q0 -66 -21.5 -102t-56.5 -55l-16 31q31 16 45 46t14 80v136q0 47 -27 76t-63 31q-22 1 -43 -5q21 -21 33.5 -50t12.5 -60v-128q0 -64 -46 -110.5t-109 -46.5h-1q-59 0 -100.5 35.5t-41.5 87.5q0 62 37 97t101 35zM370 486
q-35 0 -87 26q-52 25 -76 22q-12 -1 -27 -9t-24 -24l-32 15q10 19 31 35t47 19q12 1 31.5 -1.5t65.5 -24.5q50 -25 73 -22q17 2 31 11.5t20 21.5l33 -15q-10 -19 -34 -36.5t-52 -17.5zM128 352q0 -16 10.5 -25t23.5 -9q25 0 49 29q23 28 54 52q-22 8 -44 8
q-42 0 -67.5 -15.5t-25.5 -39.5z" />
    <glyph glyph-name="adieresis" unicode="&#xe4;" horiz-adv-x="581" 
d="M112 560q0 34 25 58.5t58 24.5q34 0 58.5 -24.5t24.5 -58.5t-24.5 -58.5t-58.5 -24.5q-33 0 -58 24.5t-25 58.5zM145 560q0 -21 14.5 -35.5t35.5 -14.5t36 14.5t15 35.5t-15 36t-36 15t-35.5 -15t-14.5 -36zM319 560q0 34 25 58.5t58 24.5q34 0 58.5 -24.5t24.5 -58.5
t-24.5 -58.5t-58.5 -24.5q-33 0 -58 24.5t-25 58.5zM352 560q0 -21 14.5 -35.5t35.5 -14.5t36 14.5t15 35.5t-15 36t-36 15t-35.5 -15t-14.5 -36zM128 352q0 -16 10.5 -25t23.5 -9q25 0 49 29q23 28 54 52q-22 8 -44 8q-42 0 -67.5 -15.5t-25.5 -39.5zM422 0l-16 31
q31 16 45 46t14 80v136q0 47 -27 76t-63 31h-8q-17 0 -35 -5q21 -21 33.5 -50t12.5 -60v-128q0 -64 -46 -110.5t-109 -46.5h-1q-59 0 -100.5 35.5t-41.5 87.5q0 62 37 97t101 35h28v-35h-28q-44 0 -73.5 -23t-29.5 -73q0 -17 10.5 -38t37.5 -36t60 -15q49 0 84.5 36t35.5 86
v128q0 26 -12.5 51.5t-33.5 43.5q-26 -18 -60 -57q-14 -19 -34.5 -28t-39.5 -9q-28 0 -49 17t-21 47v2q1 43 37 66.5t87 23.5h4q18 -1 40.5 -7t37.5 -15q33 15 71 15h6q34 -2 63.5 -22.5t45 -51t15.5 -68.5v-136q0 -66 -21.5 -102t-56.5 -55z" />
    <glyph glyph-name="aring" unicode="&#xe5;" horiz-adv-x="581" 
d="M422 0l-16 31q31 16 45 46t14 80v136q0 47 -27 76t-63 31q-22 1 -43 -5q21 -21 33.5 -50t12.5 -60v-128q0 -64 -46 -110.5t-109 -46.5h-1q-59 0 -100.5 35.5t-41.5 87.5q0 62 37 97t101 35h28v-35h-28q-44 0 -73.5 -23t-29.5 -73q0 -17 10.5 -38t37.5 -36t60 -15
q49 0 84.5 36t35.5 86v128q0 26 -12.5 51.5t-33.5 43.5q-26 -18 -60 -57q-14 -19 -34.5 -28t-39.5 -9q-29 0 -50 18t-20 48q1 44 39 67.5t89 22.5q18 -1 40.5 -7t37.5 -15q36 16 77 15q34 -2 63.5 -22.5t45 -51t15.5 -68.5v-136q0 -66 -21.5 -102t-56.5 -55zM215 561
q0 34 25 58.5t58 24.5q34 0 58.5 -24.5t24.5 -58.5t-24.5 -58.5t-58.5 -24.5q-33 0 -58 24.5t-25 58.5zM248 561q0 -21 14.5 -35.5t35.5 -14.5t36 14.5t15 35.5t-15 36t-36 15t-35.5 -15t-14.5 -36zM128 352q0 -16 10.5 -25t23.5 -9q25 0 49 29q23 28 54 52q-22 8 -44 8
q-42 0 -67.5 -15.5t-25.5 -39.5z" />
    <glyph glyph-name="ae" unicode="&#xe6;" horiz-adv-x="953" 
d="M735 192h-28v35h28q24 0 47 8t39 27.5t16 53.5v18q0 17 -10.5 38.5t-37.5 36.5t-59 15q-28 0 -55.5 -13t-45.5 -44t-18 -70v-144q0 -26 11.5 -51.5t32.5 -42.5q21 13 60 56l11 12q26 29 64 29q30 0 49.5 -21.5t19.5 -47.5q0 -23 -15 -43q-35 -47 -113 -47q-41 0 -78 21
q-33 -13 -76 -13q-36 0 -65 20.5t-44.5 51t-15.5 69.5l1 163q0 23 -10 48t-33 41.5t-48 17.5q-19 1 -42 -4q45 -47 45 -110l1 -145q0 -28 -8.5 -56t-31.5 -53.5t-55.5 -36.5t-59.5 -11q-41 0 -77.5 19t-51 47.5t-14.5 57.5v17q0 28 12 56.5t45.5 48t79.5 19.5h28v-34h-28
q-24 0 -47 -8t-39 -27.5t-16 -54.5v-17q0 -17 10.5 -38t37.5 -36t59 -15q24 0 52.5 11.5t48.5 42t20 68.5v145q0 25 -12.5 50.5t-33.5 43.5q-24 -17 -60 -56l-11 -12q-26 -29 -64 -29q-30 0 -49.5 21.5t-19.5 47.5q0 22 15 43q35 47 113 47q41 0 78 -21q37 17 77 14
q48 -2 86 -41.5t38 -100.5l-1 -163q0 -23 10 -48t33 -42t48 -18q20 0 42 5q-45 47 -45 110v149q0 32 10.5 57t27 45t47 36.5t70.5 16.5q28 0 61 -12t57 -43t24 -68v-18q0 -28 -12 -56.5t-45.5 -48t-79.5 -19.5zM741 92q-33 -37 -53 -52q23 -9 43 -9q62 0 85 34q8 9 8 22
q0 11 -9 23t-25 12q-22 0 -39 -19zM116 368q0 -11 9 -23t25 -12q22 0 39 19l10 11q33 37 53 52q-21 8 -43 8q-60 0 -85 -33q-8 -9 -8 -22z" />
    <glyph glyph-name="ccedilla" unicode="&#xe7;" horiz-adv-x="564" 
d="M174 34l-16 -31q-35 19 -52.5 48.5t-21.5 57.5t-4 51v133q0 43 18.5 75.5t49 50t66 18t67.5 -15.5q22 12 57.5 18.5t73.5 -5.5t59 -38q16 -21 16.5 -45t-20 -43.5t-46 -21.5t-42 6.5t-26.5 20.5q-48 53 -71 67q-20 -17 -32.5 -43t-12.5 -51v-125q-1 -32 15 -62
t52.5 -47.5t80 -9t71.5 44.5l28 -21q-15 -20 -41.5 -37.5t-62.5 -22t-77 9t-71.5 52.5t-29.5 93v125q0 31 12 60t33 50q-21 9 -44 6t-43 -16.5t-32.5 -37t-13.5 -54.5l1 -134q0 -49 14 -78.5t45 -47.5zM227 -65l-25 25q16 16 43 26.5t61 4t58 -31.5q16 -16 26.5 -43t3.5 -61
t-31 -58q-16 -16 -42.5 -26.5t-61 -3.5t-58.5 31l25 24q23 -23 56.5 -23.5t56.5 22.5t23.5 56.5t-22.5 56.5q-11 11 -29.5 19t-42.5 3.5t-41 -21.5zM444 375q-13 16 -32.5 25t-47.5 9.5t-49 -9.5q21 -16 64 -64q12 -14 28 -16t28.5 6t16 22t-7.5 27z" />
    <glyph glyph-name="egrave" unicode="&#xe8;" horiz-adv-x="581" 
d="M334 175v35h28q43 -1 73 21.5t30 70.5q0 47 -34 72t-80 21t-73 -29t-34 -48t-7 -43v-125q0 -26 12 -51t33 -43q23 14 71 67q10 12 30.5 22.5t49.5 3.5t43 -25.5t13 -40t-18 -42.5q-14 -17 -43.5 -32.5t-71.5 -15.5t-75 22q-36 -16 -77 -15q-22 1 -50 14.5t-51 47.5
t-23 81v133q0 66 21.5 102t55.5 55l17 -31q-31 -17 -45 -46.5t-14 -79.5v-133q0 -48 27 -77t63 -31q17 -1 43 5q-21 21 -33.5 50t-12.5 60v125q0 59 34.5 98t82 50.5t88.5 0.5t67 -42.5t26 -81.5q0 -45 -21.5 -75t-54.5 -40t-62 -10h-28zM376 95q-35 -40 -61 -58
q12 -7 35.5 -9.5t52 7.5t41.5 26q9 11 9 24t-11 23t-30.5 9.5t-35.5 -22.5zM398 509l-13 -32l-190 73l13 33z" />
    <glyph glyph-name="eacute" unicode="&#xe9;" horiz-adv-x="581" 
d="M334 175v35h28q43 -1 73 21.5t30 70.5q0 47 -34 72t-80 21t-73 -29t-34 -48t-7 -43v-125q0 -26 12 -51t33 -43q23 14 71 67q10 12 30.5 22.5t49.5 3.5t43 -25.5t13 -40t-18 -42.5q-14 -17 -43.5 -32.5t-71.5 -15.5t-75 22q-36 -16 -77 -15q-22 1 -50 14.5t-51 47.5
t-23 81v133q0 66 21.5 102t55.5 55l17 -31q-31 -17 -45 -46.5t-14 -79.5v-133q0 -48 27 -77t63 -31q17 -1 43 5q-21 21 -33.5 50t-12.5 60v125q0 59 34.5 98t82 50.5t88.5 0.5t67 -42.5t26 -81.5q0 -45 -21.5 -75t-54.5 -40t-62 -10h-28zM376 95q-35 -40 -61 -58
q12 -7 35.5 -9.5t52 7.5t41.5 26q9 11 9 24t-11 23t-30.5 9.5t-35.5 -22.5zM207 479l-13 32l190 74l13 -33z" />
    <glyph glyph-name="ecircumflex" unicode="&#xea;" horiz-adv-x="581" 
d="M334 175v35h28q43 -1 73 21.5t30 70.5q0 47 -34 72t-80 21t-73 -29t-34 -48t-7 -43v-125q0 -26 12 -51t33 -43q23 14 71 67q10 12 30.5 22.5t49.5 3.5t43 -25.5t13 -40t-18 -42.5q-14 -17 -43.5 -32.5t-71.5 -15.5t-75 22q-36 -16 -77 -15q-22 1 -50 14.5t-51 47.5
t-23 81v133q0 66 21.5 102t55.5 55l17 -31q-31 -17 -45 -46.5t-14 -79.5v-133q0 -48 27 -77t63 -31q17 -1 43 5q-21 21 -33.5 50t-12.5 60v125q0 59 34.5 98t82 50.5t88.5 0.5t67 -42.5t26 -81.5q0 -45 -21.5 -75t-54.5 -40t-62 -10h-28zM467 509l-16 -31l-158 81l-158 -81
l-16 31l166 85q8 3 16 0zM376 95q-35 -40 -61 -58q12 -7 35.5 -9.5t52 7.5t41.5 26q9 11 9 24t-11 23t-30.5 9.5t-35.5 -22.5z" />
    <glyph glyph-name="edieresis" unicode="&#xeb;" horiz-adv-x="581" 
d="M334 175v35h28q43 -1 73 21.5t30 70.5q0 47 -34 72t-80 21t-73 -29t-34 -48t-7 -43v-125q0 -26 12 -51t33 -43q23 14 71 67q10 12 30.5 22.5t49.5 3.5t43 -25.5t13 -40t-18 -42.5q-14 -17 -43.5 -32.5t-71.5 -15.5t-75 22q-36 -16 -77 -15q-22 1 -50 14.5t-51 47.5
t-23 81v133q0 66 21.5 102t55.5 55l17 -31q-31 -17 -45 -46.5t-14 -79.5v-133q0 -48 27 -77t63 -31q17 -1 43 5q-21 21 -33.5 50t-12.5 60v125q0 59 34.5 98t82 50.5t88.5 0.5t67 -42.5t26 -81.5q0 -45 -21.5 -75t-54.5 -40t-62 -10h-28zM341 560q0 34 25 58.5t58 24.5
q34 0 58.5 -24.5t24.5 -58.5t-24.5 -58.5t-58.5 -24.5q-33 0 -58 24.5t-25 58.5zM85 560q0 34 25 58.5t58 24.5q34 0 58.5 -24.5t24.5 -58.5t-24.5 -58.5t-58.5 -24.5q-33 0 -58 24.5t-25 58.5zM118 560q0 -21 14.5 -35.5t35.5 -14.5t36 14.5t15 35.5t-15 36t-36 15
t-35.5 -15t-14.5 -36zM374 560q0 -21 14.5 -35.5t35.5 -14.5t36 14.5t15 35.5t-15 36t-36 15t-35.5 -15t-14.5 -36zM376 95q-35 -40 -61 -58q12 -7 35.5 -9.5t52 7.5t41.5 26q9 11 9 24t-11 23t-30.5 9.5t-35.5 -22.5z" />
    <glyph glyph-name="igrave" unicode="&#xec;" horiz-adv-x="307" 
d="M191 351h35v-280q0 -30 -21.5 -51.5t-51.5 -21.5q-29 0 -50.5 21.5t-21.5 51.5v296q0 30 21.5 51.5t51.5 21.5v-35q-15 0 -27 -11t-12 -27v-296q0 -16 11 -27t27 -11t27 11t11 27v280zM263 508l-13 -32l-190 73l13 33z" />
    <glyph glyph-name="iacute" unicode="&#xed;" horiz-adv-x="307" 
d="M226 351h-35v-280q0 -16 -11 -27t-27 -11t-27 11t-11 27v296q0 16 12 27t27 11v35q-30 0 -51.5 -21.5t-21.5 -51.5v-296q0 -30 21.5 -51.5t50.5 -21.5q30 0 51.5 21.5t21.5 51.5v280zM72 476l-13 32l190 74l13 -33z" />
    <glyph glyph-name="icircumflex" unicode="&#xee;" horiz-adv-x="307" 
d="M276 510l-16 -31l-105 53l-109 -55l-16 31l117 59q8 3 16 0zM191 351h35v-280q0 -30 -21.5 -51.5t-51.5 -21.5q-29 0 -50.5 21.5t-21.5 51.5v296q0 30 21.5 51.5t51.5 21.5v-35q-15 0 -27 -11t-12 -27v-296q0 -16 11 -27t27 -11t27 11t11 27v280z" />
    <glyph glyph-name="idieresis" unicode="&#xef;" horiz-adv-x="367" 
d="M1 561q0 34 25 58.5t58 24.5q34 0 58.5 -24.5t24.5 -58.5t-24.5 -58.5t-58.5 -24.5q-33 0 -58 24.5t-25 58.5zM34 561q0 -21 14.5 -35.5t35.5 -14.5t36 14.5t15 35.5t-15 36t-36 15t-35.5 -15t-14.5 -36zM200 561q0 34 25 58.5t58 24.5q34 0 58.5 -24.5t24.5 -58.5
t-24.5 -58.5t-58.5 -24.5q-33 0 -58 24.5t-25 58.5zM233 561q0 -21 14.5 -35.5t35.5 -14.5t36 14.5t15 35.5t-15 36t-36 15t-35.5 -15t-14.5 -36zM255 351h-35v-280q0 -16 -11 -27t-27 -11t-27 11t-11 27v296q0 16 12 27t27 11v35q-30 0 -51.5 -21.5t-21.5 -51.5v-296
q0 -30 21.5 -51.5t50.5 -21.5q30 0 51.5 21.5t21.5 51.5v280z" />
    <glyph glyph-name="eth" unicode="&#xf0;" horiz-adv-x="638" 
d="M291 440v-34h-54q-28 0 -56 -14t-47 -45t-19 -64v-126q0 -23 12 -51.5t42.5 -49.5t66.5 -21q28 0 56 13.5t47 43.5t19 62v258q0 31 -4 41.5t-12 21.5t-10 14l-59 73q-21 26 -18 59q3 32 29 52q24 20 57 17.5t55 -29.5l50 -63q19 -24 33 -34t34 -10h76v-35h-76
q-24 0 -45 11.5t-50 47.5l-49 61q-13 16 -31.5 17t-31.5 -10q-14 -10 -16 -29q-3 -17 10 -33l59 -77q2 -2 9.5 -12t12.5 -19t8 -20.5t3.5 -22.5t0.5 -21v-258q0 -31 -15.5 -66.5t-54.5 -61.5t-87 -26q-64 0 -109.5 46t-45.5 111v126q0 65 46 111t110 46h54zM481 440h34v-309
q0 -30 -10.5 -60t-28.5 -47.5t-35 -23.5q-6 -2 -13 1.5t-9 9.5t1.5 13t9.5 9q11 4 23 17t19.5 36t7.5 46z" />
    <glyph glyph-name="ntilde" unicode="&#xf1;" horiz-adv-x="542" 
d="M461 0h-35v312q0 21 -9.5 43t-33 35.5t-51 13.5t-51 -13t-33.5 -35.5t-10 -43.5v-236q0 -17 -8.5 -35t-28 -29t-42.5 -11t-42.5 11t-28 29t-8.5 35l1 273q0 20 9 41.5t31 35t47 13.5v-35q-21 0 -37 -14.5t-16 -40.5v-273q0 -15 9 -27t29 -15t35 9.5t15 32.5v236
q0 45 23 75t58.5 42.5t76.5 5.5t70.5 -39t29.5 -84v-312zM351 486q-35 0 -87 26q-52 25 -76 22q-12 -1 -27 -9t-24 -24l-32 15q10 19 31 35t47 19q12 1 31.5 -1.5t65.5 -24.5q50 -25 73 -22q17 2 31 11.5t20 21.5l33 -15q-10 -19 -34 -36.5t-52 -17.5z" />
    <glyph glyph-name="ograve" unicode="&#xf2;" horiz-adv-x="552" 
d="M161 450l9 -34q-10 -2 -23 -12.5t-22.5 -31t-9.5 -41.5v-157q0 -59 47 -99t116 -40q68 0 114 40t46 99l-1 132q0 58 -36 87t-79 21t-63.5 -39t-20.5 -70v-142h-35v142q0 51 27.5 90.5t80 49t92.5 -13.5t54.5 -57t14.5 -68v-132q0 -27 -10 -56.5t-36.5 -58.5t-67 -44
t-80.5 -15q-52 0 -99.5 22.5t-73 64.5t-25.5 87v157q0 41 24 76.5t57 42.5zM374 478l-190 73l13 33l190 -74z" />
    <glyph glyph-name="oacute" unicode="&#xf3;" horiz-adv-x="552" 
d="M386 549l-190 -73l-13 32l190 74zM170 416l-9 34q-33 -7 -57 -42.5t-24 -76.5v-157q0 -45 25.5 -87t73 -64.5t99.5 -22.5q30 0 63 9t62 30t49 55.5t20 79.5v132q0 34 -14.5 68t-54.5 57t-92.5 13.5t-80 -49t-27.5 -90.5v-142h35v142q0 39 20.5 70t63.5 39t79 -21t36 -87
l1 -132q0 -59 -46 -99t-114 -40q-69 0 -116 40t-47 99v157q0 13 5.5 31.5t19.5 34t30 19.5z" />
    <glyph glyph-name="ocircumflex" unicode="&#xf4;" horiz-adv-x="552" 
d="M124 478l-16 31l166 85q8 3 16 0l166 -85l-16 -31l-158 81zM170 416l-9 34q-33 -7 -57 -42.5t-24 -76.5v-157q0 -45 25.5 -87t73 -64.5t99.5 -22.5q30 0 63 9t62 30t49 55.5t20 79.5v132q0 34 -14.5 68t-54.5 57t-92.5 13.5t-80 -49t-27.5 -90.5v-142h35v142
q0 39 20.5 70t63.5 39t79 -21t36 -87l1 -132q0 -59 -46 -99t-114 -40q-69 0 -116 40t-47 99v157q0 13 5.5 31.5t19.5 34t30 19.5z" />
    <glyph glyph-name="otilde" unicode="&#xf5;" horiz-adv-x="542" 
d="M161 450l9 -34q-10 -2 -23 -12.5t-22.5 -31t-9.5 -41.5v-157q0 -59 47 -99t116 -40q68 0 114 40t46 99l-1 132q0 58 -36 87t-79 21t-63.5 -39t-20.5 -70v-142h-35v142q0 51 27.5 90.5t80 49t92.5 -13.5t54.5 -57t14.5 -68v-132q0 -27 -10 -56.5t-36.5 -58.5t-67 -44
t-80.5 -15q-52 0 -99.5 22.5t-73 64.5t-25.5 87v157q0 41 24 76.5t57 42.5zM351 486q-35 0 -87 26q-52 25 -76 22q-12 -1 -27 -9t-24 -24l-32 15q10 19 31 35t47 19q12 1 31.5 -1.5t65.5 -24.5q50 -25 73 -22q17 2 31 11.5t20 21.5l33 -15q-10 -19 -34 -36.5t-52 -17.5z" />
    <glyph glyph-name="odieresis" unicode="&#xf6;" horiz-adv-x="552" 
d="M68 561q0 34 25 58.5t58 24.5q34 0 58.5 -24.5t24.5 -58.5t-24.5 -58.5t-58.5 -24.5q-33 0 -58 24.5t-25 58.5zM101 561q0 -21 14.5 -35.5t35.5 -14.5t36 14.5t15 35.5t-15 36t-36 15t-35.5 -15t-14.5 -36zM324 561q0 34 25 58.5t58 24.5q34 0 58.5 -24.5t24.5 -58.5
t-24.5 -58.5t-58.5 -24.5q-33 0 -58 24.5t-25 58.5zM357 561q0 -21 14.5 -35.5t35.5 -14.5t36 14.5t15 35.5t-15 36t-36 15t-35.5 -15t-14.5 -36zM170 416l-9 34q-33 -7 -57 -42.5t-24 -76.5v-157q0 -45 25.5 -87t73 -64.5t99.5 -22.5q30 0 63 9t62 30t49 55.5t20 79.5v132
q0 34 -14.5 68t-54.5 57t-92.5 13.5t-80 -49t-27.5 -90.5v-142h35v142q0 39 20.5 70t63.5 39t79 -21t36 -87l1 -132q0 -59 -46 -99t-114 -40q-69 0 -116 40t-47 99v157q0 13 5.5 31.5t19.5 34t30 19.5z" />
    <glyph glyph-name="divide" unicode="&#xf7;" horiz-adv-x="770" 
d="M301 84q0 16 8.5 36t29.5 34t46 14q35 0 59.5 -24.5t24.5 -59.5q0 -16 -8 -35.5t-29.5 -34t-46.5 -14.5q-34 0 -59 25t-25 59zM336 84q0 -20 14.5 -34.5t34.5 -14.5t35 14.5t15 34.5t-15 35t-35 15t-34.5 -15t-14.5 -35zM153 211h448v35h-448q-16 0 -27 11t-11 27t11 27
t27 11h464q16 0 27 -12t11 -27h35q0 30 -21.5 51.5t-51.5 21.5h-464q-30 0 -51.5 -21.5t-21.5 -50.5q0 -30 21.5 -51.5t51.5 -21.5zM302 487q0 33 24.5 58t58.5 25t58.5 -25t24.5 -58q0 -34 -24.5 -58.5t-58.5 -24.5t-58.5 24.5t-24.5 58.5zM334 487q0 -21 15 -36t36 -15
t36 15t15 36t-15 35.5t-36 14.5t-36 -14.5t-15 -35.5z" />
    <glyph glyph-name="oslash" unicode="&#xf8;" horiz-adv-x="544" 
d="M206 -55l-39 -84l-32 15l40 83q14 32 34 47t57 15q38 0 69 15t52 39t31.5 53t10.5 52v88q0 43 -29 82l-60 -127q-29 -61 -59.5 -88.5t-80.5 -27.5q-34 0 -64 19.5t-42.5 51t-12.5 64.5v26q0 27 10 56.5t33.5 56t61 45t85.5 18.5q30 0 62 -10t56 -27l36 78l32 -14l-41 -88
q48 -50 48 -115v-88q0 -48 -26 -93.5t-69.5 -73t-102.5 -27.5q-20 0 -33 -6t-27 -35zM116 268v-26q0 -36 15 -60t34.5 -32t34.5 -8q37 0 59 20t49 76l65 137q-20 15 -47.5 25t-54.5 10q-65 0 -110 -41.5t-45 -100.5z" />
    <glyph glyph-name="ugrave" unicode="&#xf9;" horiz-adv-x="579" 
d="M425 1l-8 34q45 11 45 75l1 252q0 15 -9 27.5t-29 16t-35 -9.5t-15 -33l-1 -213q0 -26 -9.5 -56t-38 -55.5t-71 -33t-83 7t-66.5 50.5t-26 89v278h35v-278q0 -39 20 -67t50.5 -39.5t63 -6.5t54.5 25t29 43t7 43l1 213q0 27 16.5 48.5t47.5 26.5t54 -8t31.5 -31.5
t8.5 -36.5l-1 -252q0 -44 -18.5 -73t-53.5 -36zM368 507l-13 -32l-190 73l13 33z" />
    <glyph glyph-name="uacute" unicode="&#xfa;" horiz-adv-x="578" 
d="M425 1l-8 34q45 11 45 75l1 252q0 15 -9 27.5t-29 16t-35 -9.5t-15 -33l-1 -213q0 -26 -9.5 -56t-38 -55.5t-71 -33t-83 7t-66.5 50.5t-26 89v278h35v-278q0 -39 20 -67t50.5 -39.5t63 -6.5t54.5 25t29 43t7 43l1 213q0 27 16.5 48.5t47.5 26.5t54 -8t31.5 -31.5
t8.5 -36.5l-1 -252q0 -44 -18.5 -73t-53.5 -36zM200 475l-13 32l190 74l13 -33z" />
    <glyph glyph-name="ucircumflex" unicode="&#xfb;" horiz-adv-x="581" 
d="M80 423h35v-271q0 -39 20 -67t50.5 -39.5t63 -6.5t54.5 25t29 43t7 43l1 212q0 27 16.5 48.5t47.5 26.5t54 -8t31.5 -31.5t8.5 -36.5l-1 -251q0 -44 -18.5 -73t-53.5 -36l-8 34q45 11 45 75l1 251q0 15 -9 27.5t-29 16t-35 -9.5t-15 -33l-1 -212q0 -26 -9.5 -56
t-38 -55.5t-71 -33t-83 7t-66.5 50.5t-26 89v271zM290 594l166 -85l-16 -31l-158 81l-158 -81l-16 31l166 85q8 3 16 0z" />
    <glyph glyph-name="udieresis" unicode="&#xfc;" horiz-adv-x="579" 
d="M80 423h35v-271q0 -39 20 -67t50.5 -39.5t63 -6.5t54.5 25t29 43t7 43l1 212q0 27 16.5 48.5t47.5 26.5t54 -8t31.5 -31.5t8.5 -36.5l-1 -251q0 -44 -18.5 -73t-53.5 -36l-8 34q45 11 45 75l1 251q0 15 -9 27.5t-29 16t-35 -9.5t-15 -33l-1 -212q0 -26 -9.5 -56
t-38 -55.5t-71 -33t-83 7t-66.5 50.5t-26 89v271zM74 560q0 34 25 58.5t58 24.5q34 0 58.5 -24.5t24.5 -58.5t-24.5 -58.5t-58.5 -24.5q-33 0 -58 24.5t-25 58.5zM330 560q0 34 25 58.5t58 24.5q34 0 58.5 -24.5t24.5 -58.5t-24.5 -58.5t-58.5 -24.5q-33 0 -58 24.5
t-25 58.5zM363 560q0 -21 14.5 -35.5t35.5 -14.5t36 14.5t15 35.5t-15 36t-36 15t-35.5 -15t-14.5 -36zM107 560q0 -21 14.5 -35.5t35.5 -14.5t36 14.5t15 35.5t-15 36t-36 15t-35.5 -15t-14.5 -36z" />
    <glyph glyph-name="yacute" unicode="&#xfd;" horiz-adv-x="529" 
d="M339 128h-35v235q0 27 14 45.5t39 27t50.5 0t39.5 -27t14 -45.5v-349q-1 -59 -30.5 -91.5t-83.5 -35.5q-2 -33 -22 -63t-45 -42t-45 -12q-35 0 -56.5 22.5t-22.5 49t10 45t30.5 26.5t38.5 8l78 -1v51v11t-1 19t-5.5 11.5t-11 2.5t-23.5 -4q-38 -9 -62 -9q-64 0 -100.5 42
t-36.5 117v279h35v-279q0 -57 25 -90.5t77 -33.5q22 0 54 8q44 11 65 -6t19 -68v-49q40 4 59 26.5t19 65.5l1 349q0 20 -13 31.5t-31 11.5t-31 -11.5t-13 -31.5v-235zM235 -196q27 0 50.5 25t26.5 56l-77 1q-18 0 -28.5 -11.5t-12 -28t9.5 -29t31 -13.5zM364 546l-190 -73
l-13 32l190 74z" />
    <glyph glyph-name="thorn" unicode="&#xfe;" horiz-adv-x="607" 
d="M242 333v-174h-34l-1 174q0 31 15.5 57.5t39.5 38.5t49 12h24q38 0 73 -16.5t62 -45.5t42 -67.5t15 -79.5q0 -42 -15 -89t-46.5 -81t-65 -47t-65.5 -13h-45q-21 0 -34 -14t-13 -31l1 -154q0 -16 -9.5 -34.5t-31.5 -31.5t-44 -13q-32 0 -55.5 23.5t-23.5 55.5v729
q0 31 24 54.5t56 23.5q14 0 33 -7.5t34 -27t15 -43.5l1 -68h-34l-1 68q0 18 -15 30.5t-33 12.5t-31.5 -13t-13.5 -30v-729q0 -18 13 -31t31 -13t34 13t16 31v154q0 22 12.5 42t32 28.5t36.5 8.5h45q26 0 54 11t53.5 40t38 69t12.5 76q0 34 -16 74t-55.5 70t-86.5 30h-24
q-18 0 -35 -9t-25.5 -28t-8.5 -36z" />
    <glyph glyph-name="ydieresis" unicode="&#xff;" horiz-adv-x="549" 
d="M346 128h-35v233q0 27 14 45.5t39 27t50.5 0t39.5 -27t14 -45.5v-347q-1 -59 -30.5 -91.5t-83.5 -35.5q-2 -33 -22 -63t-45 -42t-45 -12q-35 0 -56.5 22.5t-22.5 49t10 45t30.5 26.5t38.5 8l78 -1v51v11t-1 19t-5.5 11.5t-11 2.5t-23.5 -4q-38 -9 -62 -9q-64 0 -100.5 42
t-36.5 117v267h35v-267q0 -57 25 -90.5t77 -33.5q22 0 54 8q44 11 65 -6t19 -68v-49q40 4 59 26.5t19 65.5l1 347q0 20 -13 31.5t-31 11.5t-31 -11.5t-13 -31.5v-233zM303 557q0 34 25 58.5t58 24.5q34 0 58.5 -24.5t24.5 -58.5t-24.5 -58.5t-58.5 -24.5q-33 0 -58 24.5
t-25 58.5zM76 557q0 34 25 58.5t58 24.5q34 0 58.5 -24.5t24.5 -58.5t-24.5 -58.5t-58.5 -24.5q-33 0 -58 24.5t-25 58.5zM109 557q0 -21 14.5 -35.5t35.5 -14.5t36 14.5t15 35.5t-15 36t-36 15t-35.5 -15t-14.5 -36zM336 557q0 -21 14.5 -35.5t35.5 -14.5t36 14.5t15 35.5
t-15 36t-36 15t-35.5 -15t-14.5 -36zM243 -198q27 0 50.5 25t26.5 56l-77 1q-18 0 -28.5 -11.5t-12 -28t9.5 -29t31 -13.5z" />
    <glyph glyph-name="Amacron" unicode="&#x100;" horiz-adv-x="783" 
d="M359 350h108v-34h-108q-15 0 -29 7t-19 23.5t1 36.5l77 247q7 24 25 38t42 14q52 0 70 -54l172 -525q10 -32 -5 -62.5t-46 -39.5q-32 -9 -61 6t-39 46l-36 107q-6 16 -18 23.5t-31 7.5h-142q-19 0 -31 -7.5t-18 -23.5l-35 -106q-10 -31 -39 -45.5t-62 -6.5
q-17 4 -32.5 17.5t-20.5 37t2 47.5q12 36 73 235t72 235q29 98 93 125l14 -32q-49 -21 -73 -103q-10 -33 -71.5 -232.5t-74.5 -238.5q-6 -20 2 -36.5t25 -21.5q18 -6 35.5 3t23.5 27l35 106q9 26 30.5 40t51.5 14h142q30 0 52 -14t30 -40l36 -107q6 -18 22.5 -26.5
t34.5 -3.5q19 6 27 22t1 36l-173 525q-4 13 -12 21.5t-24 8.5q-12 0 -21 -7.5t-13 -20.5l-77 -246q-6 -23 14 -23zM259 801h269v-36h-269v36z" />
    <glyph glyph-name="amacron" unicode="&#x101;" 
d="M218 255h28v-35h-28q-44 0 -73.5 -23t-29.5 -73q0 -17 10.5 -38t37.5 -36t60 -15q49 0 84.5 36t35.5 86v128q0 26 -12.5 51.5t-33.5 43.5q-26 -18 -60 -57q-14 -19 -34.5 -28t-39.5 -9q-29 0 -50 18t-20 48q1 44 39 67.5t89 22.5q18 -1 40.5 -7t37.5 -15q36 16 77 15
q34 -2 63.5 -22.5t45 -51t15.5 -68.5v-136q0 -66 -21.5 -102t-56.5 -55l-16 31q31 16 45 46t14 80v136q0 47 -27 76t-63 31q-22 1 -43 -5q21 -21 33.5 -50t12.5 -60v-128q0 -64 -46 -110.5t-109 -46.5h-1q-59 0 -100.5 35.5t-41.5 87.5q0 62 37 97t101 35zM158 536h269v-36
h-269v36zM128 352q0 -16 10.5 -25t23.5 -9q25 0 49 29q23 28 54 52q-22 8 -44 8q-42 0 -67.5 -15.5t-25.5 -39.5z" />
    <glyph glyph-name="Abreve" unicode="&#x102;" horiz-adv-x="783" 
d="M359 350h108v-34h-108q-15 0 -29 7t-19 23.5t1 36.5l77 247q7 24 25 38t42 14q52 0 70 -54l172 -525q10 -32 -5 -62.5t-46 -39.5q-32 -9 -61 6t-39 46l-36 107q-6 16 -18 23.5t-31 7.5h-142q-19 0 -31 -7.5t-18 -23.5l-35 -106q-10 -31 -39 -45.5t-62 -6.5
q-17 4 -32.5 17.5t-20.5 37t2 47.5q12 36 73 235t72 235q29 98 93 125l14 -32q-49 -21 -73 -103q-10 -33 -71.5 -232.5t-74.5 -238.5q-6 -20 2 -36.5t25 -21.5q18 -6 35.5 3t23.5 27l35 106q9 26 30.5 40t51.5 14h142q30 0 52 -14t30 -40l36 -107q6 -18 22.5 -26.5
t34.5 -3.5q19 6 27 22t1 36l-173 525q-4 13 -12 21.5t-24 8.5q-12 0 -21 -7.5t-13 -20.5l-77 -246q-6 -23 14 -23zM391 747q-30 0 -55.5 14t-44 41t-18.5 63h36q0 -33 24.5 -57.5t57.5 -24.5q34 0 58 24.5t24 57.5h36q0 -30 -14 -55.5t-41 -44t-63 -18.5z" />
    <glyph glyph-name="abreve" unicode="&#x103;" 
d="M218 255h28v-35h-28q-44 0 -73.5 -23t-29.5 -73q0 -17 10.5 -38t37.5 -36t60 -15q49 0 84.5 36t35.5 86v128q0 26 -12.5 51.5t-33.5 43.5q-26 -18 -60 -57q-14 -19 -34.5 -28t-39.5 -9q-29 0 -50 18t-20 48q1 44 39 67.5t89 22.5q18 -1 40.5 -7t37.5 -15q36 16 77 15
q34 -2 63.5 -22.5t45 -51t15.5 -68.5v-136q0 -66 -21.5 -102t-56.5 -55l-16 31q31 16 45 46t14 80v136q0 47 -27 76t-63 31q-22 1 -43 -5q21 -21 33.5 -50t12.5 -60v-128q0 -64 -46 -110.5t-109 -46.5h-1q-59 0 -100.5 35.5t-41.5 87.5q0 62 37 97t101 35zM290 482
q-30 0 -55.5 14t-44 41t-18.5 63h36q0 -33 24.5 -57.5t57.5 -24.5q34 0 58 24.5t24 57.5h36q0 -30 -14 -55.5t-41 -44t-63 -18.5zM128 352q0 -16 10.5 -25t23.5 -9q25 0 49 29q23 28 54 52q-22 8 -44 8q-42 0 -67.5 -15.5t-25.5 -39.5z" />
    <glyph glyph-name="Aogonek" unicode="&#x104;" horiz-adv-x="783" 
d="M704 -118q13 -16 13 -37t-13 -37q-21 -24 -62 -24q-33 0 -61 20q-35 26 -40 73q-2 21 5 44.5t21 43.5q5 7 16.5 19t19.5 19q-15 7 -28 20t-18 29l-36 108q-10 30 -49 30h-142q-39 0 -49 -30l-35 -107q-9 -25 -30.5 -40t-47.5 -15q-11 0 -23 3q-27 7 -41.5 27t-14.5 45
q0 13 5 30q12 36 73 235t72 235q29 98 93 125l14 -32q-49 -21 -73 -103q-10 -33 -71.5 -232.5t-74.5 -238.5q-3 -9 -3 -17q0 -14 8.5 -25.5t21.5 -15.5q5 -2 14 -2q14 0 27.5 9.5t17.5 22.5l35 106q9 26 30.5 40t51.5 14h142q30 0 52 -14t30 -40l36 -107q4 -13 16.5 -22
t26.5 -9q9 0 14 2q13 3 22 15t9 25q0 8 -3 17l-173 525q-4 13 -12 21.5t-24 8.5q-12 0 -21 -7.5t-13 -20.5l-77 -246l-2 -10q0 -13 16 -13h108v-34h-112q-22 0 -34 13t-12 32q0 12 3 22l77 247q7 24 25 38t42 14q52 0 70 -54l172 -525q5 -15 5 -27q0 -20 -13 -40.5
t-38 -33.5q-23 -12 -46 -33t-32.5 -44.5t-7.5 -43.5q2 -16 11 -31t25 -22.5t30 -7.5q6 0 17 1t18 10q5 6 5.5 14.5t-5.5 15.5q-2 2 -7.5 5.5t-26.5 3.5v35q19 0 34 -3.5t27 -18.5z" />
    <glyph glyph-name="aogonek" unicode="&#x105;" 
d="M424 2q-47 -28 -67 -59.5t-17 -61.5q2 -16 11 -31t25 -22.5t30 -7.5q6 0 16.5 1t18.5 10q5 5 5 14t-5 16q-2 2 -7.5 5.5t-26.5 3.5v35q19 0 34 -3.5t27 -18.5q13 -16 13 -37t-13 -37q-21 -24 -62 -24q-15 0 -32 5.5t-29 14.5q-35 26 -40 73q-4 45 25 88q27 37 77 66
q57 33 57 125v136q0 47 -27 76t-63 31h-8q-17 0 -35 -5q21 -21 33.5 -50t12.5 -60v-128q0 -64 -46 -110.5t-110 -46.5q-59 0 -100.5 35.5t-41.5 87.5q0 62 37 97t101 35h28v-35h-28q-44 0 -73.5 -23t-29.5 -73q0 -17 10.5 -38t37.5 -36t60 -15q49 0 84.5 36t35.5 86v128
q0 26 -12.5 51.5t-33.5 43.5q-26 -18 -60 -57q-14 -19 -34.5 -28t-39.5 -9q-29 0 -49.5 17.5t-20.5 48.5q1 43 37 66.5t87 23.5h4q18 -1 40.5 -7t37.5 -15q33 15 71 15h6q34 -2 63.5 -22.5t45 -51t15.5 -68.5v-136q0 -111 -75 -155zM210 347q23 28 54 52q-22 8 -44 8
q-42 0 -67.5 -15.5t-25.5 -39.5q0 -16 10.5 -25t23.5 -9q25 0 49 29z" />
    <glyph glyph-name="Cacute" unicode="&#x106;" horiz-adv-x="720" 
d="M209 38l-8 -33q-55 12 -86.5 61.5t-31.5 97.5l-1 297q0 42 16 83.5t46 74t72 51.5t92 19q24 0 49 -5q41 13 80 13q52 0 102.5 -22t79.5 -57q16 -17 19.5 -41.5t-8 -41.5t-30.5 -24q-32 -13 -66 2t-63 56q-42 60 -111 78q-25 -10 -53.5 -32.5t-47.5 -63t-19 -85.5v-238
q0 -48 25.5 -95t72 -72.5t94.5 -25.5q50 0 92.5 23t67.5 63l29 -19q-23 -35 -57 -59.5t-69 -33.5t-63 -9q-34 0 -72 12t-76.5 44t-58.5 79t-20 93v238q0 58 25.5 107.5t68.5 80.5q-30 -1 -61.5 -13t-58 -37.5t-44.5 -62.5t-18 -80l1 -292q0 -38 25.5 -79.5t65.5 -51.5z
M437 662l-16 -1q45 -26 79 -73q44 -61 87 -45q18 8 18.5 23.5t-12.5 29.5q-23 27 -65.5 46.5t-90.5 19.5zM264 752l-8 34l198 47l8 -34z" />
    <glyph glyph-name="cacute" unicode="&#x107;" horiz-adv-x="558" 
d="M174 34l-16 -31q-35 19 -52.5 48.5t-21.5 57.5t-4 51v133q0 43 18.5 75.5t49 50t66 18t67.5 -15.5q22 12 57.5 18.5t73.5 -5.5t59 -38q16 -21 16.5 -45t-20 -43.5t-46 -21.5t-42 6.5t-26.5 20.5q-48 53 -71 67q-20 -17 -32.5 -43t-12.5 -51v-125q-1 -32 15 -62
t52.5 -47.5t80 -9t71.5 44.5l28 -21q-15 -20 -41.5 -37.5t-62.5 -22t-77 9t-71.5 52.5t-29.5 93v125q0 31 12 60t33 50q-21 9 -44 6t-43 -16.5t-32.5 -37t-13.5 -54.5l1 -134q0 -49 14 -78.5t45 -47.5zM444 375q-13 16 -32.5 25t-47.5 9.5t-49 -9.5q21 -16 64 -64
q12 -14 28 -16t28.5 6t16 22t-7.5 27zM183 487l-8 34l198 47l8 -34z" />
    <glyph glyph-name="Ccircumflex" unicode="&#x108;" horiz-adv-x="720" 
d="M209 38l-8 -33q-55 12 -86.5 61.5t-31.5 97.5l-1 297q0 42 16 83.5t46 74t72 51.5t92 19q24 0 49 -5q41 13 80 13q52 0 102.5 -22t79.5 -57q16 -17 19.5 -41.5t-8 -41.5t-30.5 -24q-32 -13 -66 2t-63 56q-42 60 -111 78q-25 -10 -53.5 -32.5t-47.5 -63t-19 -85.5v-238
q0 -48 25.5 -95t72 -72.5t94.5 -25.5q50 0 92.5 23t67.5 63l29 -19q-23 -35 -57 -59.5t-69 -33.5t-63 -9q-34 0 -72 12t-76.5 44t-58.5 79t-20 93v238q0 58 25.5 107.5t68.5 80.5q-30 -1 -61.5 -13t-58 -37.5t-44.5 -62.5t-18 -80l1 -292q0 -38 25.5 -79.5t65.5 -51.5z
M519 751l-158 81l-158 -81l-16 31l166 85q8 3 16 0l166 -85zM437 662l-16 -1q45 -26 79 -73q44 -61 87 -45q18 8 18.5 23.5t-12.5 29.5q-23 27 -65.5 46.5t-90.5 19.5z" />
    <glyph glyph-name="ccircumflex" unicode="&#x109;" horiz-adv-x="558" 
d="M174 34l-16 -31q-35 19 -52.5 48.5t-21.5 57.5t-4 51v133q0 43 18.5 75.5t49 50t66 18t67.5 -15.5q22 12 57.5 18.5t73.5 -5.5t59 -38q16 -21 16.5 -45t-20 -43.5t-46 -21.5t-42 6.5t-26.5 20.5q-48 53 -71 67q-20 -17 -32.5 -43t-12.5 -51v-125q-1 -32 15 -62
t52.5 -47.5t80 -9t71.5 44.5l28 -21q-15 -20 -41.5 -37.5t-62.5 -22t-77 9t-71.5 52.5t-29.5 93v125q0 31 12 60t33 50q-21 9 -44 6t-43 -16.5t-32.5 -37t-13.5 -54.5l1 -134q0 -49 14 -78.5t45 -47.5zM438 486l-158 81l-158 -81l-16 31l166 85q8 3 16 0l166 -85zM444 375
q-13 16 -32.5 25t-47.5 9.5t-49 -9.5q21 -16 64 -64q12 -14 28 -16t28.5 6t16 22t-7.5 27z" />
    <glyph glyph-name="Cdotaccent" unicode="&#x10a;" horiz-adv-x="720" 
d="M209 38l-8 -33q-55 12 -86.5 61.5t-31.5 97.5l-1 297q0 42 16 83.5t46 74t72 51.5t92 19q24 0 49 -5q41 13 80 13q52 0 102.5 -22t79.5 -57q16 -17 19.5 -41.5t-8 -41.5t-30.5 -24q-32 -13 -66 2t-63 56q-42 60 -111 78q-25 -10 -53.5 -32.5t-47.5 -63t-19 -85.5v-238
q0 -48 25.5 -95t72 -72.5t94.5 -25.5q50 0 92.5 23t67.5 63l29 -19q-23 -35 -57 -59.5t-69 -33.5t-63 -9q-34 0 -72 12t-76.5 44t-58.5 79t-20 93v238q0 58 25.5 107.5t68.5 80.5q-30 -1 -61.5 -13t-58 -37.5t-44.5 -62.5t-18 -80l1 -292q0 -38 25.5 -79.5t65.5 -51.5z
M437 662l-16 -1q45 -26 79 -73q44 -61 87 -45q18 8 18.5 23.5t-12.5 29.5q-23 27 -65.5 46.5t-90.5 19.5zM309 816q0 21 14.5 36t35.5 15t36 -15t15 -36t-15 -35.5t-36 -14.5t-35.5 14.5t-14.5 35.5z" />
    <glyph glyph-name="cdotaccent" unicode="&#x10b;" horiz-adv-x="558" 
d="M174 34l-16 -31q-35 19 -52.5 48.5t-21.5 57.5t-4 51v133q0 43 18.5 75.5t49 50t66 18t67.5 -15.5q22 12 57.5 18.5t73.5 -5.5t59 -38q16 -21 16.5 -45t-20 -43.5t-46 -21.5t-42 6.5t-26.5 20.5q-48 53 -71 67q-20 -17 -32.5 -43t-12.5 -51v-125q-1 -32 15 -62
t52.5 -47.5t80 -9t71.5 44.5l28 -21q-15 -20 -41.5 -37.5t-62.5 -22t-77 9t-71.5 52.5t-29.5 93v125q0 31 12 60t33 50q-21 9 -44 6t-43 -16.5t-32.5 -37t-13.5 -54.5l1 -134q0 -49 14 -78.5t45 -47.5zM229 551q0 21 14.5 36t35.5 15t36 -15t15 -36t-15 -35.5t-36 -14.5
t-35.5 14.5t-14.5 35.5zM444 375q-13 16 -32.5 25t-47.5 9.5t-49 -9.5q21 -16 64 -64q12 -14 28 -16t28.5 6t16 22t-7.5 27z" />
    <glyph glyph-name="Ccaron" unicode="&#x10c;" horiz-adv-x="720" 
d="M209 38l-8 -33q-55 12 -86.5 61.5t-31.5 97.5l-1 297q0 42 16 83.5t46 74t72 51.5t92 19q24 0 49 -5q41 13 80 13q52 0 102.5 -22t79.5 -57q16 -17 19.5 -41.5t-8 -41.5t-30.5 -24q-32 -13 -66 2t-63 56q-42 60 -111 78q-25 -10 -53.5 -32.5t-47.5 -63t-19 -85.5v-238
q0 -48 25.5 -95t72 -72.5t94.5 -25.5q50 0 92.5 23t67.5 63l29 -19q-23 -35 -57 -59.5t-69 -33.5t-63 -9q-34 0 -72 12t-76.5 44t-58.5 79t-20 93v238q0 58 25.5 107.5t68.5 80.5q-30 -1 -61.5 -13t-58 -37.5t-44.5 -62.5t-18 -80l1 -292q0 -38 25.5 -79.5t65.5 -51.5z
M186 833l16 31l158 -81l158 81l16 -31l-166 -85q-8 -3 -16 0zM437 662l-16 -1q45 -26 79 -73q44 -61 87 -45q18 8 18.5 23.5t-12.5 29.5q-23 27 -65.5 46.5t-90.5 19.5z" />
    <glyph glyph-name="ccaron" unicode="&#x10d;" horiz-adv-x="558" 
d="M174 34l-16 -31q-35 19 -52.5 48.5t-21.5 57.5t-4 51v133q0 43 18.5 75.5t49 50t66 18t67.5 -15.5q22 12 57.5 18.5t73.5 -5.5t59 -38q16 -21 16.5 -45t-20 -43.5t-46 -21.5t-42 6.5t-26.5 20.5q-48 53 -71 67q-20 -17 -32.5 -43t-12.5 -51v-125q-1 -32 15 -62
t52.5 -47.5t80 -9t71.5 44.5l28 -21q-15 -20 -41.5 -37.5t-62.5 -22t-77 9t-71.5 52.5t-29.5 93v125q0 31 12 60t33 50q-21 9 -44 6t-43 -16.5t-32.5 -37t-13.5 -54.5l1 -134q0 -49 14 -78.5t45 -47.5zM105 568l16 31l158 -81l158 81l16 -31l-166 -85q-8 -3 -16 0zM444 375
q-13 16 -32.5 25t-47.5 9.5t-49 -9.5q21 -16 64 -64q12 -14 28 -16t28.5 6t16 22t-7.5 27z" />
    <glyph glyph-name="Dcaron" unicode="&#x10e;" horiz-adv-x="693" 
d="M139 691l17 -30q-17 -10 -29 -28.5t-12 -66.5v-488q0 -20 14 -32.5t32 -12.5t30.5 13.5t12.5 31.5v504q0 46 23 78.5t68 32.5h90q37 0 76.5 -10t77 -39t55.5 -74.5t18 -93.5v-274q0 -32 -11 -67t-38 -64.5t-72 -50t-106 -20.5h-49v35h49q57 0 100.5 21.5t67.5 58t24 87.5
v274q0 84 -51.5 133t-140.5 49h-90q-27 0 -41.5 -21.5t-14.5 -54.5v-504q0 -38 -22 -58.5t-56 -20.5q-23 0 -43 11.5t-28.5 30.5t-8.5 37l-1 488q0 57 16.5 83.5t42.5 41.5zM172 833l16 31l158 -81l158 81l16 -31l-166 -85q-8 -3 -16 0z" />
    <glyph glyph-name="dcaron" unicode="&#x10f;" horiz-adv-x="795" 
d="M440 1l-11 33q26 11 38.5 38t12.5 60l1 492q0 15 -9 27.5t-29 15.5t-35 -10t-15 -33v-468q0 -64 -46.5 -109.5t-111.5 -45.5q-39 0 -76.5 21t-58 59t-20.5 78v124q0 65 46 111t111 46v-35q-39 0 -69.5 -22.5t-41.5 -50.5t-11 -49v-124q0 -51 35.5 -87t84.5 -36
q34 0 61 15.5t44.5 43.5t17.5 61v468q0 26 16 47.5t47 26.5t54.5 -8t32 -31t8.5 -35l-1 -492q0 -42 -16.5 -74t-34 -43t-24.5 -14zM633 564l-9 31q53 16 80.5 54t27.5 95q0 21 -14.5 36t-35.5 15q-20 0 -35 -15t-15 -36q0 -15 10 -28.5t25 -18.5l-10 -31q-25 8 -41 30
t-16 48q0 34 24.5 58.5t57.5 24.5q34 0 58.5 -24.5t24.5 -58.5q0 -68 -34.5 -115.5t-97.5 -64.5z" />
    <glyph glyph-name="Dcroat" unicode="&#x110;" horiz-adv-x="900" 
d="M543 -1v35h49q57 0 100.5 21t68 58t24.5 88l-1 278q0 84 -51.5 133t-140.5 49h-179q-42 0 -66.5 -25t-24.5 -67v-128h10q24 0 50.5 -10t44.5 -37.5t18 -64.5l1 -252q0 -33 -23 -56.5t-55 -23.5q-22 0 -42.5 12.5t-29 31.5t-8.5 36v329h-137q-17 0 -27 -10.5t-10 -24.5
q0 -15 11 -26.5t26 -11.5h76v-35h-76q-29 0 -50.5 22t-21.5 51q0 30 21 50t51 20h136v128q0 27 11.5 57t42.5 49.5t72 19.5l179 1q103 0 165 -59.5t62 -157.5v-278q0 -32 -11 -67t-38 -64.5t-72 -50t-106 -20.5h-49zM332 406h-10l1 -329q0 -20 14 -32.5t31 -12.5
q18 0 30.5 13.5t12.5 31.5l-1 252q0 36 -20.5 56.5t-57.5 20.5z" />
    <glyph glyph-name="dcroat" unicode="&#x111;" horiz-adv-x="719" 
d="M599 440q17 0 36 -8.5t30.5 -28.5t11.5 -42q0 -31 -21 -54.5t-57 -23.5h-119v-74q0 -98 -48 -153t-143 -55q-97 0 -153 56t-56 152v74q0 65 46 111t111 46v-35q-39 0 -69.5 -22.5t-41.5 -50.5t-11 -49v-74q0 -30 9 -61t30 -55.5t55 -40.5t80 -16q74 0 115 44.5t41 128.5
v75q-29 0 -57 13.5t-46.5 49t-18.5 81.5v196q0 36 23 56t55 20q31 0 55 -20.5t24 -55.5v-307h119q20 0 32 13t12 31t-12 31t-32 13h-45v35h45zM357 428q0 -44 24.5 -77t63.5 -33v306q0 20 -13 32t-31 12t-31 -12t-13 -32v-196z" />
    <glyph glyph-name="Emacron" unicode="&#x112;" horiz-adv-x="641" 
d="M137 696l20 -28q-22 -16 -31.5 -41.5t-9.5 -70.5v-335q0 -33 22.5 -50.5t60.5 -17.5v92q0 36 22 58t50 22h148q17 0 29.5 10.5t12.5 29.5q0 15 -13 27.5t-29 12.5h-129q-24 0 -45 11.5t-30 30t-9 35.5l-1 102q0 30 15.5 57.5t39 40t48.5 12.5h174q32 0 55.5 -24.5
t23.5 -56.5t-23 -55t-55 -23h-139v34h139q19 0 31 13.5t12 30.5q0 18 -13 32t-31 14h-174q-15 0 -31 -8t-26.5 -27t-10.5 -40v-102q0 -11 6 -21.5t19 -15.5t25 -5h129q30 0 53.5 -23t23.5 -52q0 -32 -22 -53.5t-55 -21.5h-148q-15 0 -26 -12.5t-11 -32.5v-92h238
q32 0 55 -22.5t23 -54.5q0 -31 -23.5 -53.5t-55.5 -22.5h-185q-17 0 -37.5 10t-35 36t-14.5 57v17q-53 0 -85.5 24.5t-32.5 76.5l-1 335q0 37 4 58.5t16 42t37 39.5zM287 35l184 -1q17 0 30.5 12t13.5 30q0 16 -12 29.5t-31 13.5h-238v-16q0 -26 14.5 -47t38.5 -21zM188 801
h269v-36h-269v36z" />
    <glyph glyph-name="emacron" unicode="&#x113;" 
d="M334 175v35h28q43 -1 73 21.5t30 70.5q0 47 -34 72t-80 21t-73 -29t-34 -48t-7 -43v-125q0 -26 12 -51t33 -43q23 14 71 67q10 12 30.5 22.5t49.5 3.5t43 -25.5t13 -40t-18 -42.5q-14 -17 -43.5 -32.5t-71.5 -15.5t-75 22q-36 -16 -77 -15q-22 1 -50 14.5t-51 47.5
t-23 81v133q0 66 21.5 102t55.5 55l17 -31q-31 -17 -45 -46.5t-14 -79.5v-133q0 -48 27 -77t63 -31q17 -1 43 5q-21 21 -33.5 50t-12.5 60v125q0 59 34.5 98t82 50.5t88.5 0.5t67 -42.5t26 -81.5q0 -45 -21.5 -75t-54.5 -40t-62 -10h-28zM158 536h269v-36h-269v36zM376 95
q-35 -40 -61 -58q12 -7 35.5 -9.5t52 7.5t41.5 26q9 11 9 24t-11 23t-30.5 9.5t-35.5 -22.5z" />
    <glyph glyph-name="Ebreve" unicode="&#x114;" horiz-adv-x="641" 
d="M137 696l20 -28q-22 -16 -31.5 -41.5t-9.5 -70.5v-335q0 -33 22.5 -50.5t60.5 -17.5v92q0 36 22 58t50 22h148q17 0 29.5 10.5t12.5 29.5q0 15 -13 27.5t-29 12.5h-129q-24 0 -45 11.5t-30 30t-9 35.5l-1 102q0 30 15.5 57.5t39 40t48.5 12.5h174q32 0 55.5 -24.5
t23.5 -56.5t-23 -55t-55 -23h-139v34h139q19 0 31 13.5t12 30.5q0 18 -13 32t-31 14h-174q-15 0 -31 -8t-26.5 -27t-10.5 -40v-102q0 -11 6 -21.5t19 -15.5t25 -5h129q30 0 53.5 -23t23.5 -52q0 -32 -22 -53.5t-55 -21.5h-148q-15 0 -26 -12.5t-11 -32.5v-92h238
q32 0 55 -22.5t23 -54.5q0 -31 -23.5 -53.5t-55.5 -22.5h-185q-17 0 -37.5 10t-35 36t-14.5 57v17q-53 0 -85.5 24.5t-32.5 76.5l-1 335q0 37 4 58.5t16 42t37 39.5zM287 35l184 -1q17 0 30.5 12t13.5 30q0 16 -12 29.5t-31 13.5h-238v-16q0 -26 14.5 -47t38.5 -21zM320 747
q-30 0 -55.5 14t-44 41t-18.5 63h36q0 -33 24.5 -57.5t57.5 -24.5q34 0 58 24.5t24 57.5h36q0 -30 -14 -55.5t-41 -44t-63 -18.5z" />
    <glyph glyph-name="ebreve" unicode="&#x115;" 
d="M334 175v35h28q43 -1 73 21.5t30 70.5q0 47 -34 72t-80 21t-73 -29t-34 -48t-7 -43v-125q0 -26 12 -51t33 -43q23 14 71 67q10 12 30.5 22.5t49.5 3.5t43 -25.5t13 -40t-18 -42.5q-14 -17 -43.5 -32.5t-71.5 -15.5t-75 22q-36 -16 -77 -15q-22 1 -50 14.5t-51 47.5
t-23 81v133q0 66 21.5 102t55.5 55l17 -31q-31 -17 -45 -46.5t-14 -79.5v-133q0 -48 27 -77t63 -31q17 -1 43 5q-21 21 -33.5 50t-12.5 60v125q0 59 34.5 98t82 50.5t88.5 0.5t67 -42.5t26 -81.5q0 -45 -21.5 -75t-54.5 -40t-62 -10h-28zM290 482q-30 0 -55.5 14t-44 41
t-18.5 63h36q0 -33 24.5 -57.5t57.5 -24.5q34 0 58 24.5t24 57.5h36q0 -30 -14 -55.5t-41 -44t-63 -18.5zM376 95q-35 -40 -61 -58q12 -7 35.5 -9.5t52 7.5t41.5 26q9 11 9 24t-11 23t-30.5 9.5t-35.5 -22.5z" />
    <glyph glyph-name="Edotaccent" unicode="&#x116;" horiz-adv-x="641" 
d="M137 696l20 -28q-22 -16 -31.5 -41.5t-9.5 -70.5v-335q0 -33 22.5 -50.5t60.5 -17.5v92q0 36 22 58t50 22h148q17 0 29.5 10.5t12.5 29.5q0 15 -13 27.5t-29 12.5h-129q-24 0 -45 11.5t-30 30t-9 35.5l-1 102q0 30 15.5 57.5t39 40t48.5 12.5h174q32 0 55.5 -24.5
t23.5 -56.5t-23 -55t-55 -23h-139v34h139q19 0 31 13.5t12 30.5q0 18 -13 32t-31 14h-174q-15 0 -31 -8t-26.5 -27t-10.5 -40v-102q0 -11 6 -21.5t19 -15.5t25 -5h129q30 0 53.5 -23t23.5 -52q0 -32 -22 -53.5t-55 -21.5h-148q-15 0 -26 -12.5t-11 -32.5v-92h238
q32 0 55 -22.5t23 -54.5q0 -31 -23.5 -53.5t-55.5 -22.5h-185q-17 0 -37.5 10t-35 36t-14.5 57v17q-53 0 -85.5 24.5t-32.5 76.5l-1 335q0 37 4 58.5t16 42t37 39.5zM287 35l184 -1q17 0 30.5 12t13.5 30q0 16 -12 29.5t-31 13.5h-238v-16q0 -26 14.5 -47t38.5 -21zM270 816
q0 21 14.5 36t35.5 15t36 -15t15 -36t-15 -35.5t-36 -14.5t-35.5 14.5t-14.5 35.5z" />
    <glyph glyph-name="edotaccent" unicode="&#x117;" 
d="M334 175v35h28q43 -1 73 21.5t30 70.5q0 47 -34 72t-80 21t-73 -29t-34 -48t-7 -43v-125q0 -26 12 -51t33 -43q23 14 71 67q10 12 30.5 22.5t49.5 3.5t43 -25.5t13 -40t-18 -42.5q-14 -17 -43.5 -32.5t-71.5 -15.5t-75 22q-36 -16 -77 -15q-22 1 -50 14.5t-51 47.5
t-23 81v133q0 66 21.5 102t55.5 55l17 -31q-31 -17 -45 -46.5t-14 -79.5v-133q0 -48 27 -77t63 -31q17 -1 43 5q-21 21 -33.5 50t-12.5 60v125q0 59 34.5 98t82 50.5t88.5 0.5t67 -42.5t26 -81.5q0 -45 -21.5 -75t-54.5 -40t-62 -10h-28zM239 551q0 21 14.5 36t35.5 15
t36 -15t15 -36t-15 -35.5t-36 -14.5t-35.5 14.5t-14.5 35.5zM376 95q-35 -40 -61 -58q12 -7 35.5 -9.5t52 7.5t41.5 26q9 11 9 24t-11 23t-30.5 9.5t-35.5 -22.5z" />
    <glyph glyph-name="Eogonek" unicode="&#x118;" horiz-adv-x="641" 
d="M504 3q-48 -32 -68.5 -64t-17.5 -60q2 -16 11 -31.5t25 -23t30 -7.5q26 0 35 12q5 5 5 13.5t-5 15.5q-2 3 -7 6t-27 3v35q19 0 34 -3.5t27 -17.5q13 -16 13 -37.5t-13 -37.5q-21 -24 -62 -24q-15 0 -32 6t-29 15q-35 26 -40 72q-4 45 25 88q15 19 34 37h-144
q-17 0 -37.5 10t-35 36t-14.5 57v17q-53 0 -86 24.5t-33 76.5v335q0 37 4 58.5t16 42t37 39.5l20 -28q-22 -16 -31.5 -41.5t-9.5 -70.5v-335q0 -33 22.5 -50.5t60.5 -17.5v92q0 36 22 58t50 22h148q17 0 29.5 10.5t12.5 29.5q0 15 -13 27.5t-29 12.5h-129q-24 0 -45.5 11.5
t-30.5 30t-9 35.5v102q0 30 15.5 57.5t39 40t48.5 12.5h174q32 0 55.5 -24.5t23.5 -56.5t-23 -55t-55 -23h-139v34h139q19 0 31 13.5t12 30.5q0 18 -13 32t-31 14h-174q-15 0 -31 -8t-26.5 -27t-10.5 -40v-102q0 -11 6 -21.5t19 -15.5t25 -5h129q30 0 53.5 -23t23.5 -52
q0 -32 -22 -53.5t-55 -21.5h-148q-15 0 -26 -12.5t-11 -32.5v-92h238q32 0 55 -22.5t23 -54.5q0 -26 -16.5 -46t-41.5 -27zM246 103q0 -26 14.5 -47.5t38.5 -21.5h184q17 0 30.5 12t13.5 30q0 16 -12 29.5t-31 13.5h-238v-16z" />
    <glyph glyph-name="eogonek" unicode="&#x119;" 
d="M426 152q14 0 31.5 -6.5t31 -22.5t13.5 -36q0 -23 -19 -46q-4 -5 -14.5 -14t-46.5 -29q-47 -26 -67 -58t-17 -61q2 -16 11 -31.5t25 -23t30 -7.5t21.5 3t13.5 9q5 5 5 13.5t-5 15.5q-2 3 -7.5 6t-26.5 3v35q19 0 33.5 -3.5t26.5 -17.5q14 -16 14 -37.5t-14 -37.5
q-20 -24 -61 -24q-15 0 -32 6t-29 15q-35 26 -40 72q-2 22 4.5 45t20.5 43q7 11 26 30q-35 3 -61 22q-33 -15 -71 -15h-6q-22 1 -50 14.5t-51 47.5t-23 81v133q0 66 21.5 102t55.5 55l17 -31q-31 -17 -45 -46.5t-14 -79.5v-133q0 -48 27 -77t63 -31h6q19 0 37 5
q-21 21 -33.5 50t-12.5 60v125q0 36 13.5 65.5t37.5 50t54 30t57 9.5q40 0 74.5 -19t48 -49.5t13.5 -61.5q0 -45 -21.5 -75t-54.5 -40t-62 -10h-29v35h33q24 0 47 9t37.5 29t14.5 54q0 22 -10.5 44.5t-36 36t-56.5 13.5q-49 0 -87 -32.5t-38 -88.5v-125q0 -26 12 -51t33 -43
q23 14 71 67q12 14 28.5 21.5t32.5 7.5zM456 61q3 4 6 11.5t3 11.5q0 15 -11.5 24.5t-25.5 9.5q-10 0 -21 -6t-19 -17q-35 -40 -61 -58q17 -10 42 -10q22 0 48.5 9.5t38.5 24.5z" />
    <glyph glyph-name="Ecaron" unicode="&#x11a;" horiz-adv-x="641" 
d="M137 696l20 -28q-22 -16 -31.5 -41.5t-9.5 -70.5v-335q0 -33 22.5 -50.5t60.5 -17.5v92q0 36 22 58t50 22h148q17 0 29.5 10.5t12.5 29.5q0 15 -13 27.5t-29 12.5h-129q-24 0 -45 11.5t-30 30t-9 35.5l-1 102q0 30 15.5 57.5t39 40t48.5 12.5h174q32 0 55.5 -24.5
t23.5 -56.5t-23 -55t-55 -23h-139v34h139q19 0 31 13.5t12 30.5q0 18 -13 32t-31 14h-174q-15 0 -31 -8t-26.5 -27t-10.5 -40v-102q0 -11 6 -21.5t19 -15.5t25 -5h129q30 0 53.5 -23t23.5 -52q0 -32 -22 -53.5t-55 -21.5h-148q-15 0 -26 -12.5t-11 -32.5v-92h238
q32 0 55 -22.5t23 -54.5q0 -31 -23.5 -53.5t-55.5 -22.5h-185q-17 0 -37.5 10t-35 36t-14.5 57v17q-53 0 -85.5 24.5t-32.5 76.5l-1 335q0 37 4 58.5t16 42t37 39.5zM287 35l184 -1q17 0 30.5 12t13.5 30q0 16 -12 29.5t-31 13.5h-238v-16q0 -26 14.5 -47t38.5 -21zM146 833
l16 31l158 -81l158 81l16 -31l-166 -85q-8 -3 -16 0z" />
    <glyph glyph-name="ecaron" unicode="&#x11b;" 
d="M334 175v35h28q43 -1 73 21.5t30 70.5q0 47 -34 72t-80 21t-73 -29t-34 -48t-7 -43v-125q0 -26 12 -51t33 -43q23 14 71 67q10 12 30.5 22.5t49.5 3.5t43 -25.5t13 -40t-18 -42.5q-14 -17 -43.5 -32.5t-71.5 -15.5t-75 22q-36 -16 -77 -15q-22 1 -50 14.5t-51 47.5
t-23 81v133q0 66 21.5 102t55.5 55l17 -31q-31 -17 -45 -46.5t-14 -79.5v-133q0 -48 27 -77t63 -31q17 -1 43 5q-21 21 -33.5 50t-12.5 60v125q0 59 34.5 98t82 50.5t88.5 0.5t67 -42.5t26 -81.5q0 -45 -21.5 -75t-54.5 -40t-62 -10h-28zM116 568l16 31l158 -81l158 81
l16 -31l-166 -85q-8 -3 -16 0zM376 95q-35 -40 -61 -58q12 -7 35.5 -9.5t52 7.5t41.5 26q9 11 9 24t-11 23t-30.5 9.5t-35.5 -22.5z" />
    <glyph glyph-name="Gcircumflex" unicode="&#x11c;" horiz-adv-x="737" 
d="M205 26l-11 -33q-52 16 -83 64.5t-31 114.5l-1 283q0 41 16 82t45.5 74t72 52.5t91.5 19.5q23 0 50 -5q41 13 79 13q52 0 102.5 -21.5t80.5 -56.5q2 -2 6.5 -9t11 -25t-1 -40.5t-35.5 -33.5q-33 -13 -68.5 2.5t-63.5 55.5q-42 61 -108 79q-40 -16 -69.5 -48t-40.5 -68.5
t-11 -65.5v-252q0 -28 9.5 -59t33.5 -58.5t62 -46.5t88 -19q53 0 99 27.5t69 74.5t23 92l1 34q0 48 -60 48h-121q-17 0 -31.5 -12.5t-14.5 -32.5q0 -19 14.5 -32t31.5 -13h77v-34h-77q-32 0 -56.5 23.5t-24.5 55.5t24 56t57 24h121q44 0 69.5 -22.5t25.5 -60.5l-1 -34
q0 -42 -15.5 -83t-45 -74t-72 -52t-93.5 -19q-47 0 -89.5 16.5t-73.5 46t-48 69.5t-17 85v252q0 57 25.5 107t68.5 81q-30 -1 -61.5 -13t-58 -37.5t-44 -62.5t-17.5 -80v-283q0 -55 24.5 -94t66.5 -52zM527 751l-158 81l-158 -81l-16 31l166 85q8 3 16 0l166 -85zM433 656
l-17 -1q20 -12 41 -31t37 -41q21 -31 45.5 -42t44.5 -3q18 7 17.5 22.5t-12.5 29.5q-23 27 -65.5 46.5t-90.5 19.5z" />
    <glyph glyph-name="gcircumflex" unicode="&#x11d;" horiz-adv-x="572" 
d="M338 -108h-77q-14 0 -26.5 -9.5t-12.5 -29t10.5 -31.5t28.5 -12q27 0 50.5 25.5t26.5 56.5zM226 34v-35q-67 0 -106.5 41t-39.5 110v136q0 53 25.5 89t65.5 51t79 8.5t66.5 -27t41.5 -52.5t14 -67l1 -361q40 0 62 26t22 71v289q0 28 -12.5 55.5t-32.5 35.5l12 32
q31 -12 49.5 -48.5t18.5 -74.5v-289q0 -59 -32 -95.5t-87 -36.5q-1 -29 -15 -54.5t-40 -44t-57 -18.5q-30 0 -50.5 19t-23.5 51.5t18 57t56 24.5h77l-1 361q0 47 -26 76t-61 35t-65.5 -5.5t-50 -39t-19.5 -68.5v-136q0 -55 29.5 -85.5t81.5 -30.5zM445 486l-158 81l-158 -81
l-16 31l166 85q8 3 16 0l166 -85z" />
    <glyph glyph-name="Gbreve" unicode="&#x11e;" horiz-adv-x="737" 
d="M205 26l-11 -33q-52 16 -83 64.5t-31 114.5l-1 283q0 41 16 82t45.5 74t72 52.5t91.5 19.5q23 0 50 -5q41 13 79 13q52 0 102.5 -21.5t80.5 -56.5q2 -2 6.5 -9t11 -25t-1 -40.5t-35.5 -33.5q-33 -13 -68.5 2.5t-63.5 55.5q-42 61 -108 79q-40 -16 -69.5 -48t-40.5 -68.5
t-11 -65.5v-252q0 -28 9.5 -59t33.5 -58.5t62 -46.5t88 -19q53 0 99 27.5t69 74.5t23 92l1 34q0 48 -60 48h-121q-17 0 -31.5 -12.5t-14.5 -32.5q0 -19 14.5 -32t31.5 -13h77v-34h-77q-32 0 -56.5 23.5t-24.5 55.5t24 56t57 24h121q44 0 69.5 -22.5t25.5 -60.5l-1 -34
q0 -42 -15.5 -83t-45 -74t-72 -52t-93.5 -19q-47 0 -89.5 16.5t-73.5 46t-48 69.5t-17 85v252q0 57 25.5 107t68.5 81q-30 -1 -61.5 -13t-58 -37.5t-44 -62.5t-17.5 -80v-283q0 -55 24.5 -94t66.5 -52zM368 747q-30 0 -55.5 14t-44 41t-18.5 63h36q0 -33 24.5 -57.5
t57.5 -24.5q34 0 58 24.5t24 57.5h36q0 -30 -14 -55.5t-41 -44t-63 -18.5zM433 656l-17 -1q20 -12 41 -31t37 -41q21 -31 45.5 -42t44.5 -3q18 7 17.5 22.5t-12.5 29.5q-23 27 -65.5 46.5t-90.5 19.5z" />
    <glyph glyph-name="gbreve" unicode="&#x11f;" horiz-adv-x="572" 
d="M338 -108h-77q-14 0 -26.5 -9.5t-12.5 -29t10.5 -31.5t28.5 -12q27 0 50.5 25.5t26.5 56.5zM226 34v-35q-67 0 -106.5 41t-39.5 110v136q0 53 25.5 89t65.5 51t79 8.5t66.5 -27t41.5 -52.5t14 -67l1 -361q40 0 62 26t22 71v289q0 28 -12.5 55.5t-32.5 35.5l12 32
q31 -12 49.5 -48.5t18.5 -74.5v-289q0 -59 -32 -95.5t-87 -36.5q-1 -29 -15 -54.5t-40 -44t-57 -18.5q-30 0 -50.5 19t-23.5 51.5t18 57t56 24.5h77l-1 361q0 47 -26 76t-61 35t-65.5 -5.5t-50 -39t-19.5 -68.5v-136q0 -55 29.5 -85.5t81.5 -30.5zM286 482q-30 0 -55.5 14
t-44 41t-18.5 63h36q0 -33 24.5 -57.5t57.5 -24.5q34 0 58 24.5t24 57.5h36q0 -30 -14 -55.5t-41 -44t-63 -18.5z" />
    <glyph glyph-name="Gdotaccent" unicode="&#x120;" horiz-adv-x="737" 
d="M205 26l-11 -33q-52 16 -83 64.5t-31 114.5l-1 283q0 41 16 82t45.5 74t72 52.5t91.5 19.5q23 0 50 -5q41 13 79 13q52 0 102.5 -21.5t80.5 -56.5q2 -2 6.5 -9t11 -25t-1 -40.5t-35.5 -33.5q-33 -13 -68.5 2.5t-63.5 55.5q-42 61 -108 79q-40 -16 -69.5 -48t-40.5 -68.5
t-11 -65.5v-252q0 -28 9.5 -59t33.5 -58.5t62 -46.5t88 -19q53 0 99 27.5t69 74.5t23 92l1 34q0 48 -60 48h-121q-17 0 -31.5 -12.5t-14.5 -32.5q0 -19 14.5 -32t31.5 -13h77v-34h-77q-32 0 -56.5 23.5t-24.5 55.5t24 56t57 24h121q44 0 69.5 -22.5t25.5 -60.5l-1 -34
q0 -42 -15.5 -83t-45 -74t-72 -52t-93.5 -19q-47 0 -89.5 16.5t-73.5 46t-48 69.5t-17 85v252q0 57 25.5 107t68.5 81q-30 -1 -61.5 -13t-58 -37.5t-44 -62.5t-17.5 -80v-283q0 -55 24.5 -94t66.5 -52zM433 656l-17 -1q20 -12 41 -31t37 -41q21 -31 45.5 -42t44.5 -3
q18 7 17.5 22.5t-12.5 29.5q-23 27 -65.5 46.5t-90.5 19.5zM317 816q0 21 14.5 36t35.5 15t36 -15t15 -36t-15 -35.5t-36 -14.5t-35.5 14.5t-14.5 35.5z" />
    <glyph glyph-name="gdotaccent" unicode="&#x121;" horiz-adv-x="572" 
d="M338 -108h-77q-14 0 -26.5 -9.5t-12.5 -29t10.5 -31.5t28.5 -12q27 0 50.5 25.5t26.5 56.5zM226 34v-35q-67 0 -106.5 41t-39.5 110v136q0 53 25.5 89t65.5 51t79 8.5t66.5 -27t41.5 -52.5t14 -67l1 -361q40 0 62 26t22 71v289q0 28 -12.5 55.5t-32.5 35.5l12 32
q31 -12 49.5 -48.5t18.5 -74.5v-289q0 -59 -32 -95.5t-87 -36.5q-1 -29 -15 -54.5t-40 -44t-57 -18.5q-30 0 -50.5 19t-23.5 51.5t18 57t56 24.5h77l-1 361q0 47 -26 76t-61 35t-65.5 -5.5t-50 -39t-19.5 -68.5v-136q0 -55 29.5 -85.5t81.5 -30.5zM235 551q0 21 14.5 36
t35.5 15t36 -15t15 -36t-15 -35.5t-36 -14.5t-35.5 14.5t-14.5 35.5z" />
    <glyph glyph-name="Gcommaaccent" unicode="&#x122;" horiz-adv-x="737" 
d="M205 26l-11 -33q-52 16 -83 64.5t-31 114.5l-1 283q0 41 16 82t45.5 74t72 52.5t91.5 19.5q23 0 50 -5q41 13 79 13q52 0 102.5 -21.5t80.5 -56.5q2 -2 6.5 -9t11 -25t-1 -40.5t-35.5 -33.5q-33 -13 -68.5 2.5t-63.5 55.5q-42 61 -108 79q-40 -16 -69.5 -48t-40.5 -68.5
t-11 -65.5v-252q0 -28 9.5 -59t33.5 -58.5t62 -46.5t88 -19q53 0 99 27.5t69 74.5t23 92l1 34q0 48 -60 48h-121q-17 0 -31.5 -12.5t-14.5 -32.5q0 -19 14.5 -32t31.5 -13h77v-34h-77q-32 0 -56.5 23.5t-24.5 55.5t24 56t57 24h121q44 0 69.5 -22.5t25.5 -60.5l-1 -34
q0 -42 -15.5 -83t-45 -74t-72 -52t-93.5 -19q-47 0 -89.5 16.5t-73.5 46t-48 69.5t-17 85v252q0 57 25.5 107t68.5 81q-30 -1 -61.5 -13t-58 -37.5t-44 -62.5t-17.5 -80v-283q0 -55 24.5 -94t66.5 -52zM354 -199q-25 9 -41 31t-16 49q0 34 25 59t59 25t59 -25t25 -59
q0 -69 -34.5 -116.5t-98.5 -64.5l-10 33q54 16 81 53t27 95q0 20 -14.5 34.5t-34.5 14.5t-34.5 -14.5t-14.5 -34.5q0 -15 10 -28.5t24 -17.5zM433 656l-17 -1q20 -12 41 -31t37 -41q21 -31 45.5 -42t44.5 -3q18 7 17.5 22.5t-12.5 29.5q-23 27 -65.5 46.5t-90.5 19.5z" />
    <glyph glyph-name="gcommaaccent" unicode="&#x123;" horiz-adv-x="572" 
d="M338 -108h-77q-14 0 -26.5 -9.5t-12.5 -29t10.5 -31.5t28.5 -12q27 0 50.5 25.5t26.5 56.5zM226 34v-35q-67 0 -106.5 41t-39.5 110v136q0 53 25.5 89t65.5 51t79 8.5t66.5 -27t41.5 -52.5t14 -67l1 -361q40 0 62 26t22 71v289q0 28 -12.5 55.5t-32.5 35.5l12 32
q31 -12 49.5 -48.5t18.5 -74.5v-289q0 -59 -32 -95.5t-87 -36.5q-1 -29 -15 -54.5t-40 -44t-57 -18.5q-30 0 -50.5 19t-23.5 51.5t18 57t56 24.5h77l-1 361q0 47 -26 76t-61 35t-65.5 -5.5t-50 -39t-19.5 -68.5v-136q0 -55 29.5 -85.5t81.5 -30.5zM301 601l10 31
q25 -8 41 -30t16 -48q0 -34 -24.5 -58.5t-57.5 -24.5q-34 0 -58.5 24.5t-24.5 58.5q0 68 34.5 115.5t97.5 64.5l9 -31q-53 -16 -80.5 -54t-27.5 -95q0 -21 14.5 -36t35.5 -15q20 0 35 15t15 36q0 15 -10 28.5t-25 18.5z" />
    <glyph glyph-name="Hcircumflex" unicode="&#x124;" horiz-adv-x="693" 
d="M239 445h-35v170q0 21 -13.5 33t-31.5 11.5t-31.5 -12.5t-13.5 -33v-534q0 -22 13.5 -34t31.5 -12t31.5 12.5t13.5 33.5v186q0 33 23.5 56.5t55.5 23.5h170v269q0 18 8.5 37t28 30.5t43 12t43 -11t28 -31t8.5 -38.5v-170h-35v170q0 16 -9 29t-29.5 16.5t-35.5 -10
t-15 -34.5v-269h44q32 0 56 -23.5t24 -55.5l-1 -187q0 -27 -16 -49.5t-47.5 -28t-54.5 7.5t-31.5 32.5t-8.5 37.5v232h-170q-18 0 -31 -13.5t-13 -32.5v-186q0 -27 -16.5 -49.5t-48 -27.5t-54.5 8t-31.5 32t-8.5 37v534q0 29 16.5 51.5t48 27.5t54.5 -8.5t31.5 -32.5
t8.5 -37v-170zM532 312h-44v-232q0 -16 9 -29t29.5 -16t35.5 10.5t15 34.5v187q0 18 -13.5 31.5t-31.5 13.5zM505 751l-158 81l-158 -81l-16 31l166 85q8 3 16 0l166 -85z" />
    <glyph glyph-name="hcircumflex" unicode="&#x125;" horiz-adv-x="570" 
d="M225 488h-35v136q0 14 -8 25t-27 14t-34 -8.5t-15 -31.5v-546q0 -10 5 -21t15.5 -17.5t23.5 -6t23.5 7t15.5 17t5 20.5v216q0 43 18.5 75.5t52.5 51t76 18.5t76 -18.5t52.5 -51.5t18.5 -77v-291h-35v291q0 40 -20 68t-50.5 39.5t-62.5 6t-54.5 -26t-29.5 -43t-7 -42.5
v-216q0 -27 -16.5 -49t-43.5 -27t-48.5 2.5t-35.5 27t-14 46.5v546q0 18 7 34.5t25 29t47 12.5t52 -20t23 -55v-136zM338 751l-158 81l-158 -81l-16 31l166 85q8 3 16 0l166 -85z" />
    <glyph glyph-name="Hbar" unicode="&#x126;" horiz-adv-x="874" 
d="M769 524q17 0 36 -8.5t30.5 -28.5t11.5 -42t-12 -42t-31.5 -28t-37.5 -8q-34 0 -56.5 22t-22.5 55v45h-89v-143h44q31 0 55 -23t24 -54v-191q0 -17 -8.5 -36t-28.5 -30.5t-43 -11.5q-22 0 -42 12t-28 31t-8 37v232h-170q-18 0 -31 -13.5t-13 -32.5v-186
q0 -36 -23.5 -57.5t-55.5 -21.5t-56 21.5t-24 57.5v409h-76q-20 0 -32 -13t-12 -30q0 -18 12 -31t32 -13v-35q-17 0 -36 8.5t-30.5 28.5t-11.5 42q0 31 21 54.5t57 23.5h76v90q0 18 8 37.5t28 31.5t42 12q32 0 56.5 -21.5t24.5 -58.5v-91h214v91q0 27 14.5 46.5t33.5 26.5
t33 7q22 0 42 -12t28 -31.5t8 -37.5v-90h47zM224 614v-90h90v91q0 21 -13 33t-31 12t-32 -12.5t-14 -33.5zM642 312h-44v-232q0 -22 12.5 -34t30.5 -12t32 12.5t14 33.5v187q0 18 -13.5 31.5t-31.5 13.5zM563 346v143h-214v-59h-35v59h-90v-409q0 -22 13.5 -34t31.5 -12
t31.5 12t13.5 34v186q0 33 23.5 56.5t55.5 23.5h170zM598 524h89v92q0 21 -13.5 32.5t-31.5 11.5t-31 -12t-13 -33v-91zM769 401q20 0 32 13t12 31t-12 31t-32 13h-47v-44q0 -20 13.5 -32t33.5 -12z" />
    <glyph glyph-name="hbar" unicode="&#x127;" horiz-adv-x="710" 
d="M482 439q27 0 61.5 -12.5t60 -47.5t25.5 -88v-291h-35v291q0 40 -20 68t-46 37.5t-46 9.5q-45 0 -78.5 -30.5t-33.5 -82.5v-216q0 -36 -23.5 -57t-55.5 -21q-31 0 -55 21t-24 57v312h-104q-27 0 -46 14t-25.5 32t-6.5 32q0 22 11.5 42t30.5 28.5t36 8.5h30v-35h-30
q-20 0 -32 -13t-12 -31t12 -31t32 -13h104v200q0 35 24 55.5t55 20.5q32 0 55 -20t23 -56v-89q0 -46 -18.5 -81.5t-46.5 -49t-57 -13.5v-313q0 -21 13 -33t31 -12t31 12t13 33v216q0 52 25.5 86.5t60.5 47t61 12.5zM247 623v-199q29 0 50.5 19.5t29.5 45t8 45.5v89
q0 20 -13 32t-31 12t-31 -12t-13 -32z" />
    <glyph glyph-name="Itilde" unicode="&#x128;" horiz-adv-x="319" 
d="M159 694v-35q-17 0 -31 -13t-14 -32v-534q0 -21 13.5 -33.5t31.5 -12.5t31.5 12.5t13.5 33.5v510h35v-510q0 -18 -8.5 -36.5t-28 -30t-43 -11.5t-43 11.5t-28 30t-8.5 36.5v534q0 16 8.5 35t29 32t41.5 13zM241 751q-35 0 -87 26q-52 25 -76 22q-12 -1 -27 -9t-24 -24
l-32 15q10 19 31 35t47 19q12 1 31.5 -1.5t65.5 -24.5q50 -25 73 -22q17 2 31 11.5t20 21.5l33 -15q-10 -19 -34 -36.5t-52 -17.5z" />
    <glyph glyph-name="itilde" unicode="&#x129;" horiz-adv-x="305" 
d="M190 349h35v-278q0 -30 -21.5 -51.5t-51.5 -21.5q-29 0 -50.5 21.5t-21.5 51.5v294q0 30 21.5 51.5t51.5 21.5v-35q-15 0 -27 -11t-12 -27v-294q0 -16 11 -27t27 -11t27 11t11 27v278zM234 486q-35 0 -87 26q-52 25 -76 22q-12 -1 -27 -9t-24 -24l-32 15q10 19 31 35
t47 19q12 1 31.5 -1.5t65.5 -24.5q50 -25 73 -22q17 2 31 11.5t20 21.5l33 -15q-10 -19 -34 -36.5t-52 -17.5z" />
    <glyph glyph-name="Imacron" unicode="&#x12a;" horiz-adv-x="319" 
d="M159 694v-35q-17 0 -31 -13t-14 -32v-534q0 -21 13.5 -33.5t31.5 -12.5t31.5 12.5t13.5 33.5v510h35v-510q0 -18 -8.5 -36.5t-28 -30t-43 -11.5t-43 11.5t-28 30t-8.5 36.5v534q0 16 8.5 35t29 32t41.5 13zM28 801h269v-36h-269v36z" />
    <glyph glyph-name="imacron" unicode="&#x12b;" horiz-adv-x="305" 
d="M190 349h35v-278q0 -30 -21.5 -51.5t-51.5 -21.5q-29 0 -50.5 21.5t-21.5 51.5v294q0 30 21.5 51.5t51.5 21.5v-35q-15 0 -27 -11t-12 -27v-294q0 -16 11 -27t27 -11t27 11t11 27v278zM21 536h269v-36h-269v36z" />
    <glyph glyph-name="Ibreve" unicode="&#x12c;" horiz-adv-x="317" 
d="M157 694v-35q-17 0 -31 -13t-14 -32v-534q0 -21 13.5 -33.5t31.5 -12.5t31.5 12.5t13.5 33.5v510h35v-510q0 -18 -8.5 -36.5t-28 -30t-43 -11.5t-43 11.5t-28 30t-8.5 36.5v534q0 16 8.5 35t29 32t41.5 13zM158 747q-30 0 -55.5 14t-44 41t-18.5 63h36q0 -33 24.5 -57.5
t57.5 -24.5q34 0 58 24.5t24 57.5h36q0 -30 -14 -55.5t-41 -44t-63 -18.5z" />
    <glyph glyph-name="ibreve" unicode="&#x12d;" horiz-adv-x="304" 
d="M189 349h35v-278q0 -30 -21.5 -51.5t-51.5 -21.5q-29 0 -50.5 21.5t-21.5 51.5v294q0 30 21.5 51.5t51.5 21.5v-35q-15 0 -27 -11t-12 -27v-294q0 -16 11 -27t27 -11t27 11t11 27v278zM152 482q-30 0 -55.5 14t-44 41t-18.5 63h36q0 -33 24.5 -57.5t57.5 -24.5
q34 0 58 24.5t24 57.5h36q0 -30 -14 -55.5t-41 -44t-63 -18.5z" />
    <glyph glyph-name="Iogonek" unicode="&#x12e;" horiz-adv-x="319" 
d="M243 -119q13 -16 13 -37.5t-13 -37.5q-21 -24 -62 -24q-15 0 -32 6t-29 15q-35 26 -40 72q-3 33 12 67.5t43 62.5q-24 6 -39.5 26t-15.5 49v534q0 16 8.5 35t29 32t41.5 13v-35q-17 0 -31 -13t-14 -32v-534q0 -21 13.5 -33.5t31.5 -12.5t31.5 12.5t13.5 33.5v510h35v-510
q0 -19 -10 -39.5t-35 -31.5q-35 -21 -58.5 -59.5t-20.5 -70.5q2 -16 11 -31.5t25 -23t30 -7.5q26 0 35 12q5 5 5 13.5t-5 15.5q-2 3 -7 6t-28 3v35q19 0 34.5 -3.5t27.5 -17.5z" />
    <glyph glyph-name="iogonek" unicode="&#x12f;" horiz-adv-x="317" 
d="M274 528v-34h-37v-425q0 -21 -11 -36.5t-27 -23.5q-15 -11 -33.5 -31.5t-31 -47.5t-10.5 -50q2 -16 11 -31.5t25 -23t30 -7.5q26 0 35 12q5 5 5 13.5t-5 15.5q-2 3 -7 6t-27 3v35q19 0 34 -3.5t27 -17.5q13 -16 13 -37.5t-13 -37.5q-21 -24 -62 -24q-15 0 -32 6t-29 15
q-35 26 -40 72q-3 32 10.5 65.5t40.5 60.5q-25 5 -42.5 22.5t-17.5 44.5v289q0 30 21.5 51.5t51.5 21.5v-35q-16 0 -27 -11t-11 -27v-289q0 -18 13 -28.5t31 -10.5q17 0 30 10.5t13 28.5v425h-32q-27 0 -47 20t-20 47t20 47t47 20t47 -20t20 -47v-33h37zM170 528h32l1 33
q0 13 -10 22.5t-23 9.5t-22.5 -9.5t-9.5 -22.5t9.5 -23t22.5 -10z" />
    <glyph glyph-name="Idotaccent" unicode="&#x130;" horiz-adv-x="319" 
d="M159 694v-35q-17 0 -31 -13t-14 -32v-534q0 -21 13.5 -33.5t31.5 -12.5t31.5 12.5t13.5 33.5v510h35v-510q0 -18 -8.5 -36.5t-28 -30t-43 -11.5t-43 11.5t-28 30t-8.5 36.5v534q0 16 8.5 35t29 32t41.5 13zM109 816q0 21 14.5 36t35.5 15t36 -15t15 -36t-15 -35.5
t-36 -14.5t-35.5 14.5t-14.5 35.5z" />
    <glyph glyph-name="dotlessi" unicode="&#x131;" horiz-adv-x="304" 
d="M189 349h35v-278q0 -30 -21.5 -51.5t-51.5 -21.5q-29 0 -50.5 21.5t-21.5 51.5v294q0 30 21.5 51.5t51.5 21.5v-35q-15 0 -27 -11t-12 -27v-294q0 -16 11 -27t27 -11t27 11t11 27v278z" />
    <glyph glyph-name="Jcircumflex" unicode="&#x134;" horiz-adv-x="398" 
d="M49 659v35h75q32 0 52.5 -20.5t20.5 -52.5v-592q43 16 65 40.5t22 66.5v558h34v-558q0 -39 -14.5 -66t-40.5 -45.5t-66 -32.5q-4 -76 -30 -119t-68 -50q-19 -3 -42 3t-40 27t-17 49q0 32 17.5 52t44 31.5t60.5 20.5t40 11v604q0 17 -10.5 27.5t-27.5 10.5h-75zM357 751
l-158 81l-158 -81l-16 31l166 85q8 3 16 0l166 -85zM93 -143q54 10 67 123q-80 -21 -102.5 -38t-22.5 -40q0 -22 17 -35.5t41 -9.5z" />
    <glyph glyph-name="jcircumflex" unicode="&#x135;" horiz-adv-x="368" 
d="M238 441h35v-414q0 -38 -15 -65.5t-41.5 -46.5t-66.5 -33q-4 -54 -19.5 -93t-36.5 -55.5t-41 -20.5l-14 -1q-15 0 -35 8t-35 28.5t-15 44.5q0 25 12 43t39.5 33.5t110.5 38.5v461q0 16 -10.5 26t-27.5 10v35q32 0 52.5 -20.5t20.5 -52.5v-448q30 11 50.5 27.5t28.5 38
t8 42.5v414zM47 -252q54 11 67 123q-78 -19 -101.5 -37t-23.5 -41q0 -17 11 -31.5t35 -14.5zM343 486l-158 81l-158 -81l-16 31l166 85q8 3 16 0l166 -85z" />
    <glyph glyph-name="Kcommaaccent" unicode="&#x136;" horiz-adv-x="748" 
d="M501 412l-28 20l115 162q10 14 5.5 32t-17.5 27q-8 6 -21 7.5t-23.5 -4.5t-16.5 -14l-225 -316q-18 -24 -43 -24q-17 0 -29.5 12.5t-12.5 30.5v270q0 18 -14 31t-30 13q-17 0 -31 -12.5t-14 -31.5v-525q0 -24 16.5 -40t39.5 -16q17 0 34.5 10t48.5 52l118 161
q19 25 41 40t45.5 16t47.5 -12.5t47 -41.5l111 -134q21 -25 18.5 -54t-29.5 -51t-61.5 -19.5t-57.5 32.5l-85 109l26 22l86 -109q14 -18 32.5 -20t33.5 8.5t18.5 27.5t-9.5 33l-110 133q-17 22 -38 35.5t-44 3.5t-45 -40l-116 -161q-34 -47 -58.5 -61t-50.5 -14
q-27 0 -50.5 14.5t-33 35.5t-9.5 40l-1 525q0 32 24 55.5t56 23.5t55.5 -24t23.5 -55v-270q1 -5 4.5 -8t9.5 2t8 8l224 316q10 13 28 23t41.5 8.5t40.5 -13.5t26.5 -34t6 -41t-12.5 -32zM344 -199q-25 9 -41 31t-16 49q0 34 25 59t59 25t59 -25t25 -59q0 -69 -34.5 -116.5
t-98.5 -64.5l-10 33q54 16 81 53t27 95q0 20 -14.5 34.5t-34.5 14.5t-34.5 -14.5t-14.5 -34.5q0 -15 10 -28.5t24 -17.5z" />
    <glyph glyph-name="kcommaaccent" unicode="&#x137;" horiz-adv-x="623" 
d="M453 206l65 -70q20 -21 23 -49t-19 -55.5t-59.5 -31.5t-66.5 27l-87 96l-86 -96q-15 -18 -39.5 -24t-48.5 1t-39.5 27t-15.5 49v472q0 27 16 49t47 27.5t54 -8t31.5 -32t8.5 -35.5v-173h-35v177q0 19 -12.5 29.5t-30.5 10.5t-31 -11t-13 -29v-478q-1 -13 9.5 -27.5
t33.5 -17.5t39 16l89 99l-28 32q-46 57 12 114l105 116q19 21 46 28.5t53 -8t33 -39.5t-1.5 -43t-21.5 -32l-151 -168l88 -99q11 -12 28 -15.5t35.5 8.5t20.5 33t-13 37l-65 70q25 20 26 23zM401 387l-121 -135q-5 -6 -6.5 -16t3.5 -20t8 -13l25 -28l150 167q10 10 14 23
t-4.5 27t-30 15.5t-38.5 -20.5zM275 -199q-25 9 -41 31t-16 49q0 34 25 59t59 25t59 -25t25 -59q0 -69 -34.5 -116.5t-98.5 -64.5l-10 33q54 16 81 53t27 95q0 20 -14.5 34.5t-34.5 14.5t-34.5 -14.5t-14.5 -34.5q0 -15 10 -28.5t24 -17.5z" />
    <glyph glyph-name="kgreenlandic" unicode="&#x138;" horiz-adv-x="621" 
d="M79 80v285q0 36 23.5 57t54.5 21q22 0 42 -11.5t28.5 -30t8.5 -35.5v-29h-35v33q0 19 -12.5 29.5t-30.5 10.5t-31 -10.5t-13 -29.5v-294q0 -18 12 -30t30 -12q9 0 21 4.5t19 11.5l89 99l-28 32q-20 25 -20 51q0 28 32 63l105 116q13 15 30 23t32 8q29 0 51 -20.5
t22 -48.5q0 -31 -26 -56l-151 -168l88 -99q16 -17 35 -17t34 14.5t15 33.5q0 18 -13 32l-65 70l26 23l65 -70q23 -24 23 -54q0 -15 -9 -34.5t-30.5 -34t-45.5 -14.5q-15 0 -31.5 7.5t-28.5 20.5l-87 96l-86 -96q-11 -12 -30 -19.5t-36 -7.5q-32 0 -54.5 21.5t-22.5 58.5z
M400 387l-121 -135q-3 -3 -5 -9t-2 -10q0 -15 12 -30l25 -28l150 167q15 15 15 32q0 15 -11.5 24.5t-25.5 9.5q-22 0 -37 -21z" />
    <glyph glyph-name="Lacute" unicode="&#x139;" horiz-adv-x="581" 
d="M155 27l-16 -27q-29 16 -44 46.5t-15 86.5v489q0 32 25 52.5t56 20.5q32 0 55 -20t23 -53v-516q0 -30 20 -52t44 -22h116q16 0 29.5 9t17 28t-10.5 33.5t-36 14.5h-74v37h75q28 0 50.5 -16t28.5 -46.5t-7.5 -53t-33 -30.5t-38.5 -8h-117q-19 0 -42 10t-40.5 36.5
t-17.5 59.5v516q0 16 -12.5 27.5t-29.5 11.5q-16 0 -30 -10.5t-14 -28.5v-489q0 -60 12.5 -78.5t25.5 -27.5zM102 752l-8 34l198 47l8 -34z" />
    <glyph glyph-name="lacute" unicode="&#x13a;" horiz-adv-x="327" 
d="M115 214q0 -35 13.5 -72.5t40.5 -63.5q19 30 28.5 72t9.5 75v389q0 16 -9.5 28.5t-30.5 15t-36.5 -11t-15.5 -33.5v-399zM102 0v34q24 0 43 17q-31 30 -48 74t-17 89v399q0 17 8.5 36t28.5 30.5t43.5 11.5t43.5 -11t28.5 -29.5t8.5 -36.5l1 -389q0 -46 -12 -91.5
t-34 -77.5q41 -26 94 -26v-34q-32 0 -63 9t-54 24q-13 -13 -32 -21t-39 -8zM69 752l-8 34l198 47l8 -34z" />
    <glyph glyph-name="Lcommaaccent" unicode="&#x13b;" horiz-adv-x="579" 
d="M155 27l-16 -27q-29 16 -44 46.5t-15 86.5v489q0 32 25 52.5t56 20.5q32 0 55 -20t23 -53v-516q0 -30 20 -52t44 -22h116q16 0 29.5 9t17 28t-10.5 33.5t-36 14.5h-74v37h75q28 0 50.5 -16t28.5 -46.5t-7.5 -53t-33 -30.5t-38.5 -8h-117q-19 0 -42 10t-40.5 36.5
t-17.5 59.5v516q0 16 -12.5 27.5t-29.5 11.5q-16 0 -30 -10.5t-14 -28.5v-489q0 -60 12.5 -78.5t25.5 -27.5zM259 -199q-25 9 -41 31t-16 49q0 34 25 59t59 25t59 -25t25 -59q0 -69 -34.5 -116.5t-98.5 -64.5l-10 33q54 16 81 53t27 95q0 20 -14.5 34.5t-34.5 14.5
t-34.5 -14.5t-14.5 -34.5q0 -15 10 -28.5t24 -17.5z" />
    <glyph glyph-name="lcommaaccent" unicode="&#x13c;" horiz-adv-x="327" 
d="M115 214q0 -35 13.5 -72.5t40.5 -63.5q19 30 28.5 72t9.5 75v389q0 16 -9.5 28.5t-30.5 15t-36.5 -11t-15.5 -33.5v-399zM102 0v34q24 0 43 17q-31 30 -48 74t-17 89v399q0 17 8.5 36t28.5 30.5t43.5 11.5t43.5 -11t28.5 -29.5t8.5 -36.5l1 -389q0 -46 -12 -91.5
t-34 -77.5q41 -26 94 -26v-34q-32 0 -63 9t-54 24q-13 -13 -32 -21t-39 -8zM144 -199q-25 9 -41 31t-16 49q0 34 25 59t59 25t59 -25t25 -59q0 -69 -34.5 -116.5t-98.5 -64.5l-10 33q54 16 81 53t27 95q0 20 -14.5 34.5t-34.5 14.5t-34.5 -14.5t-14.5 -34.5q0 -15 10 -28.5
t24 -17.5z" />
    <glyph glyph-name="Lcaron" unicode="&#x13d;" horiz-adv-x="581" 
d="M155 27l-16 -27q-29 16 -44 46.5t-15 86.5v489q0 32 25 52.5t56 20.5q32 0 55 -20t23 -53v-516q0 -30 20 -52t44 -22h116q16 0 29.5 9t17 28t-10.5 33.5t-36 14.5h-74v37h75q28 0 50.5 -16t28.5 -46.5t-7.5 -53t-33 -30.5t-38.5 -8h-117q-19 0 -42 10t-40.5 36.5
t-17.5 59.5v516q0 16 -12.5 27.5t-29.5 11.5q-16 0 -30 -10.5t-14 -28.5v-489q0 -60 12.5 -78.5t25.5 -27.5zM313 564l-9 31q53 16 80.5 54t27.5 95q0 21 -14.5 36t-35.5 15q-20 0 -35 -15t-15 -36q0 -15 10 -28.5t25 -18.5l-10 -31q-25 8 -41 30t-16 48q0 34 24.5 58.5
t57.5 24.5q34 0 58.5 -24.5t24.5 -58.5q0 -68 -34.5 -115.5t-97.5 -64.5z" />
    <glyph glyph-name="lcaron" unicode="&#x13e;" horiz-adv-x="472" 
d="M115 214q0 -35 13.5 -72.5t40.5 -63.5q19 30 28.5 72t9.5 75v389q0 16 -9.5 28.5t-30.5 15t-36.5 -11t-15.5 -33.5v-399zM102 0v34q24 0 43 17q-31 30 -48 74t-17 89v399q0 17 8.5 36t28.5 30.5t43.5 11.5t43.5 -11t28.5 -29.5t8.5 -36.5l1 -389q0 -46 -12 -91.5
t-34 -77.5q41 -26 94 -26v-34q-32 0 -63 9t-54 24q-13 -13 -32 -21t-39 -8zM313 564l-9 31q53 16 80.5 54t27.5 95q0 21 -14.5 36t-35.5 15q-20 0 -35 -15t-15 -36q0 -15 10 -28.5t25 -18.5l-10 -31q-25 8 -41 30t-16 48q0 34 24.5 58.5t57.5 24.5q34 0 58.5 -24.5
t24.5 -58.5q0 -68 -34.5 -115.5t-97.5 -64.5z" />
    <glyph glyph-name="Ldot" unicode="&#x13f;" horiz-adv-x="581" 
d="M155 27l-16 -27q-29 16 -44 46.5t-15 86.5v489q0 32 25 52.5t56 20.5q32 0 55 -20t23 -53v-516q0 -30 20 -52t44 -22h116q16 0 29.5 9t17 28t-10.5 33.5t-36 14.5h-74v37h75q28 0 50.5 -16t28.5 -46.5t-7.5 -53t-33 -30.5t-38.5 -8h-117q-19 0 -42 10t-40.5 36.5
t-17.5 59.5v516q0 16 -12.5 27.5t-29.5 11.5q-16 0 -30 -10.5t-14 -28.5v-489q0 -60 12.5 -78.5t25.5 -27.5zM293 300q0 16 8.5 36t29.5 34t46 14q35 0 59.5 -24.5t24.5 -59.5q0 -16 -8 -35.5t-29.5 -34t-46.5 -14.5q-34 0 -59 25t-25 59zM328 300q0 -20 14.5 -34.5
t34.5 -14.5t34.5 14.5t14.5 34.5t-14.5 35t-34.5 15t-34.5 -15t-14.5 -35z" />
    <glyph glyph-name="ldot" unicode="&#x140;" horiz-adv-x="494" 
d="M115 214q0 -35 13.5 -72.5t40.5 -63.5q19 30 28.5 72t9.5 75v389q0 16 -9.5 28.5t-30.5 15t-36.5 -11t-15.5 -33.5v-399zM102 0v34q24 0 43 17q-31 30 -48 74t-17 89v399q0 17 8.5 36t28.5 30.5t43.5 11.5t43.5 -11t28.5 -29.5t8.5 -36.5l1 -389q0 -46 -12 -91.5
t-34 -77.5q41 -26 94 -26v-34q-32 0 -63 9t-54 24q-13 -13 -32 -21t-39 -8zM293 300q0 16 8.5 36t29.5 34t46 14q35 0 59.5 -24.5t24.5 -59.5q0 -16 -8 -35.5t-29.5 -34t-46.5 -14.5q-34 0 -59 25t-25 59zM328 300q0 -20 14.5 -34.5t34.5 -14.5t34.5 14.5t14.5 34.5
t-14.5 35t-34.5 15t-34.5 -15t-14.5 -35z" />
    <glyph glyph-name="Lslash" unicode="&#x141;" horiz-adv-x="849" 
d="M107 343l-9 34q40 10 121 28q28 6 55.5 0t45 -32.5t17.5 -64.5l-1 -89q0 -29 21 -45.5t62 -18.5v230q0 30 18 51.5t50 28.5l158 34q20 6 32 18t7 30q-5 15 -19.5 22t-37.5 2l-119 -26q-17 -4 -36.5 2.5t-33.5 28t-13 47.5v20q0 17 -13.5 29t-29.5 12t-31 -10.5t-15 -29.5
v-112h-35v112q0 25 15 43.5t33.5 25t32.5 6.5q31 0 54.5 -23t23.5 -53v-20q1 -20 11.5 -33.5t29.5 -10.5l119 26q37 8 64.5 -7t34.5 -42q8 -33 -9.5 -56.5t-56.5 -33.5q-1 0 -6.5 -1.5t-55 -13t-97.5 -20.5q-40 -9 -40 -46v-231h237q32 0 55.5 -23t23.5 -54
q0 -32 -23.5 -54.5t-55.5 -22.5l-180 1q-17 0 -38.5 10t-37.5 35.5t-16 56.5v17q-48 2 -84.5 28t-33.5 71l1 89q0 37 -18.5 54t-56.5 9zM691 119h-237v-16q0 -25 16.5 -46t40.5 -21l180 -1q17 0 30.5 12t13.5 30q0 16 -12 29t-32 13z" />
    <glyph glyph-name="lslash" unicode="&#x142;" horiz-adv-x="799" 
d="M107 343l-9 34q40 10 121 28q28 6 55.5 0t45 -32.5t17.5 -64.5l-1 -89q0 -29 21 -45.5t62 -18.5v230q0 30 18 51.5t50 28.5l158 34q20 6 32 18t7 30q-5 15 -19.5 22t-37.5 2l-119 -26q-17 -4 -36.5 2.5t-33.5 28t-13 47.5v20q0 17 -13.5 29t-29.5 12t-31 -10.5t-15 -29.5
v-112h-35v112q0 25 15 43.5t33.5 25t32.5 6.5q31 0 54.5 -23t23.5 -53v-20q1 -20 11.5 -33.5t29.5 -10.5l119 26q37 8 64.5 -7t34.5 -42q8 -33 -9.5 -56.5t-56.5 -33.5q-1 0 -6.5 -1.5t-55 -13t-97.5 -20.5q-40 -9 -40 -46v-231h117q32 0 55.5 -23t23.5 -54
q0 -32 -23.5 -54.5t-55.5 -22.5l-60 1q-17 0 -38.5 10t-37.5 35.5t-16 56.5v17q-48 2 -84.5 28t-33.5 71l1 89q0 37 -18.5 54t-56.5 9zM571 119h-117v-16q0 -25 16.5 -46t40.5 -21l60 -1q17 0 30.5 12t13.5 30q0 16 -12 29t-32 13z" />
    <glyph glyph-name="Nacute" unicode="&#x143;" horiz-adv-x="743" 
d="M541 345h-32v270q0 33 22 56.5t56 23.5q31 0 53.5 -24t22.5 -56v-530q0 -29 -11.5 -53t-32 -32.5t-39.5 -5.5t-37 16t-29 33q-118 213 -222 392q-5 8 -16.5 12t-24 -5t-12.5 -28v-339q-1 -35 -24.5 -54.5t-50.5 -19.5t-46.5 11t-28 29t-9.5 34v495q0 44 19.5 77t54.5 45
l16 -31q-25 -8 -39 -31.5t-14 -59.5v-495q0 -20 12.5 -31.5t30 -11.5t30 11.5t12.5 31.5v339q0 18 9.5 35t32 27.5t45.5 2.5t35 -28q172 -303 221 -392q10 -18 22.5 -25.5t25.5 -7.5t25.5 13.5t12.5 45.5v530q0 19 -12.5 34t-31.5 15q-20 0 -33 -14t-13 -35v-270zM275 752
l-8 34l198 47l8 -34z" />
    <glyph glyph-name="nacute" unicode="&#x144;" horiz-adv-x="544" 
d="M462 0h-35v312q0 21 -9.5 43t-33 35.5t-51 13.5t-51 -13t-33.5 -35.5t-10 -43.5v-236q0 -17 -8.5 -35t-28 -29t-42.5 -11t-42.5 11t-28 29t-8.5 35l1 273q0 20 9 41.5t31 35t47 13.5v-35q-21 0 -37 -14.5t-16 -40.5v-273q0 -15 9 -27t29 -15t35 9.5t15 32.5v236
q0 45 23 75t58.5 42.5t76.5 5.5t70.5 -39t29.5 -84v-312zM176 487l-8 34l198 47l8 -34z" />
    <glyph glyph-name="Ncommaaccent" unicode="&#x145;" horiz-adv-x="743" 
d="M541 345h-32v270q0 33 22 56.5t56 23.5q31 0 53.5 -24t22.5 -56v-530q0 -29 -11.5 -53t-32 -32.5t-39.5 -5.5t-37 16t-29 33q-118 213 -222 392q-5 8 -16.5 12t-24 -5t-12.5 -28v-339q-1 -35 -24.5 -54.5t-50.5 -19.5t-46.5 11t-28 29t-9.5 34v495q0 44 19.5 77t54.5 45
l16 -31q-25 -8 -39 -31.5t-14 -59.5v-495q0 -20 12.5 -31.5t30 -11.5t30 11.5t12.5 31.5v339q0 18 9.5 35t32 27.5t45.5 2.5t35 -28q172 -303 221 -392q10 -18 22.5 -25.5t25.5 -7.5t25.5 13.5t12.5 45.5v530q0 19 -12.5 34t-31.5 15q-20 0 -33 -14t-13 -35v-270zM349 -199
q-25 9 -41 31t-16 49q0 34 25 59t59 25t59 -25t25 -59q0 -69 -34.5 -116.5t-98.5 -64.5l-10 33q54 16 81 53t27 95q0 20 -14.5 34.5t-34.5 14.5t-34.5 -14.5t-14.5 -34.5q0 -15 10 -28.5t24 -17.5z" />
    <glyph glyph-name="ncommaaccent" unicode="&#x146;" horiz-adv-x="544" 
d="M462 0h-35v312q0 21 -9.5 43t-33 35.5t-51 13.5t-51 -13t-33.5 -35.5t-10 -43.5v-236q0 -17 -8.5 -35t-28 -29t-42.5 -11t-42.5 11t-28 29t-8.5 35l1 273q0 20 9 41.5t31 35t47 13.5v-35q-21 0 -37 -14.5t-16 -40.5v-273q0 -15 9 -27t29 -15t35 9.5t15 32.5v236
q0 45 23 75t58.5 42.5t76.5 5.5t70.5 -39t29.5 -84v-312zM285 -199q-25 9 -41 31t-16 49q0 34 25 59t59 25t59 -25t25 -59q0 -69 -34.5 -116.5t-98.5 -64.5l-10 33q54 16 81 53t27 95q0 20 -14.5 34.5t-34.5 14.5t-34.5 -14.5t-14.5 -34.5q0 -15 10 -28.5t24 -17.5z" />
    <glyph glyph-name="Ncaron" unicode="&#x147;" horiz-adv-x="743" 
d="M541 345h-32v270q0 33 22 56.5t56 23.5q31 0 53.5 -24t22.5 -56v-530q0 -29 -11.5 -53t-32 -32.5t-39.5 -5.5t-37 16t-29 33q-118 213 -222 392q-5 8 -16.5 12t-24 -5t-12.5 -28v-339q-1 -35 -24.5 -54.5t-50.5 -19.5t-46.5 11t-28 29t-9.5 34v495q0 44 19.5 77t54.5 45
l16 -31q-25 -8 -39 -31.5t-14 -59.5v-495q0 -20 12.5 -31.5t30 -11.5t30 11.5t12.5 31.5v339q0 18 9.5 35t32 27.5t45.5 2.5t35 -28q172 -303 221 -392q10 -18 22.5 -25.5t25.5 -7.5t25.5 13.5t12.5 45.5v530q0 19 -12.5 34t-31.5 15q-20 0 -33 -14t-13 -35v-270zM197 833
l16 31l158 -81l158 81l16 -31l-166 -85q-8 -3 -16 0z" />
    <glyph glyph-name="ncaron" unicode="&#x148;" horiz-adv-x="544" 
d="M462 0h-35v312q0 21 -9.5 43t-33 35.5t-51 13.5t-51 -13t-33.5 -35.5t-10 -43.5v-236q0 -17 -8.5 -35t-28 -29t-42.5 -11t-42.5 11t-28 29t-8.5 35l1 273q0 20 9 41.5t31 35t47 13.5v-35q-21 0 -37 -14.5t-16 -40.5v-273q0 -15 9 -27t29 -15t35 9.5t15 32.5v236
q0 45 23 75t58.5 42.5t76.5 5.5t70.5 -39t29.5 -84v-312zM98 568l16 31l158 -81l158 81l16 -31l-166 -85q-8 -3 -16 0z" />
    <glyph glyph-name="Eng" unicode="&#x14a;" horiz-adv-x="743" 
d="M665 620v-644q0 -68 -21 -114q-30 -64 -104 -81q-19 -4 -42 -4q-51 0 -97 26q-24 14 -46 37.5t-33 46.5q-14 31 -8 60q3 15 12.5 29t22.5 22q27 15 55 9q26 -7 44 -30q2 -2 11 -14t16.5 -18.5t15.5 -4.5q4 1 9.5 4.5t5.5 36.5v123h37v-125q0 -28 -5 -42q-5 -13 -15 -21.5
t-24 -10.5q-13 -2 -26.5 1.5t-21.5 11.5q-18 18 -30 35q-24 30 -54 13q-15 -9 -17.5 -27.5t5.5 -35.5q10 -22 36 -47t64 -36.5t78 -3.5q52 11 73.5 55t21.5 105v644q0 20 -13 31.5t-30 11.5t-29.5 -11.5t-12.5 -31.5v-339q0 -30 -19.5 -49t-45.5 -19q-16 0 -31.5 8.5
t-24.5 23.5q-153 266 -222 391q-8 15 -21.5 24t-25.5 9q-17 0 -28 -15t-11 -44v-530q0 -19 12.5 -34t31.5 -15q20 0 33 14t13 35v270h32v-270q0 -33 -22 -56.5t-56 -23.5q-31 0 -53.5 24t-22.5 56v530q0 21 7 43t25 35.5t40 13.5t43 -13t34 -37q118 -213 222 -392
q9 -13 26 -13q10 0 18.5 9t8.5 25v339q0 17 8.5 34.5t28.5 28.5t42 11q23 0 43 -11t28.5 -28.5t8.5 -34.5z" />
    <glyph glyph-name="eng" unicode="&#x14b;" horiz-adv-x="542" 
d="M332 439q37 0 70 -19t46 -48t13 -59v-371q0 -17 -8.5 -35t-28.5 -29.5t-42 -11.5t-42 11t-28 29t-8 35h34q0 -20 12.5 -31t30.5 -11t31.5 11.5t13.5 31.5v372q0 21 -10 42.5t-33.5 35t-50.5 13.5t-50.5 -13.5t-33.5 -36t-10 -43.5v-236q0 -17 -8.5 -35t-28.5 -29.5
t-42 -11.5t-42 11t-28 29t-8 35v274q0 20 9 41.5t31 35t47 13.5v-35q-21 0 -37 -14.5t-16 -40.5v-273q0 -20 12.5 -31.5t30.5 -11.5t31.5 11.5t13.5 31.5v236q0 30 13 59.5t46 48.5t70 19z" />
    <glyph glyph-name="Omacron" unicode="&#x14c;" horiz-adv-x="712" 
d="M529 -8l-7 34q33 7 54 46t21 84v301q0 32 -12.5 67.5t-46 70.5t-84 53t-101.5 18q-49 0 -93 -16t-76 -44.5t-50 -67.5t-18 -83v-261q0 -49 22.5 -86t63 -59.5t91.5 -22.5q30 0 63 9.5t59.5 30t42 51.5t15.5 70v249q0 21 -11 49t-40 50t-66 22q-51 0 -85 -34.5t-34 -85.5
l1 -252h-35l-1 252q0 65 45 110t109 45q41 0 75 -20.5t55.5 -57.5t21.5 -78v-249q0 -57 -27 -100t-76.5 -69.5t-111.5 -26.5q-39 0 -77 13.5t-68 39.5t-48 64.5t-18 85.5l-1 261q0 38 13.5 79.5t51.5 83t94.5 62.5t112.5 21q58 0 109.5 -18.5t89.5 -51.5t59 -78t21 -96v-301
q0 -57 -27.5 -105t-75.5 -59zM224 801h269v-36h-269v36z" />
    <glyph glyph-name="omacron" unicode="&#x14d;" horiz-adv-x="542" 
d="M161 450l9 -34q-10 -2 -23 -12.5t-22.5 -31t-9.5 -41.5v-157q0 -59 47 -99t116 -40q68 0 114 40t46 99l-1 132q0 58 -36 87t-79 21t-63.5 -39t-20.5 -70v-142h-35v142q0 51 27.5 90.5t80 49t92.5 -13.5t54.5 -57t14.5 -68v-132q0 -27 -10 -56.5t-36.5 -58.5t-67 -44
t-80.5 -15q-52 0 -99.5 22.5t-73 64.5t-25.5 87v157q0 41 24 76.5t57 42.5zM139 536h269v-36h-269v36z" />
    <glyph glyph-name="Obreve" unicode="&#x14e;" horiz-adv-x="712" 
d="M529 -8l-7 34q33 7 54 46t21 84v301q0 32 -12.5 67.5t-46 70.5t-84 53t-101.5 18q-49 0 -93 -16t-76 -44.5t-50 -67.5t-18 -83v-261q0 -49 22.5 -86t63 -59.5t91.5 -22.5q30 0 63 9.5t59.5 30t42 51.5t15.5 70v249q0 21 -11 49t-40 50t-66 22q-51 0 -85 -34.5t-34 -85.5
l1 -252h-35l-1 252q0 65 45 110t109 45q41 0 75 -20.5t55.5 -57.5t21.5 -78v-249q0 -57 -27 -100t-76.5 -69.5t-111.5 -26.5q-39 0 -77 13.5t-68 39.5t-48 64.5t-18 85.5l-1 261q0 38 13.5 79.5t51.5 83t94.5 62.5t112.5 21q58 0 109.5 -18.5t89.5 -51.5t59 -78t21 -96v-301
q0 -57 -27.5 -105t-75.5 -59zM356 747q-30 0 -55.5 14t-44 41t-18.5 63h36q0 -33 24.5 -57.5t57.5 -24.5q34 0 58 24.5t24 57.5h36q0 -30 -14 -55.5t-41 -44t-63 -18.5z" />
    <glyph glyph-name="obreve" unicode="&#x14f;" horiz-adv-x="542" 
d="M161 450l9 -34q-10 -2 -23 -12.5t-22.5 -31t-9.5 -41.5v-157q0 -59 47 -99t116 -40q68 0 114 40t46 99l-1 132q0 58 -36 87t-79 21t-63.5 -39t-20.5 -70v-142h-35v142q0 51 27.5 90.5t80 49t92.5 -13.5t54.5 -57t14.5 -68v-132q0 -27 -10 -56.5t-36.5 -58.5t-67 -44
t-80.5 -15q-52 0 -99.5 22.5t-73 64.5t-25.5 87v157q0 41 24 76.5t57 42.5zM271 482q-30 0 -55.5 14t-44 41t-18.5 63h36q0 -33 24.5 -57.5t57.5 -24.5q34 0 58 24.5t24 57.5h36q0 -30 -14 -55.5t-41 -44t-63 -18.5z" />
    <glyph glyph-name="Ohungarumlaut" unicode="&#x150;" horiz-adv-x="712" 
d="M529 -8l-7 34q33 7 54 46t21 84v301q0 32 -12.5 67.5t-46 70.5t-84 53t-101.5 18q-49 0 -93 -16t-76 -44.5t-50 -67.5t-18 -83v-261q0 -49 22.5 -86t63 -59.5t91.5 -22.5q30 0 63 9.5t59.5 30t42 51.5t15.5 70v249q0 21 -11 49t-40 50t-66 22q-51 0 -85 -34.5t-34 -85.5
l1 -252h-35l-1 252q0 65 45 110t109 45q41 0 75 -20.5t55.5 -57.5t21.5 -78v-249q0 -57 -27 -100t-76.5 -69.5t-111.5 -26.5q-39 0 -77 13.5t-68 39.5t-48 64.5t-18 85.5l-1 261q0 38 13.5 79.5t51.5 83t94.5 62.5t112.5 21q58 0 109.5 -18.5t89.5 -51.5t59 -78t21 -96v-301
q0 -57 -27.5 -105t-75.5 -59zM352 785l97 104l26 -24l-98 -102zM237 785l97 104l26 -24l-98 -102z" />
    <glyph glyph-name="ohungarumlaut" unicode="&#x151;" horiz-adv-x="542" 
d="M161 450l9 -34q-10 -2 -23 -12.5t-22.5 -31t-9.5 -41.5v-157q0 -59 47 -99t116 -40q68 0 114 40t46 99l-1 132q0 58 -36 87t-79 21t-63.5 -39t-20.5 -70v-142h-35v142q0 51 27.5 90.5t80 49t92.5 -13.5t54.5 -57t14.5 -68v-132q0 -27 -10 -56.5t-36.5 -58.5t-67 -44
t-80.5 -15q-52 0 -99.5 22.5t-73 64.5t-25.5 87v157q0 41 24 76.5t57 42.5zM152 520l97 104l26 -24l-98 -102zM267 520l97 104l26 -24l-98 -102z" />
    <glyph glyph-name="OE" unicode="&#x152;" horiz-adv-x="1161" 
d="M203 191l-1 242q0 65 45 110t109 45q41 0 75.5 -20.5t57 -57.5t22.5 -77v-240q0 -34 -12.5 -68.5t-41 -62.5t-71.5 -46t-94 -18q-38 0 -76 13.5t-68.5 39.5t-48.5 64.5t-18 85.5v250q0 52 21 97.5t59 79t88 51.5t104 18q38 0 83.5 -11t83.5 -34.5t62.5 -52.5t39 -66.5
t14.5 -79.5l-1 -188q0 -92 83 -108v90q0 28 13 47.5t29.5 26.5t29.5 7h148q17 0 29.5 10.5t12.5 29.5q0 15 -13.5 27.5t-28.5 12.5h-130q-23 0 -44.5 11.5t-30.5 30t-9 35.5v101q0 42 28 75.5t75 33.5h173q32 0 56 -24t24 -56t-23.5 -55.5t-55.5 -23.5h-138v34l138 1
q19 0 31.5 13.5t12.5 30.5q0 18 -13.5 31.5t-31.5 13.5h-173q-15 0 -31 -8t-26.5 -26.5t-10.5 -39.5v-101q0 -11 6 -21.5t18.5 -15.5t24.5 -5h130q29 0 52.5 -23t23.5 -52q0 -32 -22 -53.5t-54 -21.5h-148q-15 0 -26.5 -12.5t-11.5 -33.5v-94l15 -1h223q32 0 55.5 -23
t23.5 -55q0 -31 -23.5 -53.5t-56.5 -22.5l-184 1q-17 0 -37.5 10t-35.5 35.5t-15 56.5v20q-117 21 -117 144l1 188q0 32 -12.5 67.5t-47.5 70.5t-86 53t-102 18q-49 0 -93 -16t-76 -44.5t-50 -67.5t-18 -83v-250q0 -40 18.5 -79t62.5 -64t95 -25q30 0 63.5 9.5t60 30t42 51
t15.5 69.5v240q0 20 -11 48t-40 50t-66 22t-66.5 -20t-41 -48t-11.5 -52l1 -242h-35zM805 34l184 -1q17 0 31 11.5t14 29.5q0 16 -12.5 29.5t-31.5 13.5h-223l-15 1v-17q0 -26 15 -46.5t38 -20.5z" />
    <glyph glyph-name="oe" unicode="&#x153;" horiz-adv-x="937" 
d="M383 428l7 34q16 -3 35 -17.5t33.5 -43t14.5 -58.5v-169q0 -39 -18 -73t-48 -58q16 -8 36 -8h118q23 0 42 6q-45 47 -45 109v146q0 65 46 111.5t110 46.5q27 0 60.5 -12.5t57.5 -44t24 -69.5v-15q0 -43 -21 -72.5t-54 -40.5t-63 -11h-27v34h27q42 -1 73 22t30 70v15
q0 17 -10.5 38t-37.5 36t-59 15q-36 0 -66.5 -21t-42.5 -49.5t-12 -52.5v-146q0 -25 12 -50.5t33 -43.5q24 15 64 59q14 18 33 28t39 10q22 0 42 -14t24.5 -44.5t-12.5 -54.5q-35 -47 -113 -47q-41 0 -80 23q-34 -16 -74 -16h-118q-43 0 -71 22q-46 -22 -97 -22q-30 0 -63 9
t-62 30t-49 55.5t-20 79.5v144q0 50 24.5 84.5t57.5 47t58 12.5q58 0 93.5 -39.5t35.5 -105.5v-177q0 -14 7 -36.5t20 -38.5q28 19 44.5 47.5t16.5 61.5v169q0 29 -17 55t-38 30zM115 174q0 -59 46 -99t114 -40q36 0 70 13q-14 19 -22 45t-8 47v177q0 51 -25.5 81t-68.5 30
q-41 0 -73 -29t-32 -81zM728 92q-32 -36 -58 -56q31 -11 45 -11q27 0 48 8t37 28q8 11 7 26.5t-11.5 23t-21.5 7.5t-21 -5t-25 -21z" />
    <glyph glyph-name="Racute" unicode="&#x154;" horiz-adv-x="607" 
d="M147 698l15 -32q-46 -24 -44 -97l-3 -488q0 -17 9.5 -30.5t30 -17t37.5 9.5t17 40l-1 153q1 27 17 50.5t40 33.5q28 12 56.5 6.5t52.5 -30.5l65 69q24 24 39.5 56t15.5 84q1 66 -45.5 111.5t-114.5 45.5h-17q-18 0 -35 -9t-25.5 -27.5t-9.5 -35.5v-198l-35 1v196
q2 44 29.5 76.5t74.5 31.5h16q85 -1 141 -56t55 -136q1 -53 -14.5 -92t-49.5 -73l-65 -68l136 -145q13 -15 20.5 -35t1 -40.5t-24.5 -36.5q-21 -19 -58 -20.5t-61 22.5l-98 107q-23 26 -21.5 57t25.5 56l31 33q-16 19 -35 23t-36 -4q-15 -7 -25 -22.5t-10 -31.5v-152
q0 -19 -8.5 -39t-28.5 -32.5t-44 -12.5t-44.5 12t-29 31.5t-8.5 38.5l2 487q1 55 18.5 85t45.5 45zM343 145l97 -106q15 -14 35.5 -13t34.5 13q17 15 14 34t-15 32l-134 142l-32 -34q-13 -15 -13.5 -34t13.5 -34zM208 752l-8 34l198 47l8 -34z" />
    <glyph glyph-name="racute" unicode="&#x155;" horiz-adv-x="468" 
d="M379 406q-20 4 -47 1t-43 -12q45 -28 79 -46q14 -8 28.5 -6.5t22.5 14.5t-2 28.5t-38 20.5zM81 77v226h35v-226q0 -20 13 -31t30.5 -10.5t30.5 12t13 30.5v220q0 50 27 89q-28 11 -61.5 13.5t-64.5 -4.5l-8 34q40 11 82.5 6t78.5 -22q24 20 66 26.5t78 -5.5
q37 -13 49 -38.5t1 -50.5t-38 -34.5t-60 7.5l-91 52q-11 -14 -17.5 -33.5t-6.5 -39.5v-220q0 -17 -8 -35.5t-28 -29.5t-42.5 -11t-42.5 11t-28 29t-8 35zM138 487l-8 34l198 47l8 -34z" />
    <glyph glyph-name="Rcommaaccent" unicode="&#x156;" horiz-adv-x="607" 
d="M147 698l15 -32q-46 -24 -44 -97l-3 -488q0 -17 9.5 -30.5t30 -17t37.5 9.5t17 40l-1 153q1 27 17 50.5t40 33.5q28 12 56.5 6.5t52.5 -30.5l65 69q24 24 39.5 56t15.5 84q1 66 -45.5 111.5t-114.5 45.5h-17q-18 0 -35 -9t-25.5 -27.5t-9.5 -35.5v-198l-35 1v196
q2 44 29.5 76.5t74.5 31.5h16q85 -1 141 -56t55 -136q1 -53 -14.5 -92t-49.5 -73l-65 -68l136 -145q13 -15 20.5 -35t1 -40.5t-24.5 -36.5q-21 -19 -58 -20.5t-61 22.5l-98 107q-23 26 -21.5 57t25.5 56l31 33q-16 19 -35 23t-36 -4q-15 -7 -25 -22.5t-10 -31.5v-152
q0 -19 -8.5 -39t-28.5 -32.5t-44 -12.5t-44.5 12t-29 31.5t-8.5 38.5l2 487q1 55 18.5 85t45.5 45zM343 145l97 -106q15 -14 35.5 -13t34.5 13q17 15 14 34t-15 32l-134 142l-32 -34q-13 -15 -13.5 -34t13.5 -34zM286 -199q-25 9 -41 31t-16 49q0 34 25 59t59 25t59 -25
t25 -59q0 -69 -34.5 -116.5t-98.5 -64.5l-10 33q54 16 81 53t27 95q0 20 -14.5 34.5t-34.5 14.5t-34.5 -14.5t-14.5 -34.5q0 -15 10 -28.5t24 -17.5z" />
    <glyph glyph-name="rcommaaccent" unicode="&#x157;" horiz-adv-x="468" 
d="M379 406q-20 4 -47 1t-43 -12q45 -28 79 -46q14 -8 28.5 -6.5t22.5 14.5t-2 28.5t-38 20.5zM81 77v226h35v-226q0 -20 13 -31t30.5 -10.5t30.5 12t13 30.5v220q0 50 27 89q-28 11 -61.5 13.5t-64.5 -4.5l-8 34q40 11 82.5 6t78.5 -22q24 20 66 26.5t78 -5.5
q37 -13 49 -38.5t1 -50.5t-38 -34.5t-60 7.5l-91 52q-11 -14 -17.5 -33.5t-6.5 -39.5v-220q0 -17 -8 -35.5t-28 -29.5t-42.5 -11t-42.5 11t-28 29t-8 35zM144 -199q-25 9 -41 31t-16 49q0 34 25 59t59 25t59 -25t25 -59q0 -69 -34.5 -116.5t-98.5 -64.5l-10 33q54 16 81 53
t27 95q0 20 -14.5 34.5t-34.5 14.5t-34.5 -14.5t-14.5 -34.5q0 -15 10 -28.5t24 -17.5z" />
    <glyph glyph-name="Rcaron" unicode="&#x158;" horiz-adv-x="607" 
d="M147 698l15 -32q-46 -24 -44 -97l-3 -488q0 -17 9.5 -30.5t30 -17t37.5 9.5t17 40l-1 153q1 27 17 50.5t40 33.5q28 12 56.5 6.5t52.5 -30.5l65 69q24 24 39.5 56t15.5 84q1 66 -45.5 111.5t-114.5 45.5h-17q-18 0 -35 -9t-25.5 -27.5t-9.5 -35.5v-198l-35 1v196
q2 44 29.5 76.5t74.5 31.5h16q85 -1 141 -56t55 -136q1 -53 -14.5 -92t-49.5 -73l-65 -68l136 -145q13 -15 20.5 -35t1 -40.5t-24.5 -36.5q-21 -19 -58 -20.5t-61 22.5l-98 107q-23 26 -21.5 57t25.5 56l31 33q-16 19 -35 23t-36 -4q-15 -7 -25 -22.5t-10 -31.5v-152
q0 -19 -8.5 -39t-28.5 -32.5t-44 -12.5t-44.5 12t-29 31.5t-8.5 38.5l2 487q1 55 18.5 85t45.5 45zM343 145l97 -106q15 -14 35.5 -13t34.5 13q17 15 14 34t-15 32l-134 142l-32 -34q-13 -15 -13.5 -34t13.5 -34zM130 833l16 31l158 -81l158 81l16 -31l-166 -85q-8 -3 -16 0
z" />
    <glyph glyph-name="rcaron" unicode="&#x159;" horiz-adv-x="458" 
d="M369 406q-20 4 -47 1t-43 -12q45 -28 79 -46q14 -8 28.5 -6.5t22.5 14.5t-2 28.5t-38 20.5zM71 77v226h35v-226q0 -20 13 -31t30.5 -10.5t30.5 12t13 30.5v220q0 50 27 89q-28 11 -61.5 13.5t-64.5 -4.5l-8 34q40 11 82.5 6t78.5 -22q24 20 66 26.5t78 -5.5
q37 -13 49 -38.5t1 -50.5t-38 -34.5t-60 7.5l-91 52q-11 -14 -17.5 -33.5t-6.5 -39.5v-220q0 -17 -8 -35.5t-28 -29.5t-42.5 -11t-42.5 11t-28 29t-8 35zM50 568l16 31l158 -81l158 81l16 -31l-166 -85q-8 -3 -16 0z" />
    <glyph glyph-name="Sacute" unicode="&#x15a;" horiz-adv-x="606" 
d="M110 411l24 25l195 -181q53 -52 53 -112q0 -29 -12.5 -55.5t-33.5 -46.5q22 -6 37 -6q22 0 50 13t48 46t20 71q0 28 -11.5 58.5t-53.5 71.5l-159 148q-50 47 -50 113q0 32 13 61t36 50q-20 5 -40 5q-32 0 -60.5 -17.5t-43.5 -45.5l-9 -24l-35 5q5 18 13 35q20 37 57 59.5
t78 22.5q42 0 74 -17q34 17 67 17q43 0 82 -23t54 -56q12 -26 7.5 -48.5t-20.5 -37.5t-43 -20.5t-52 8.5t-38 39q-31 58 -58 80q-22 -17 -34.5 -41t-12.5 -52q0 -49 39 -88l160 -149q38 -37 56.5 -73t18.5 -81q0 -24 -8 -51.5t-27 -52.5t-49.5 -42.5t-68.5 -17.5
q-39 0 -73 17q-34 -18 -73 -18q-44 0 -84.5 24t-52.5 57q-13 36 -2.5 63.5t42 38.5t65 -5t48.5 -52q18 -42 57 -68q21 14 34 36t13 49q0 21 -11 44t-31 43zM367 672q-16 0 -35 -7q29 -29 56 -80q5 -9 14.5 -17.5t22.5 -10.5t26.5 3t21 20t-0.5 34q-10 23 -39.5 40.5
t-65.5 17.5zM227 35q20 0 40 5q-37 32 -55 71q-8 18 -23.5 30.5t-36.5 11.5t-29.5 -19.5t0.5 -40.5q9 -23 39 -40.5t65 -17.5zM206 752l-8 34l198 47l8 -34z" />
    <glyph glyph-name="sacute" unicode="&#x15b;" horiz-adv-x="523" 
d="M122 64q9 -12 30.5 -21.5t42 -9.5t33.5 6q-24 21 -53 56q-8 14 -21 16.5t-24 -4t-14 -18.5t6 -25zM406 368q0 18 -15 31.5t-46.5 17t-52.5 -2.5q11 -8 39.5 -41t46.5 -33q14 0 21 9.5t7 18.5zM117 238l22 26q8 -5 61.5 -43.5t83.5 -63.5q74 -63 12 -119q34 -11 61 1
t39.5 38t8 56t-25.5 51q-17 18 -82.5 63t-69.5 48q-16 12 -25 31.5t-3 43.5t23 41q-23 7 -49.5 -2t-46.5 -30l-30 19q13 19 43.5 35t62 15.5t57.5 -13.5q34 17 79.5 13.5t74 -24.5t28.5 -56q0 -24 -17.5 -43.5t-45.5 -19.5q-9 0 -24.5 5t-45 38.5t-49.5 47.5
q-21 -14 -25 -35.5t17 -40.5q14 -11 65 -45t67.5 -47.5t20.5 -18.5q26 -27 36.5 -65t-7.5 -78.5t-65 -57.5t-105 7q-19 -9 -50 -13t-66.5 7t-52.5 35q-18 25 -13 50t26.5 40.5t48 12.5t45.5 -28q5 -6 26 -30.5t36 -34.5q24 19 24 36.5t-25 39.5q-31 26 -145 108zM165 487
l-8 34l198 47l8 -34z" />
    <glyph glyph-name="Scircumflex" unicode="&#x15c;" horiz-adv-x="606" 
d="M110 411l24 25l195 -181q53 -52 53 -112q0 -29 -12.5 -55.5t-33.5 -46.5q22 -6 37 -6q22 0 50 13t48 46t20 71q0 28 -11.5 58.5t-53.5 71.5l-159 148q-50 47 -50 113q0 32 13 61t36 50q-20 5 -40 5q-32 0 -60.5 -17.5t-43.5 -45.5l-9 -24l-35 5q5 18 13 35q20 37 57 59.5
t78 22.5q42 0 74 -17q34 17 67 17q43 0 82 -23t54 -56q12 -26 7.5 -48.5t-20.5 -37.5t-43 -20.5t-52 8.5t-38 39q-31 58 -58 80q-22 -17 -34.5 -41t-12.5 -52q0 -49 39 -88l160 -149q38 -37 56.5 -73t18.5 -81q0 -24 -8 -51.5t-27 -52.5t-49.5 -42.5t-68.5 -17.5
q-39 0 -73 17q-34 -18 -73 -18q-44 0 -84.5 24t-52.5 57q-13 36 -2.5 63.5t42 38.5t65 -5t48.5 -52q18 -42 57 -68q21 14 34 36t13 49q0 21 -11 44t-31 43zM367 672q-16 0 -35 -7q29 -29 56 -80q5 -9 14.5 -17.5t22.5 -10.5t26.5 3t21 20t-0.5 34q-10 23 -39.5 40.5
t-65.5 17.5zM227 35q20 0 40 5q-37 32 -55 71q-8 18 -23.5 30.5t-36.5 11.5t-29.5 -19.5t0.5 -40.5q9 -23 39 -40.5t65 -17.5zM461 751l-158 81l-158 -81l-16 31l166 85q8 3 16 0l166 -85z" />
    <glyph glyph-name="scircumflex" unicode="&#x15d;" horiz-adv-x="519" 
d="M119 64q9 -12 30.5 -21.5t42 -9.5t33.5 6q-24 21 -53 56q-8 14 -21 16.5t-24 -4t-14 -18.5t6 -25zM403 368q0 18 -15 31.5t-46.5 17t-52.5 -2.5q11 -8 39.5 -41t46.5 -33q14 0 21 9.5t7 18.5zM114 238l22 26q8 -5 61.5 -43.5t83.5 -63.5q74 -63 12 -119q34 -11 61 1
t39.5 38t8 56t-25.5 51q-17 18 -82.5 63t-69.5 48q-16 12 -25 31.5t-3 43.5t23 41q-23 7 -49.5 -2t-46.5 -30l-30 19q13 19 43.5 35t62 15.5t57.5 -13.5q34 17 79.5 13.5t74 -24.5t28.5 -56q0 -24 -17.5 -43.5t-45.5 -19.5q-9 0 -24.5 5t-45 38.5t-49.5 47.5
q-21 -14 -25 -35.5t17 -40.5q14 -11 65 -45t67.5 -47.5t20.5 -18.5q26 -27 36.5 -65t-7.5 -78.5t-65 -57.5t-105 7q-19 -9 -50 -13t-66.5 7t-52.5 35q-18 25 -13 50t26.5 40.5t48 12.5t45.5 -28q5 -6 26 -30.5t36 -34.5q24 19 24 36.5t-25 39.5q-31 26 -145 108zM417 486
l-158 81l-158 -81l-16 31l166 85q8 3 16 0l166 -85z" />
    <glyph glyph-name="Scedilla" unicode="&#x15e;" horiz-adv-x="606" 
d="M110 411l24 25l195 -181q53 -52 53 -112q0 -29 -12.5 -55.5t-33.5 -46.5q22 -6 37 -6q22 0 50 13t48 46t20 71q0 28 -11.5 58.5t-53.5 71.5l-159 148q-50 47 -50 113q0 32 13 61t36 50q-20 5 -40 5q-32 0 -60.5 -17.5t-43.5 -45.5l-9 -24l-35 5q5 18 13 35q20 37 57 59.5
t78 22.5q42 0 74 -17q34 17 67 17q43 0 82 -23t54 -56q12 -26 7.5 -48.5t-20.5 -37.5t-43 -20.5t-52 8.5t-38 39q-31 58 -58 80q-22 -17 -34.5 -41t-12.5 -52q0 -49 39 -88l160 -149q38 -37 56.5 -73t18.5 -81q0 -24 -8 -51.5t-27 -52.5t-49.5 -42.5t-68.5 -17.5
q-39 0 -73 17q-34 -18 -73 -18q-44 0 -84.5 24t-52.5 57q-13 36 -2.5 63.5t42 38.5t65 -5t48.5 -52q18 -42 57 -68q21 14 34 36t13 49q0 21 -11 44t-31 43zM367 672q-16 0 -35 -7q29 -29 56 -80q5 -9 14.5 -17.5t22.5 -10.5t26.5 3t21 20t-0.5 34q-10 23 -39.5 40.5
t-65.5 17.5zM227 35q20 0 40 5q-37 32 -55 71q-8 18 -23.5 30.5t-36.5 11.5t-29.5 -19.5t0.5 -40.5q9 -23 39 -40.5t65 -17.5zM233 -75l-25 25q16 16 43 26.5t61 4t58 -31.5q16 -16 26.5 -43t3.5 -61t-31 -58q-16 -16 -42.5 -26.5t-61 -3.5t-58.5 31l25 24q11 -10 30 -18
t42.5 -4t40.5 21q23 23 23.5 56.5t-22.5 56.5q-11 11 -29.5 19t-42.5 3.5t-41 -21.5z" />
    <glyph glyph-name="scedilla" unicode="&#x15f;" horiz-adv-x="523" 
d="M122 64q9 -12 30.5 -21.5t42 -9.5t33.5 6q-24 21 -53 56q-8 14 -21 16.5t-24 -4t-14 -18.5t6 -25zM406 368q0 18 -15 31.5t-46.5 17t-52.5 -2.5q11 -8 39.5 -41t46.5 -33q14 0 21 9.5t7 18.5zM117 238l22 26q8 -5 61.5 -43.5t83.5 -63.5q74 -63 12 -119q34 -11 61 1
t39.5 38t8 56t-25.5 51q-17 18 -82.5 63t-69.5 48q-16 12 -25 31.5t-3 43.5t23 41q-23 7 -49.5 -2t-46.5 -30l-30 19q13 19 43.5 35t62 15.5t57.5 -13.5q34 17 79.5 13.5t74 -24.5t28.5 -56q0 -24 -17.5 -43.5t-45.5 -19.5q-9 0 -24.5 5t-45 38.5t-49.5 47.5
q-21 -14 -25 -35.5t17 -40.5q14 -11 65 -45t67.5 -47.5t20.5 -18.5q26 -27 36.5 -65t-7.5 -78.5t-65 -57.5t-105 7q-19 -9 -50 -13t-66.5 7t-52.5 35q-18 25 -13 50t26.5 40.5t48 12.5t45.5 -28q5 -6 26 -30.5t36 -34.5q24 19 24 36.5t-25 39.5q-31 26 -145 108zM192 -75
l-25 25q16 16 43 26.5t61 4t58 -31.5q16 -16 26.5 -43t3.5 -61t-31 -58q-16 -16 -42.5 -26.5t-61 -3.5t-58.5 31l25 24q11 -10 30 -18t42.5 -4t40.5 21q23 23 23.5 56.5t-22.5 56.5q-11 11 -29.5 19t-42.5 3.5t-41 -21.5z" />
    <glyph glyph-name="Scaron" unicode="&#x160;" horiz-adv-x="607" 
d="M306 230l-195 181l24 25l195 -181q53 -52 53 -112q0 -29 -12.5 -55.5t-33.5 -46.5q22 -6 37 -6q22 0 50 13t48 46t20 71q0 28 -11.5 58.5t-53.5 71.5l-159 148q-50 47 -50 113q0 32 13 61t36 50q-20 5 -40 5q-32 0 -60.5 -17.5t-43.5 -45.5l-9 -24l-35 5q5 18 13 35
q20 37 57 59.5t78 22.5q42 0 74 -17q34 17 67 17q43 0 82 -23t54 -56q12 -26 7.5 -48.5t-20.5 -37.5t-43 -20.5t-52 8.5t-38 39q-31 58 -58 80q-22 -17 -34.5 -41t-12.5 -52q0 -49 39 -88l160 -149q38 -37 56.5 -73t18.5 -81q0 -24 -8 -51.5t-27 -52.5t-49.5 -42.5
t-68.5 -17.5q-39 0 -73 17q-34 -18 -73 -18q-44 0 -84.5 24t-52.5 57q-13 36 -2.5 63.5t42 38.5t65 -5t48.5 -52q18 -42 57 -68q21 14 34 36t13 49q0 21 -11 44t-31 43zM454 865l16 -31l-166 -85q-8 -3 -16 0l-166 85l16 31l158 -81zM228 35q20 0 40 5q-37 32 -55 71
q-8 18 -23.5 30.5t-36.5 11.5t-29.5 -19.5t0.5 -40.5q9 -23 39 -40.5t65 -17.5zM368 672q-16 0 -35 -7q29 -29 56 -80q5 -9 14.5 -17.5t22.5 -10.5t26.5 3t21 20t-0.5 34q-10 23 -39.5 40.5t-65.5 17.5z" />
    <glyph glyph-name="scaron" unicode="&#x161;" horiz-adv-x="521" 
d="M125 379l-30 19q13 19 43.5 35t62 15.5t57.5 -13.5q34 17 79.5 13.5t74 -24.5t28.5 -56q0 -24 -17.5 -43.5t-45.5 -19.5q-9 0 -24.5 5t-45 38.5t-49.5 47.5q-21 -14 -25 -35.5t17 -40.5q14 -11 65 -45t67.5 -47.5t20.5 -18.5q26 -27 36.5 -65t-7.5 -78.5t-65 -57.5
t-105 7q-19 -9 -50 -13t-66.5 7t-52.5 35q-18 25 -13 50t26.5 40.5t48 12.5t45.5 -28q5 -6 26 -30.5t36 -34.5q24 19 24 36.5t-25 39.5q-31 26 -145 108l22 26l145 -107q74 -63 12 -119q34 -11 61 1t39.5 38t8 56t-25.5 51q-17 18 -82.5 63t-69.5 48q-16 12 -25 31.5
t-3 43.5t23 41q-23 7 -49.5 -2t-46.5 -30zM121 64q9 -12 30.5 -21.5t42 -9.5t33.5 6q-24 21 -53 56q-8 14 -21 16.5t-24 -4t-14 -18.5t6 -25zM405 368q0 18 -15 31.5t-46.5 17t-52.5 -2.5q11 -8 39.5 -41t46.5 -33q14 0 21 9.5t7 18.5zM435 557l-166 -85q-8 -3 -16 0
l-166 85l16 31l158 -81l158 81z" />
    <glyph glyph-name="Tcommaaccent" unicode="&#x162;" horiz-adv-x="637" 
d="M578 590l1 -35h-154v-482q0 -26 -14 -43.5t-36 -25t-49 -3t-43.5 25t-16.5 45.5l1 432q0 42 22 64t62 22h39v14q0 25 -7 40t-39 15h-204q-14 0 -23 -11t-9 -23t10 -23.5t22 -11.5h71v-35h-75q-26 0 -46 22t-20 48q0 27 19 48t49 21h206q42 0 61.5 -22.5t19.5 -67.5v-14
h153zM390 73v482h-39q-25 0 -37 -12t-12 -39l-1 -432q0 -20 13.5 -31t31 -11t31 11.5t13.5 31.5zM324 -199q-25 9 -41 31t-16 49q0 34 25 59t59 25t59 -25t25 -59q0 -69 -34.5 -116.5t-98.5 -64.5l-10 33q54 16 81 53t27 95q0 20 -14.5 34.5t-34.5 14.5t-34.5 -14.5
t-14.5 -34.5q0 -15 10 -28.5t24 -17.5z" />
    <glyph glyph-name="tcommaaccent" unicode="&#x163;" horiz-adv-x="509" 
d="M104 406h-61v35h61q30 0 51.5 -21.5t21.5 -51.5v-288q0 -20 14 -33t31 -13q19 0 33 14t14 32v327q-25 0 -54.5 12.5t-51 43.5t-21.5 68v18q0 33 23.5 57t56.5 24t57.5 -24.5t24.5 -56.5v-108h65q33 0 56.5 -23t23.5 -55q0 -33 -24.5 -58t-56.5 -25h-24v35h24
q18 0 32 14.5t14 33.5q0 17 -12.5 30.5t-32.5 13.5h-65v-327q0 -32 -24.5 -56t-57.5 -24t-56.5 23.5t-23.5 56.5v288q0 14 -10.5 26t-27.5 12zM199 -199q-25 9 -41 31t-16 49q0 34 25 59t59 25t59 -25t25 -59q0 -69 -34.5 -116.5t-98.5 -64.5l-10 33q54 16 81 53t27 95
q0 20 -14.5 34.5t-34.5 14.5t-34.5 -14.5t-14.5 -34.5q0 -15 10 -28.5t24 -17.5zM177 532q0 -19 9.5 -40t33 -35t49.5 -15v107q0 18 -14 32t-33 14q-17 0 -31 -13t-14 -33v-17z" />
    <glyph glyph-name="Tcaron" unicode="&#x164;" horiz-adv-x="637" 
d="M578 590l1 -35h-154v-482q0 -26 -14 -43.5t-36 -25t-49 -3t-43.5 25t-16.5 45.5l1 432q0 42 22 64t62 22h39v14q0 25 -7 40t-39 15h-204q-14 0 -23 -11t-9 -23t10 -23.5t22 -11.5h71v-35h-75q-26 0 -46 22t-20 48q0 27 19 48t49 21h206q42 0 61.5 -22.5t19.5 -67.5v-14
h153zM390 73v482h-39q-25 0 -37 -12t-12 -39l-1 -432q0 -20 13.5 -31t31 -11t31 11.5t13.5 31.5zM144 833l16 31l158 -81l158 81l16 -31l-166 -85q-8 -3 -16 0z" />
    <glyph glyph-name="tcaron" unicode="&#x165;" 
d="M104 406h-61v35h61q30 0 51.5 -21.5t21.5 -51.5v-288q0 -20 14 -33t31 -13q19 0 33 14t14 32v327q-25 0 -54.5 12.5t-51 43.5t-21.5 68v18q0 33 23.5 57t56.5 24t57.5 -24.5t24.5 -56.5v-108h65q33 0 56.5 -23t23.5 -55q0 -33 -24.5 -58t-56.5 -25h-24v35h24
q18 0 32 14.5t14 33.5q0 17 -12.5 30.5t-32.5 13.5h-65v-327q0 -32 -24.5 -56t-57.5 -24t-56.5 23.5t-23.5 56.5v288q0 14 -10.5 26t-27.5 12zM413 564l-9 31q53 16 80.5 54t27.5 95q0 21 -14.5 36t-35.5 15q-20 0 -35 -15t-15 -36q0 -15 10 -28.5t25 -18.5l-10 -31
q-25 8 -41 30t-16 48q0 34 24.5 58.5t57.5 24.5q34 0 58.5 -24.5t24.5 -58.5q0 -68 -34.5 -115.5t-97.5 -64.5zM177 532q0 -19 9.5 -40t33 -35t49.5 -15v107q0 18 -14 32t-33 14q-17 0 -31 -13t-14 -33v-17z" />
    <glyph glyph-name="Tbar" unicode="&#x166;" horiz-adv-x="624" 
d="M565 590l1 -35h-154v-166h119v-36h-119v-280q0 -17 -8.5 -34.5t-28.5 -28.5t-43 -11q-31 0 -54.5 19.5t-23.5 52.5v282h-126v36h126v115q0 42 22 64t62 22h39v14q0 25 -7 40t-39 15h-204q-14 0 -23 -11t-9 -23t10 -23.5t22 -11.5h71v-35h-75q-26 0 -46 22t-20 48
q0 27 19 48t49 21h206q42 0 61.5 -22.5t19.5 -67.5v-14h153zM377 73v280h-89v-281q0 -20 13 -31t31 -11t31.5 11.5t13.5 31.5zM288 389h89v166h-39q-50 0 -50 -51v-115z" />
    <glyph glyph-name="tbar" unicode="&#x167;" horiz-adv-x="576" 
d="M461 397q33 0 54.5 -20.5t21.5 -52.5q0 -33 -22 -54t-55 -21h-90v-168q0 -16 -7.5 -35t-27 -32.5t-44.5 -13.5q-34 0 -58 24t-24 57v168h-107v35h107v121h-100q-33 0 -56.5 23.5t-23.5 55.5q0 33 24.5 57.5t56.5 24.5h15v-35h-15q-19 0 -32.5 -14t-13.5 -33
q0 -17 12.5 -30.5t32.5 -13.5h100v181q0 30 21.5 51t51.5 21t51.5 -21.5t21.5 -50.5v-89q0 -22 -11 -49.5t-38.5 -49.5t-61.5 -27v-122h92v40q0 30 21.5 51.5t51.5 21.5h52zM244 621v-180q32 6 54 32t22 59v89q0 16 -11 27t-27 11t-27 -11t-11 -27zM336 81v168h-92v-168
q0 -18 14.5 -32.5t32.5 -14.5q17 0 31 13.5t14 33.5zM460 284q19 0 30.5 10.5t11.5 29.5q0 17 -10.5 28t-30.5 11h-52q-17 0 -27.5 -12t-11.5 -27v-40h90z" />
    <glyph glyph-name="Utilde" unicode="&#x168;" horiz-adv-x="705" 
d="M535 3l-17 32q30 15 50.5 50t20.5 77v453q0 20 -13 31t-31 11.5t-31 -11t-13 -31.5v-399q0 -36 -11.5 -73.5t-42 -71.5t-77.5 -52t-97.5 -14.5t-93.5 28t-70 71.5t-28 111v478h34v-478q0 -65 33.5 -111t92 -60t111 5.5t83.5 62.5t31 104v399q0 18 8.5 37t28 30t43 11.5
t43 -11t28 -30t8.5 -36.5l-1 -454q0 -25 -8 -57t-29.5 -60t-51.5 -42zM433 751q-35 0 -87 26q-52 25 -76 22q-12 -1 -27 -9t-24 -24l-32 15q10 19 31 35t47 19q12 1 31.5 -1.5t65.5 -24.5q50 -25 73 -22q17 2 31 11.5t20 21.5l33 -15q-10 -19 -34 -36.5t-52 -17.5z" />
    <glyph glyph-name="utilde" unicode="&#x169;" horiz-adv-x="578" 
d="M425 1l-8 34q45 11 45 75l1 252q0 15 -9 27.5t-29 16t-35 -9.5t-15 -33l-1 -213q0 -26 -9.5 -56t-38 -55.5t-71 -33t-83 7t-66.5 50.5t-26 89v288h35v-288q0 -39 20 -67t50.5 -39.5t63 -6.5t54.5 25t29 43t7 43l1 213q0 27 16.5 48.5t47.5 26.5t54 -8t31.5 -31.5
t8.5 -36.5l-1 -252q0 -44 -18.5 -73t-53.5 -36zM369 486q-35 0 -87 26q-52 25 -76 22q-12 -1 -27 -9t-24 -24l-32 15q10 19 31 35t47 19q12 1 31.5 -1.5t65.5 -24.5q50 -25 73 -22q17 2 31 11.5t20 21.5l33 -15q-10 -19 -34 -36.5t-52 -17.5z" />
    <glyph glyph-name="Umacron" unicode="&#x16a;" horiz-adv-x="705" 
d="M535 3l-17 32q30 15 50.5 50t20.5 77v453q0 20 -13 31t-31 11.5t-31 -11t-13 -31.5v-399q0 -36 -11.5 -73.5t-42 -71.5t-77.5 -52t-97.5 -14.5t-93.5 28t-70 71.5t-28 111v478h34v-478q0 -65 33.5 -111t92 -60t111 5.5t83.5 62.5t31 104v399q0 18 8.5 37t28 30t43 11.5
t43 -11t28 -30t8.5 -36.5l-1 -454q0 -25 -8 -57t-29.5 -60t-51.5 -42zM221 801h269v-36h-269v36z" />
    <glyph glyph-name="umacron" unicode="&#x16b;" horiz-adv-x="578" 
d="M425 1l-8 34q45 11 45 75l1 252q0 15 -9 27.5t-29 16t-35 -9.5t-15 -33l-1 -213q0 -26 -9.5 -56t-38 -55.5t-71 -33t-83 7t-66.5 50.5t-26 89v288h35v-288q0 -39 20 -67t50.5 -39.5t63 -6.5t54.5 25t29 43t7 43l1 213q0 27 16.5 48.5t47.5 26.5t54 -8t31.5 -31.5
t8.5 -36.5l-1 -252q0 -44 -18.5 -73t-53.5 -36zM157 536h269v-36h-269v36z" />
    <glyph glyph-name="Ubreve" unicode="&#x16c;" horiz-adv-x="705" 
d="M535 3l-17 32q30 15 50.5 50t20.5 77v453q0 20 -13 31t-31 11.5t-31 -11t-13 -31.5v-399q0 -36 -11.5 -73.5t-42 -71.5t-77.5 -52t-97.5 -14.5t-93.5 28t-70 71.5t-28 111v478h34v-478q0 -65 33.5 -111t92 -60t111 5.5t83.5 62.5t31 104v399q0 18 8.5 37t28 30t43 11.5
t43 -11t28 -30t8.5 -36.5l-1 -454q0 -25 -8 -57t-29.5 -60t-51.5 -42zM353 747q-30 0 -55.5 14t-44 41t-18.5 63h36q0 -33 24.5 -57.5t57.5 -24.5q34 0 58 24.5t24 57.5h36q0 -30 -14 -55.5t-41 -44t-63 -18.5z" />
    <glyph glyph-name="ubreve" unicode="&#x16d;" horiz-adv-x="578" 
d="M425 1l-8 34q45 11 45 75l1 252q0 15 -9 27.5t-29 16t-35 -9.5t-15 -33l-1 -213q0 -26 -9.5 -56t-38 -55.5t-71 -33t-83 7t-66.5 50.5t-26 89v288h35v-288q0 -39 20 -67t50.5 -39.5t63 -6.5t54.5 25t29 43t7 43l1 213q0 27 16.5 48.5t47.5 26.5t54 -8t31.5 -31.5
t8.5 -36.5l-1 -252q0 -44 -18.5 -73t-53.5 -36zM289 482q-30 0 -55.5 14t-44 41t-18.5 63h36q0 -33 24.5 -57.5t57.5 -24.5q34 0 58 24.5t24 57.5h36q0 -30 -14 -55.5t-41 -44t-63 -18.5z" />
    <glyph glyph-name="Uring" unicode="&#x16e;" horiz-adv-x="705" 
d="M535 3l-17 32q30 15 50.5 50t20.5 77v453q0 20 -13 31t-31 11.5t-31 -11t-13 -31.5v-399q0 -36 -11.5 -73.5t-42 -71.5t-77.5 -52t-97.5 -14.5t-93.5 28t-70 71.5t-28 111v478h34v-478q0 -65 33.5 -111t92 -60t111 5.5t83.5 62.5t31 104v399q0 18 8.5 37t28 30t43 11.5
t43 -11t28 -30t8.5 -36.5l-1 -454q0 -25 -8 -57t-29.5 -60t-51.5 -42zM270 816q0 34 25 58.5t58 24.5q34 0 58.5 -24.5t24.5 -58.5t-24.5 -58.5t-58.5 -24.5q-33 0 -58 24.5t-25 58.5zM303 816q0 -21 14.5 -35.5t35.5 -14.5t36 14.5t15 35.5t-15 36t-36 15t-35.5 -15
t-14.5 -36z" />
    <glyph glyph-name="uring" unicode="&#x16f;" horiz-adv-x="578" 
d="M425 1l-8 34q45 11 45 75l1 252q0 15 -9 27.5t-29 16t-35 -9.5t-15 -33l-1 -213q0 -26 -9.5 -56t-38 -55.5t-71 -33t-83 7t-66.5 50.5t-26 89v288h35v-288q0 -39 20 -67t50.5 -39.5t63 -6.5t54.5 25t29 43t7 43l1 213q0 27 16.5 48.5t47.5 26.5t54 -8t31.5 -31.5
t8.5 -36.5l-1 -252q0 -44 -18.5 -73t-53.5 -36zM206 551q0 34 25 58.5t58 24.5q34 0 58.5 -24.5t24.5 -58.5t-24.5 -58.5t-58.5 -24.5q-33 0 -58 24.5t-25 58.5zM239 551q0 -21 14.5 -35.5t35.5 -14.5t36 14.5t15 35.5t-15 36t-36 15t-35.5 -15t-14.5 -36z" />
    <glyph glyph-name="Uhungarumlaut" unicode="&#x170;" horiz-adv-x="705" 
d="M535 3l-17 32q30 15 50.5 50t20.5 77v453q0 20 -13 31t-31 11.5t-31 -11t-13 -31.5v-399q0 -36 -11.5 -73.5t-42 -71.5t-77.5 -52t-97.5 -14.5t-93.5 28t-70 71.5t-28 111v478h34v-478q0 -65 33.5 -111t92 -60t111 5.5t83.5 62.5t31 104v399q0 18 8.5 37t28 30t43 11.5
t43 -11t28 -30t8.5 -36.5l-1 -454q0 -25 -8 -57t-29.5 -60t-51.5 -42zM349 785l97 104l26 -24l-98 -102zM234 785l97 104l26 -24l-98 -102z" />
    <glyph glyph-name="uhungarumlaut" unicode="&#x171;" horiz-adv-x="578" 
d="M425 1l-8 34q45 11 45 75l1 252q0 15 -9 27.5t-29 16t-35 -9.5t-15 -33l-1 -213q0 -26 -9.5 -56t-38 -55.5t-71 -33t-83 7t-66.5 50.5t-26 89v288h35v-288q0 -39 20 -67t50.5 -39.5t63 -6.5t54.5 25t29 43t7 43l1 213q0 27 16.5 48.5t47.5 26.5t54 -8t31.5 -31.5
t8.5 -36.5l-1 -252q0 -44 -18.5 -73t-53.5 -36zM285 520l97 104l26 -24l-98 -102zM170 520l97 104l26 -24l-98 -102z" />
    <glyph glyph-name="Uogonek" unicode="&#x172;" horiz-adv-x="704" 
d="M529 -3q-24 -12 -44.5 -31t-33 -42.5t-9.5 -48.5q2 -16 11 -31.5t25 -23t30 -7.5q25 0 34 12q5 6 5.5 14t-5.5 15q-2 3 -7 6t-26 3v35q19 0 33.5 -3.5t26.5 -17.5q13 -16 13 -37.5t-13 -37.5q-20 -24 -61 -24q-33 0 -62 21q-34 26 -39 72q-2 22 4.5 45t20.5 43
q31 43 81 69q29 15 52 52t23 78v453q0 20 -13.5 31.5t-31.5 11.5t-30.5 -11.5t-12.5 -31.5v-399q0 -37 -12 -74.5t-39.5 -68t-69 -50t-92.5 -19.5q-39 0 -76 13t-66.5 39.5t-47 67t-17.5 91.5v480h34v-480q0 -53 21.5 -92t60.5 -62t89 -23q33 0 65.5 11.5t58.5 34.5t41 56.5
t15 75.5v399q0 18 8.5 37t28.5 30.5t43 11.5q32 0 55 -21t23 -57v-454q0 -52 -27 -96t-67 -65z" />
    <glyph glyph-name="uogonek" unicode="&#x173;" horiz-adv-x="578" 
d="M412 -8q-38 -20 -58 -51.5t-17 -63.5q2 -16 11 -31.5t25 -23t30 -7.5q24 0 35 12q5 5 5 13.5t-5 15.5q-2 3 -7.5 6t-26.5 3v35q19 0 33.5 -3.5t26.5 -17.5q14 -16 14 -37.5t-14 -37.5q-20 -24 -61 -24q-15 0 -32 6t-29 15q-36 27 -41 72q-3 26 7.5 56t34.5 53t50 36
q28 14 48.5 40t20.5 50v253q0 20 -13 32t-30 12q-18 0 -31 -12t-13 -32v-213q0 -52 -26 -87.5t-61 -48t-61 -12.5t-53.5 10t-48 28.5t-33 47t-12.5 64.5v288h35v-288q0 -53 34.5 -84t79.5 -31q44 0 77 30t33 83v213q0 17 8.5 35.5t28.5 30t43 11.5q32 0 55.5 -21t23.5 -57
v-252q0 -21 -9 -43.5t-29.5 -40.5t-47.5 -32z" />
    <glyph glyph-name="Wcircumflex" unicode="&#x174;" horiz-adv-x="982" 
d="M447 619l45 -177l45 177q3 16 -10.5 32t-34.5 16t-35 -15.5t-10 -32.5zM323 242l-131 395q-5 15 -22.5 22t-32.5 2q-15 -4 -26 -19t-5 -34l157 -523q7 -25 26 -39t42 -13q27 1 43 18.5t23 41.5l77 282l-57 212q-6 26 -6 36q0 31 23.5 54.5t57.5 23.5t57.5 -23.5
t23.5 -54.5q0 -17 -6 -37l-57 -211l77 -282q7 -24 23 -41.5t43 -18.5q23 -1 42 13t26 39l157 522q6 19 -5 34t-26 19q-15 5 -32.5 -2t-22.5 -23l-124 -399l-33 11l124 399q10 30 40.5 43t58.5 4q29 -10 43.5 -33t13.5 -40t-3 -23l-158 -523q-11 -36 -39.5 -56.5t-63.5 -19.5
q-34 1 -59.5 24t-37.5 61l-62 226l-62 -226q-6 -18 -18 -38t-33 -33t-47 -14q-35 -1 -63 19.5t-40 56.5l-157 524q-5 16 -2 35.5t19 36.5t37 24q20 7 43.5 1.5t37 -19.5t18.5 -28l131 -395zM650 751l-158 81l-158 -81l-16 31l166 85q8 3 16 0l166 -85z" />
    <glyph glyph-name="wcircumflex" unicode="&#x175;" horiz-adv-x="776" 
d="M497 225l68 177q7 21 26.5 33.5t39 13.5t31.5 -3q15 -5 28 -16t19 -25q6 -11 6.5 -25t-4.5 -27q-20 -58 -58 -153.5t-62 -148.5q-10 -24 -35 -39t-56 -15q-32 0 -59.5 20t-38.5 52q-4 18 -13 41l-14 -41q-10 -32 -37.5 -52t-60.5 -20q-29 0 -54.5 15t-36.5 39
q-81 192 -120 302q-5 14 -3.5 32.5t16 35.5t37.5 25q13 4 32 3t38.5 -13.5t26.5 -33.5l67 -177l-31 -11l-68 177q-5 15 -23.5 21.5t-33.5 0.5q-16 -7 -24 -20t-2 -29q29 -82 119 -300q7 -16 24.5 -25t35.5 -9q22 0 40.5 14t25.5 36q4 8 28 82l-54 166q-6 18 -6 34v1
q0 29 24 55q23 21 54 21q14 0 29 -5.5t25 -15.5q24 -24 24 -55v-1q0 -17 -7 -34l-54 -166l28 -82q8 -22 26.5 -36t39.5 -14q19 0 36.5 9t24.5 25q90 218 119 300q5 17 -1 27q-3 7 -11 14t-17 10q-7 2 -18 1.5t-22 -7.5t-14 -18l-68 -177zM547 486l-158 81l-158 -81l-16 31
l166 85q8 3 16 0l166 -85zM419 393q-10 12 -30 12q-19 0 -31 -12q-14 -12 -14 -30v-1q0 -11 5 -24l40 -121l41 121q3 12 3 24v1q0 20 -14 30z" />
    <glyph glyph-name="Ycircumflex" unicode="&#x176;" horiz-adv-x="689" 
d="M237 378l-162 187q-22 25 -18 57t26 52q16 14 39 18t42 -4t30 -21l148 -164l155 165q22 23 57 23.5t57 -20.5q21 -21 23.5 -52t-17.5 -53l-244 -265q-52 -56 -67.5 -91.5t-15.5 -67.5v-66q0 -20 13 -31.5t31 -11.5t31 11t13 31v133h35v-133q0 -16 -7.5 -34.5t-27 -30.5
t-43.5 -12q-34 0 -57 21.5t-23 56.5v66q0 41 19 82t74 100l242 265q11 13 9.5 30.5t-13.5 28.5q-10 10 -29.5 10.5t-33.5 -13.5l-158 -165q-10 -12 -25.5 -11.5t-27.5 13.5l-144 162q-13 15 -31.5 15t-29.5 -10q-13 -12 -15.5 -29.5t8.5 -31.5l166 -186zM503 751l-158 81
l-158 -81l-16 31l166 85q8 3 16 0l166 -85z" />
    <glyph glyph-name="ycircumflex" unicode="&#x177;" horiz-adv-x="548" 
d="M346 128h-35v236q0 27 14 45.5t39 27t50.5 0t39.5 -27t14 -45.5v-350q-1 -59 -30.5 -91.5t-83.5 -35.5q-2 -33 -22 -63t-45 -42t-45 -12q-35 0 -56.5 22.5t-22.5 49t10 45t30.5 26.5t38.5 8l78 -1v51v11t-1 19t-5.5 11.5t-11 2.5t-23.5 -4q-38 -9 -62 -9q-64 0 -100.5 42
t-36.5 117v279h35v-279q0 -57 25 -90.5t77 -33.5q22 0 54 8q44 11 65 -6t19 -68v-49q40 4 59 26.5t19 65.5l1 350q0 20 -13 31.5t-31 11.5t-31 -11.5t-13 -31.5v-236zM433 486l-158 81l-158 -81l-16 31l166 85q8 3 16 0l166 -85zM242 -196q27 0 50.5 25t26.5 56l-77 1
q-18 0 -28.5 -11.5t-12 -28t9.5 -29t31 -13.5z" />
    <glyph glyph-name="Ydieresis" unicode="&#x178;" horiz-adv-x="700" 
d="M62 816q0 34 25 58.5t58 24.5q34 0 58.5 -24.5t24.5 -58.5t-24.5 -58.5t-58.5 -24.5q-33 0 -58 24.5t-25 58.5zM95 816q0 -21 14.5 -35.5t35.5 -14.5t36 14.5t15 35.5t-15 36t-36 15t-35.5 -15t-14.5 -36zM472 816q0 34 25 58.5t58 24.5q34 0 58.5 -24.5t24.5 -58.5
t-24.5 -58.5t-58.5 -24.5q-33 0 -58 24.5t-25 58.5zM505 816q0 -21 14.5 -35.5t35.5 -14.5t36 14.5t15 35.5t-15 36t-36 15t-35.5 -15t-14.5 -36zM237 378l-162 187q-22 25 -18 57t26 52q16 14 39 18t42 -4t30 -21l148 -164l155 165q22 23 57 23.5t57 -20.5q21 -21 23.5 -52
t-17.5 -53l-244 -265q-52 -56 -67.5 -91.5t-15.5 -67.5v-66q0 -20 13 -31.5t31 -11.5t31 11t13 31v133h35v-133q0 -16 -7.5 -34.5t-27 -30.5t-43.5 -12q-34 0 -57 21.5t-23 56.5v66q0 41 19 82t74 100l242 265q11 13 9.5 30.5t-13.5 28.5q-10 10 -29.5 10.5t-33.5 -13.5
l-158 -165q-10 -12 -25.5 -11.5t-27.5 13.5l-144 162q-13 15 -31.5 15t-29.5 -10q-13 -12 -15.5 -29.5t8.5 -31.5l166 -186z" />
    </font>
</defs>
</svg>
